G75*
G70*
%OFA0B0*%
%FSLAX24Y24*%
%IPPOS*%
%LPD*%
%AMOC8*
5,1,8,0,0,1.08239X$1,22.5*
%
%ADD10C,0.1222*%
%ADD11C,0.1261*%
%ADD12R,0.1030X0.1030*%
%ADD13C,0.1030*%
%ADD14R,0.0880X0.0880*%
%ADD15C,0.0880*%
%ADD16C,0.0740*%
%ADD17C,0.1380*%
%ADD18C,0.1025*%
D10*
X010726Y018209D03*
X012380Y018209D03*
X014033Y018209D03*
X015687Y018209D03*
X017340Y018209D03*
X018994Y018209D03*
X020647Y018209D03*
X022301Y018209D03*
X023954Y018209D03*
X025608Y018209D03*
X027261Y018209D03*
X028915Y018209D03*
X028915Y020374D03*
X027261Y020374D03*
X025608Y020374D03*
X023954Y020374D03*
X022301Y020374D03*
X020647Y020374D03*
X018994Y020374D03*
X017340Y020374D03*
X015687Y020374D03*
X014033Y020374D03*
X012380Y020374D03*
X010726Y020374D03*
D11*
X008876Y018390D03*
X030765Y018390D03*
D12*
X027691Y027913D03*
X027718Y031850D03*
X037183Y031894D03*
X037218Y027961D03*
X018320Y027929D03*
X018269Y031882D03*
X008033Y031850D03*
X008049Y027957D03*
X014411Y009921D03*
X004765Y006528D03*
X004793Y002000D03*
X028702Y002016D03*
X028809Y006205D03*
D13*
X030777Y006205D03*
X032746Y006205D03*
X034714Y006205D03*
X034608Y002016D03*
X032639Y002016D03*
X030671Y002016D03*
X020317Y009921D03*
X018348Y009921D03*
X016380Y009921D03*
X010671Y006528D03*
X008702Y006528D03*
X006734Y006528D03*
X006761Y002000D03*
X008730Y002000D03*
X010698Y002000D03*
X012415Y027929D03*
X014383Y027929D03*
X016352Y027929D03*
X016301Y031882D03*
X014332Y031882D03*
X012364Y031882D03*
X006065Y031850D03*
X004096Y031850D03*
X002128Y031850D03*
X002143Y027957D03*
X004112Y027957D03*
X006080Y027957D03*
X021785Y027913D03*
X023754Y027913D03*
X025722Y027913D03*
X025750Y031850D03*
X023781Y031850D03*
X021813Y031850D03*
X031277Y031894D03*
X033246Y031894D03*
X035214Y031894D03*
X035250Y027961D03*
X033281Y027961D03*
X031313Y027961D03*
D14*
X023950Y009831D03*
D15*
X025919Y009831D03*
D16*
X025036Y003650D02*
X024376Y003650D01*
X024376Y001650D02*
X025036Y001650D01*
D17*
X002069Y002252D03*
X017506Y002650D03*
X037502Y002291D03*
X037502Y037724D03*
X002069Y037724D03*
D18*
X003400Y023242D03*
X003450Y019742D03*
X003450Y015742D03*
X003450Y011992D03*
X015691Y023157D03*
X036078Y023868D03*
X036128Y020368D03*
X036128Y016368D03*
X036128Y012618D03*
M02*
