G75*
G70*
%OFA0B0*%
%FSLAX24Y24*%
%IPPOS*%
%LPD*%
%AMOC8*
5,1,8,0,0,1.08239X$1,22.5*
%
%ADD10C,0.1142*%
%ADD11R,0.0950X0.0950*%
%ADD12C,0.0950*%
%ADD13R,0.0800X0.0800*%
%ADD14C,0.0800*%
%ADD15C,0.0660*%
%ADD16C,0.0945*%
%ADD17C,0.0160*%
%ADD18C,0.1500*%
%ADD19C,0.0320*%
%ADD20C,0.0100*%
D10*
X010726Y018209D03*
X012380Y018209D03*
X014033Y018209D03*
X015687Y018209D03*
X017340Y018209D03*
X018994Y018209D03*
X020647Y018209D03*
X022301Y018209D03*
X023954Y018209D03*
X025608Y018209D03*
X027261Y018209D03*
X028915Y018209D03*
X028915Y020374D03*
X027261Y020374D03*
X025608Y020374D03*
X023954Y020374D03*
X022301Y020374D03*
X020647Y020374D03*
X018994Y020374D03*
X017340Y020374D03*
X015687Y020374D03*
X014033Y020374D03*
X012380Y020374D03*
X010726Y020374D03*
D11*
X008049Y027957D03*
X008033Y031850D03*
X018269Y031882D03*
X018320Y027929D03*
X027691Y027913D03*
X027718Y031850D03*
X037183Y031894D03*
X037218Y027961D03*
X028809Y006205D03*
X028702Y002016D03*
X014411Y009921D03*
X004765Y006528D03*
X004793Y002000D03*
D12*
X006761Y002000D03*
X008730Y002000D03*
X010698Y002000D03*
X010671Y006528D03*
X008702Y006528D03*
X006734Y006528D03*
X016380Y009921D03*
X018348Y009921D03*
X020317Y009921D03*
X030777Y006205D03*
X032746Y006205D03*
X034714Y006205D03*
X034608Y002016D03*
X032639Y002016D03*
X030671Y002016D03*
X031313Y027961D03*
X033281Y027961D03*
X035250Y027961D03*
X035214Y031894D03*
X033246Y031894D03*
X031277Y031894D03*
X025750Y031850D03*
X023781Y031850D03*
X021813Y031850D03*
X021785Y027913D03*
X023754Y027913D03*
X025722Y027913D03*
X016352Y027929D03*
X014383Y027929D03*
X012415Y027929D03*
X012364Y031882D03*
X014332Y031882D03*
X016301Y031882D03*
X006065Y031850D03*
X004096Y031850D03*
X002128Y031850D03*
X002143Y027957D03*
X004112Y027957D03*
X006080Y027957D03*
D13*
X023950Y009831D03*
D14*
X025919Y009831D03*
D15*
X025036Y003650D02*
X024376Y003650D01*
X024376Y001650D02*
X025036Y001650D01*
D16*
X036128Y012618D03*
X036128Y016368D03*
X036128Y020368D03*
X036078Y023868D03*
X015691Y023157D03*
X003400Y023242D03*
X003450Y019742D03*
X003450Y015742D03*
X003450Y011992D03*
D17*
X027502Y008433D02*
X027502Y000953D01*
X038990Y000953D01*
X038990Y034339D01*
X029864Y034339D01*
X029864Y028669D01*
X030664Y027869D01*
X030658Y027913D01*
X031265Y027913D01*
X031361Y027913D01*
X031361Y028009D01*
X031967Y028009D01*
X031956Y028089D01*
X031934Y028172D01*
X031901Y028251D01*
X031858Y028325D01*
X031806Y028393D01*
X031745Y028454D01*
X031677Y028506D01*
X031603Y028549D01*
X031524Y028582D01*
X031441Y028604D01*
X031361Y028615D01*
X031361Y028009D01*
X031265Y028009D01*
X031265Y028615D01*
X031185Y028604D01*
X031102Y028582D01*
X031022Y028549D01*
X030948Y028506D01*
X030880Y028454D01*
X030819Y028393D01*
X030767Y028325D01*
X030724Y028251D01*
X030691Y028172D01*
X030669Y028089D01*
X030658Y028009D01*
X031265Y028009D01*
X031265Y027913D01*
X031265Y027306D01*
X031221Y027312D01*
X033407Y025126D01*
X033407Y014339D01*
X027502Y008433D01*
X027502Y008406D02*
X038990Y008406D01*
X038990Y008248D02*
X027502Y008248D01*
X027502Y008089D02*
X038990Y008089D01*
X038990Y007931D02*
X027502Y007931D01*
X027502Y007772D02*
X038990Y007772D01*
X038990Y007614D02*
X027502Y007614D01*
X027502Y007455D02*
X038990Y007455D01*
X038990Y007297D02*
X027502Y007297D01*
X027502Y007138D02*
X038990Y007138D01*
X038990Y006980D02*
X027502Y006980D01*
X027502Y006821D02*
X028221Y006821D01*
X028223Y006824D02*
X028190Y006790D01*
X028166Y006749D01*
X028154Y006703D01*
X028154Y006253D01*
X028761Y006253D01*
X028761Y006860D01*
X028310Y006860D01*
X028264Y006847D01*
X028223Y006824D01*
X028154Y006663D02*
X027502Y006663D01*
X027502Y006504D02*
X028154Y006504D01*
X028154Y006346D02*
X027502Y006346D01*
X027502Y006187D02*
X028761Y006187D01*
X028761Y006157D02*
X028154Y006157D01*
X028154Y005706D01*
X028166Y005660D01*
X028190Y005619D01*
X028223Y005586D01*
X028264Y005562D01*
X028310Y005550D01*
X028761Y005550D01*
X028761Y006157D01*
X028857Y006157D01*
X028857Y006253D01*
X029464Y006253D01*
X029464Y006703D01*
X029451Y006749D01*
X029428Y006790D01*
X029394Y006824D01*
X029353Y006847D01*
X029307Y006860D01*
X028857Y006860D01*
X028857Y006253D01*
X028761Y006253D01*
X028761Y006157D01*
X028857Y006157D02*
X028857Y005550D01*
X029307Y005550D01*
X029353Y005562D01*
X029394Y005586D01*
X029428Y005619D01*
X029451Y005660D01*
X029464Y005706D01*
X029464Y006157D01*
X028857Y006157D01*
X028857Y006187D02*
X030729Y006187D01*
X030729Y006157D02*
X030123Y006157D01*
X030133Y006077D01*
X030156Y005994D01*
X030188Y005914D01*
X030231Y005840D01*
X030284Y005772D01*
X030344Y005711D01*
X030412Y005659D01*
X030487Y005616D01*
X030566Y005583D01*
X030649Y005561D01*
X030729Y005550D01*
X030729Y006157D01*
X030729Y006253D01*
X030729Y006859D01*
X030649Y006849D01*
X030566Y006826D01*
X030487Y006793D01*
X030412Y006751D01*
X030344Y006698D01*
X030284Y006638D01*
X030231Y006569D01*
X030188Y006495D01*
X030156Y006416D01*
X030133Y006333D01*
X030123Y006253D01*
X030729Y006253D01*
X030825Y006253D01*
X030825Y006859D01*
X030905Y006849D01*
X030988Y006826D01*
X031067Y006793D01*
X031142Y006751D01*
X031210Y006698D01*
X031271Y006638D01*
X031323Y006569D01*
X031366Y006495D01*
X031399Y006416D01*
X031421Y006333D01*
X031432Y006253D01*
X030825Y006253D01*
X030825Y006157D01*
X031432Y006157D01*
X031421Y006077D01*
X031399Y005994D01*
X031366Y005914D01*
X031323Y005840D01*
X031271Y005772D01*
X031210Y005711D01*
X031142Y005659D01*
X031067Y005616D01*
X030988Y005583D01*
X030905Y005561D01*
X030825Y005550D01*
X030825Y006157D01*
X030729Y006157D01*
X030825Y006187D02*
X032698Y006187D01*
X032698Y006157D02*
X032091Y006157D01*
X032102Y006077D01*
X032124Y005994D01*
X032157Y005914D01*
X032200Y005840D01*
X032252Y005772D01*
X032313Y005711D01*
X032381Y005659D01*
X032455Y005616D01*
X032535Y005583D01*
X032618Y005561D01*
X032698Y005550D01*
X032698Y006157D01*
X032794Y006157D01*
X032794Y006253D01*
X033400Y006253D01*
X033389Y006333D01*
X033367Y006416D01*
X033334Y006495D01*
X033291Y006569D01*
X033239Y006638D01*
X033178Y006698D01*
X033110Y006751D01*
X033036Y006793D01*
X032957Y006826D01*
X032874Y006849D01*
X032794Y006859D01*
X032794Y006253D01*
X032698Y006253D01*
X032698Y006859D01*
X032618Y006849D01*
X032535Y006826D01*
X032455Y006793D01*
X032381Y006751D01*
X032313Y006698D01*
X032252Y006638D01*
X032200Y006569D01*
X032157Y006495D01*
X032124Y006416D01*
X032102Y006333D01*
X032091Y006253D01*
X032698Y006253D01*
X032698Y006157D01*
X032794Y006157D02*
X032794Y005550D01*
X032874Y005561D01*
X032957Y005583D01*
X033036Y005616D01*
X033110Y005659D01*
X033178Y005711D01*
X033239Y005772D01*
X033291Y005840D01*
X033334Y005914D01*
X033367Y005994D01*
X033389Y006077D01*
X033400Y006157D01*
X032794Y006157D01*
X032794Y006187D02*
X034666Y006187D01*
X034666Y006157D02*
X034060Y006157D01*
X034070Y006077D01*
X034093Y005994D01*
X034125Y005914D01*
X034168Y005840D01*
X034221Y005772D01*
X034281Y005711D01*
X034349Y005659D01*
X034424Y005616D01*
X034503Y005583D01*
X034586Y005561D01*
X034666Y005550D01*
X034666Y006157D01*
X034666Y006253D01*
X034666Y006859D01*
X034586Y006849D01*
X034503Y006826D01*
X034424Y006793D01*
X034349Y006751D01*
X034281Y006698D01*
X034221Y006638D01*
X034168Y006569D01*
X034125Y006495D01*
X034093Y006416D01*
X034070Y006333D01*
X034060Y006253D01*
X034666Y006253D01*
X034762Y006253D01*
X034762Y006859D01*
X034842Y006849D01*
X034925Y006826D01*
X035004Y006793D01*
X035079Y006751D01*
X035147Y006698D01*
X035208Y006638D01*
X035260Y006569D01*
X035303Y006495D01*
X035336Y006416D01*
X035358Y006333D01*
X035369Y006253D01*
X034762Y006253D01*
X034762Y006157D01*
X035369Y006157D01*
X035358Y006077D01*
X035336Y005994D01*
X035303Y005914D01*
X035260Y005840D01*
X035208Y005772D01*
X035147Y005711D01*
X035079Y005659D01*
X035004Y005616D01*
X034925Y005583D01*
X034842Y005561D01*
X034762Y005550D01*
X034762Y006157D01*
X034666Y006157D01*
X034762Y006187D02*
X038990Y006187D01*
X038990Y006029D02*
X035345Y006029D01*
X035277Y005870D02*
X038990Y005870D01*
X038990Y005712D02*
X035148Y005712D01*
X034762Y005712D02*
X034666Y005712D01*
X034666Y005870D02*
X034762Y005870D01*
X034762Y006029D02*
X034666Y006029D01*
X034666Y006346D02*
X034762Y006346D01*
X034762Y006504D02*
X034666Y006504D01*
X034666Y006663D02*
X034762Y006663D01*
X034762Y006821D02*
X034666Y006821D01*
X034491Y006821D02*
X032969Y006821D01*
X032794Y006821D02*
X032698Y006821D01*
X032698Y006663D02*
X032794Y006663D01*
X032794Y006504D02*
X032698Y006504D01*
X032698Y006346D02*
X032794Y006346D01*
X032794Y006029D02*
X032698Y006029D01*
X032698Y005870D02*
X032794Y005870D01*
X032794Y005712D02*
X032698Y005712D01*
X032698Y005553D02*
X032794Y005553D01*
X032816Y005553D02*
X034644Y005553D01*
X034666Y005553D02*
X034762Y005553D01*
X034785Y005553D02*
X038990Y005553D01*
X038990Y005395D02*
X027502Y005395D01*
X027502Y005553D02*
X028296Y005553D01*
X028154Y005712D02*
X027502Y005712D01*
X027502Y005870D02*
X028154Y005870D01*
X028154Y006029D02*
X027502Y006029D01*
X027502Y005236D02*
X038990Y005236D01*
X038990Y005078D02*
X027502Y005078D01*
X027502Y004919D02*
X038990Y004919D01*
X038990Y004761D02*
X027502Y004761D01*
X027502Y004602D02*
X038990Y004602D01*
X038990Y004444D02*
X027502Y004444D01*
X027502Y004285D02*
X038990Y004285D01*
X038990Y004127D02*
X027502Y004127D01*
X027502Y003968D02*
X038990Y003968D01*
X038990Y003810D02*
X027502Y003810D01*
X027502Y003651D02*
X038990Y003651D01*
X038990Y003493D02*
X027502Y003493D01*
X027502Y003334D02*
X037048Y003334D01*
X037065Y003344D02*
X036808Y003196D01*
X036597Y002985D01*
X036449Y002728D01*
X036372Y002440D01*
X036372Y002143D01*
X036449Y001855D01*
X036597Y001598D01*
X036808Y001387D01*
X037065Y001238D01*
X037353Y001161D01*
X037650Y001161D01*
X037938Y001238D01*
X038195Y001387D01*
X038406Y001598D01*
X038555Y001855D01*
X038632Y002143D01*
X038632Y002440D01*
X038555Y002728D01*
X038406Y002985D01*
X038195Y003196D01*
X037938Y003344D01*
X037650Y003421D01*
X037353Y003421D01*
X037065Y003344D01*
X036788Y003176D02*
X027502Y003176D01*
X027502Y003017D02*
X036630Y003017D01*
X036524Y002859D02*
X027502Y002859D01*
X027502Y002700D02*
X036441Y002700D01*
X036399Y002542D02*
X034998Y002542D01*
X034973Y002562D02*
X034898Y002604D01*
X034819Y002637D01*
X034736Y002660D01*
X034656Y002670D01*
X034656Y002064D01*
X034560Y002064D01*
X034560Y002670D01*
X034480Y002660D01*
X034397Y002637D01*
X034318Y002604D01*
X034243Y002562D01*
X034175Y002509D01*
X034114Y002449D01*
X034062Y002380D01*
X034019Y002306D01*
X033986Y002227D01*
X033964Y002144D01*
X033954Y002064D01*
X034560Y002064D01*
X034560Y001968D01*
X033954Y001968D01*
X033964Y001888D01*
X033986Y001805D01*
X034019Y001725D01*
X034062Y001651D01*
X034114Y001583D01*
X034175Y001522D01*
X034243Y001470D01*
X034318Y001427D01*
X034397Y001394D01*
X034480Y001372D01*
X034560Y001361D01*
X034560Y001968D01*
X034656Y001968D01*
X034656Y002064D01*
X035262Y002064D01*
X035252Y002144D01*
X035229Y002227D01*
X035197Y002306D01*
X035154Y002380D01*
X035101Y002449D01*
X035041Y002509D01*
X034973Y002562D01*
X035151Y002383D02*
X036372Y002383D01*
X036372Y002225D02*
X035230Y002225D01*
X035262Y002066D02*
X036392Y002066D01*
X036434Y001908D02*
X035254Y001908D01*
X035252Y001888D02*
X035262Y001968D01*
X034656Y001968D01*
X034656Y001361D01*
X034736Y001372D01*
X034819Y001394D01*
X034898Y001427D01*
X034973Y001470D01*
X035041Y001522D01*
X035101Y001583D01*
X035154Y001651D01*
X035197Y001725D01*
X035229Y001805D01*
X035252Y001888D01*
X035206Y001749D02*
X036510Y001749D01*
X036604Y001591D02*
X035107Y001591D01*
X034907Y001432D02*
X036763Y001432D01*
X037004Y001274D02*
X027502Y001274D01*
X027502Y001432D02*
X028082Y001432D01*
X028083Y001430D02*
X028117Y001397D01*
X028158Y001373D01*
X028204Y001361D01*
X028654Y001361D01*
X028654Y001968D01*
X028047Y001968D01*
X028047Y001517D01*
X028060Y001471D01*
X028083Y001430D01*
X028047Y001591D02*
X027502Y001591D01*
X027502Y001749D02*
X028047Y001749D01*
X028047Y001908D02*
X027502Y001908D01*
X027502Y002066D02*
X028047Y002066D01*
X028047Y002064D02*
X028654Y002064D01*
X028654Y001968D01*
X028750Y001968D01*
X028750Y001361D01*
X029201Y001361D01*
X029247Y001373D01*
X029288Y001397D01*
X029321Y001430D01*
X029345Y001471D01*
X029357Y001517D01*
X029357Y001968D01*
X028750Y001968D01*
X028750Y002064D01*
X028654Y002064D01*
X028654Y002671D01*
X028204Y002671D01*
X028158Y002658D01*
X028117Y002635D01*
X028083Y002601D01*
X028060Y002560D01*
X028047Y002514D01*
X028047Y002064D01*
X028047Y002225D02*
X027502Y002225D01*
X027502Y002383D02*
X028047Y002383D01*
X028055Y002542D02*
X027502Y002542D01*
X028654Y002542D02*
X028750Y002542D01*
X028750Y002671D02*
X029201Y002671D01*
X029247Y002658D01*
X029288Y002635D01*
X029321Y002601D01*
X029345Y002560D01*
X029357Y002514D01*
X029357Y002064D01*
X028750Y002064D01*
X028750Y002671D01*
X028750Y002383D02*
X028654Y002383D01*
X028654Y002225D02*
X028750Y002225D01*
X028750Y002066D02*
X028654Y002066D01*
X028654Y001908D02*
X028750Y001908D01*
X028750Y001749D02*
X028654Y001749D01*
X028654Y001591D02*
X028750Y001591D01*
X028750Y001432D02*
X028654Y001432D01*
X029323Y001432D02*
X030371Y001432D01*
X030381Y001427D02*
X030460Y001394D01*
X030543Y001372D01*
X030623Y001361D01*
X030623Y001968D01*
X030017Y001968D01*
X030027Y001888D01*
X030049Y001805D01*
X030082Y001725D01*
X030125Y001651D01*
X030177Y001583D01*
X030238Y001522D01*
X030306Y001470D01*
X030381Y001427D01*
X030623Y001432D02*
X030719Y001432D01*
X030719Y001361D02*
X030799Y001372D01*
X030882Y001394D01*
X030961Y001427D01*
X031036Y001470D01*
X031104Y001522D01*
X031164Y001583D01*
X031217Y001651D01*
X031260Y001725D01*
X031292Y001805D01*
X031315Y001888D01*
X031325Y001968D01*
X030719Y001968D01*
X030719Y002064D01*
X030623Y002064D01*
X030623Y002670D01*
X030543Y002660D01*
X030460Y002637D01*
X030381Y002604D01*
X030306Y002562D01*
X030238Y002509D01*
X030177Y002449D01*
X030125Y002380D01*
X030082Y002306D01*
X030049Y002227D01*
X030027Y002144D01*
X030017Y002064D01*
X030623Y002064D01*
X030623Y001968D01*
X030719Y001968D01*
X030719Y001361D01*
X030719Y001591D02*
X030623Y001591D01*
X030623Y001749D02*
X030719Y001749D01*
X030719Y001908D02*
X030623Y001908D01*
X030623Y002066D02*
X030719Y002066D01*
X030719Y002064D02*
X030719Y002670D01*
X030799Y002660D01*
X030882Y002637D01*
X030961Y002604D01*
X031036Y002562D01*
X031104Y002509D01*
X031164Y002449D01*
X031217Y002380D01*
X031260Y002306D01*
X031292Y002227D01*
X031315Y002144D01*
X031325Y002064D01*
X030719Y002064D01*
X030719Y002225D02*
X030623Y002225D01*
X030623Y002383D02*
X030719Y002383D01*
X030719Y002542D02*
X030623Y002542D01*
X030281Y002542D02*
X029350Y002542D01*
X029357Y002383D02*
X030127Y002383D01*
X030049Y002225D02*
X029357Y002225D01*
X029357Y002066D02*
X030017Y002066D01*
X030024Y001908D02*
X029357Y001908D01*
X029357Y001749D02*
X030072Y001749D01*
X030171Y001591D02*
X029357Y001591D01*
X030970Y001432D02*
X032340Y001432D01*
X032349Y001427D02*
X032428Y001394D01*
X032511Y001372D01*
X032591Y001361D01*
X032591Y001968D01*
X031985Y001968D01*
X031996Y001888D01*
X032018Y001805D01*
X032051Y001725D01*
X032094Y001651D01*
X032146Y001583D01*
X032207Y001522D01*
X032275Y001470D01*
X032349Y001427D01*
X032591Y001432D02*
X032687Y001432D01*
X032687Y001361D02*
X032767Y001372D01*
X032850Y001394D01*
X032930Y001427D01*
X033004Y001470D01*
X033072Y001522D01*
X033133Y001583D01*
X033185Y001651D01*
X033228Y001725D01*
X033261Y001805D01*
X033283Y001888D01*
X033294Y001968D01*
X032687Y001968D01*
X032687Y001361D01*
X032687Y001591D02*
X032591Y001591D01*
X032591Y001749D02*
X032687Y001749D01*
X032687Y001908D02*
X032591Y001908D01*
X032591Y001968D02*
X032687Y001968D01*
X032687Y002064D01*
X032591Y002064D01*
X032591Y001968D01*
X032591Y002064D02*
X031985Y002064D01*
X031996Y002144D01*
X032018Y002227D01*
X032051Y002306D01*
X032094Y002380D01*
X032146Y002449D01*
X032207Y002509D01*
X032275Y002562D01*
X032349Y002604D01*
X032428Y002637D01*
X032511Y002660D01*
X032591Y002670D01*
X032591Y002064D01*
X032591Y002066D02*
X032687Y002066D01*
X032687Y002064D02*
X032687Y002670D01*
X032767Y002660D01*
X032850Y002637D01*
X032930Y002604D01*
X033004Y002562D01*
X033072Y002509D01*
X033133Y002449D01*
X033185Y002380D01*
X033228Y002306D01*
X033261Y002227D01*
X033283Y002144D01*
X033294Y002064D01*
X032687Y002064D01*
X032687Y002225D02*
X032591Y002225D01*
X032591Y002383D02*
X032687Y002383D01*
X032687Y002542D02*
X032591Y002542D01*
X032249Y002542D02*
X031061Y002542D01*
X031214Y002383D02*
X032096Y002383D01*
X032017Y002225D02*
X031293Y002225D01*
X031325Y002066D02*
X031985Y002066D01*
X031993Y001908D02*
X031317Y001908D01*
X031269Y001749D02*
X032041Y001749D01*
X032140Y001591D02*
X031170Y001591D01*
X032939Y001432D02*
X034308Y001432D01*
X034560Y001432D02*
X034656Y001432D01*
X034656Y001591D02*
X034560Y001591D01*
X034560Y001749D02*
X034656Y001749D01*
X034656Y001908D02*
X034560Y001908D01*
X034560Y002066D02*
X034656Y002066D01*
X034656Y002225D02*
X034560Y002225D01*
X034560Y002383D02*
X034656Y002383D01*
X034656Y002542D02*
X034560Y002542D01*
X034218Y002542D02*
X033030Y002542D01*
X033183Y002383D02*
X034064Y002383D01*
X033986Y002225D02*
X033261Y002225D01*
X033293Y002066D02*
X033954Y002066D01*
X033961Y001908D02*
X033286Y001908D01*
X033238Y001749D02*
X034009Y001749D01*
X034108Y001591D02*
X033139Y001591D01*
X032675Y005553D02*
X030848Y005553D01*
X030825Y005553D02*
X030729Y005553D01*
X030707Y005553D02*
X029321Y005553D01*
X029464Y005712D02*
X030344Y005712D01*
X030214Y005870D02*
X029464Y005870D01*
X029464Y006029D02*
X030146Y006029D01*
X030137Y006346D02*
X029464Y006346D01*
X029464Y006504D02*
X030194Y006504D01*
X030309Y006663D02*
X029464Y006663D01*
X029397Y006821D02*
X030554Y006821D01*
X030729Y006821D02*
X030825Y006821D01*
X030825Y006663D02*
X030729Y006663D01*
X030729Y006504D02*
X030825Y006504D01*
X030825Y006346D02*
X030729Y006346D01*
X030729Y006029D02*
X030825Y006029D01*
X030825Y005870D02*
X030729Y005870D01*
X030729Y005712D02*
X030825Y005712D01*
X031211Y005712D02*
X032312Y005712D01*
X032182Y005870D02*
X031340Y005870D01*
X031408Y006029D02*
X032115Y006029D01*
X032105Y006346D02*
X031417Y006346D01*
X031361Y006504D02*
X032162Y006504D01*
X032277Y006663D02*
X031245Y006663D01*
X031000Y006821D02*
X032523Y006821D01*
X033214Y006663D02*
X034246Y006663D01*
X034131Y006504D02*
X033329Y006504D01*
X033386Y006346D02*
X034074Y006346D01*
X034083Y006029D02*
X033377Y006029D01*
X033309Y005870D02*
X034151Y005870D01*
X034281Y005712D02*
X033179Y005712D01*
X034937Y006821D02*
X038990Y006821D01*
X038990Y006663D02*
X035182Y006663D01*
X035298Y006504D02*
X038990Y006504D01*
X038990Y006346D02*
X035354Y006346D01*
X037955Y003334D02*
X038990Y003334D01*
X038990Y003176D02*
X038215Y003176D01*
X038374Y003017D02*
X038990Y003017D01*
X038990Y002859D02*
X038479Y002859D01*
X038562Y002700D02*
X038990Y002700D01*
X038990Y002542D02*
X038604Y002542D01*
X038632Y002383D02*
X038990Y002383D01*
X038990Y002225D02*
X038632Y002225D01*
X038611Y002066D02*
X038990Y002066D01*
X038990Y001908D02*
X038569Y001908D01*
X038493Y001749D02*
X038990Y001749D01*
X038990Y001591D02*
X038399Y001591D01*
X038241Y001432D02*
X038990Y001432D01*
X038990Y001274D02*
X037999Y001274D01*
X038990Y001115D02*
X027502Y001115D01*
X027502Y000957D02*
X038990Y000957D01*
X038990Y008565D02*
X027633Y008565D01*
X027792Y008723D02*
X038990Y008723D01*
X038990Y008882D02*
X027950Y008882D01*
X028109Y009040D02*
X038990Y009040D01*
X038990Y009199D02*
X028267Y009199D01*
X028426Y009357D02*
X038990Y009357D01*
X038990Y009516D02*
X028584Y009516D01*
X028743Y009674D02*
X038990Y009674D01*
X038990Y009833D02*
X028901Y009833D01*
X029060Y009991D02*
X038990Y009991D01*
X038990Y010150D02*
X029218Y010150D01*
X029377Y010308D02*
X038990Y010308D01*
X038990Y010467D02*
X029535Y010467D01*
X029694Y010625D02*
X038990Y010625D01*
X038990Y010784D02*
X029852Y010784D01*
X030011Y010942D02*
X038990Y010942D01*
X038990Y011101D02*
X030169Y011101D01*
X030328Y011259D02*
X038990Y011259D01*
X038990Y011418D02*
X030486Y011418D01*
X030645Y011576D02*
X038990Y011576D01*
X038990Y011735D02*
X030803Y011735D01*
X030962Y011893D02*
X038990Y011893D01*
X038990Y012052D02*
X036452Y012052D01*
X036417Y012032D02*
X036491Y012074D01*
X036559Y012127D01*
X036619Y012187D01*
X036671Y012255D01*
X036714Y012329D01*
X036747Y012408D01*
X036769Y012491D01*
X036775Y012541D01*
X036205Y012541D01*
X036205Y012696D01*
X036050Y012696D01*
X036050Y013266D01*
X036000Y013259D01*
X035917Y013237D01*
X035838Y013205D01*
X035764Y013162D01*
X035696Y013110D01*
X035636Y013049D01*
X035584Y012981D01*
X035541Y012907D01*
X035508Y012828D01*
X035486Y012746D01*
X035480Y012696D01*
X036050Y012696D01*
X036050Y012541D01*
X035480Y012541D01*
X035486Y012491D01*
X035508Y012408D01*
X035541Y012329D01*
X035584Y012255D01*
X035636Y012187D01*
X035696Y012127D01*
X035764Y012074D01*
X035838Y012032D01*
X035917Y011999D01*
X036000Y011977D01*
X036050Y011970D01*
X036050Y012541D01*
X036205Y012541D01*
X036205Y011970D01*
X036255Y011977D01*
X036338Y011999D01*
X036417Y012032D01*
X036205Y012052D02*
X036050Y012052D01*
X036050Y012210D02*
X036205Y012210D01*
X036205Y012369D02*
X036050Y012369D01*
X036050Y012527D02*
X036205Y012527D01*
X036205Y012686D02*
X038990Y012686D01*
X038990Y012844D02*
X036740Y012844D01*
X036747Y012828D02*
X036714Y012907D01*
X036671Y012981D01*
X036619Y013049D01*
X036559Y013110D01*
X036491Y013162D01*
X036417Y013205D01*
X036338Y013237D01*
X036255Y013259D01*
X036205Y013266D01*
X036205Y012696D01*
X036775Y012696D01*
X036769Y012746D01*
X036747Y012828D01*
X036655Y013003D02*
X038990Y013003D01*
X038990Y013161D02*
X036491Y013161D01*
X036205Y013161D02*
X036050Y013161D01*
X036050Y013003D02*
X036205Y013003D01*
X036205Y012844D02*
X036050Y012844D01*
X036050Y012686D02*
X031754Y012686D01*
X031596Y012527D02*
X035481Y012527D01*
X035525Y012369D02*
X031437Y012369D01*
X031279Y012210D02*
X035618Y012210D01*
X035803Y012052D02*
X031120Y012052D01*
X031913Y012844D02*
X035515Y012844D01*
X035600Y013003D02*
X032071Y013003D01*
X032230Y013161D02*
X035764Y013161D01*
X036774Y012527D02*
X038990Y012527D01*
X038990Y012369D02*
X036731Y012369D01*
X036637Y012210D02*
X038990Y012210D01*
X038990Y013320D02*
X032388Y013320D01*
X032547Y013478D02*
X038990Y013478D01*
X038990Y013637D02*
X032705Y013637D01*
X032864Y013795D02*
X038990Y013795D01*
X038990Y013954D02*
X033022Y013954D01*
X033181Y014112D02*
X038990Y014112D01*
X038990Y014271D02*
X033339Y014271D01*
X033407Y014429D02*
X038990Y014429D01*
X038990Y014588D02*
X033407Y014588D01*
X033407Y014746D02*
X038990Y014746D01*
X038990Y014905D02*
X033407Y014905D01*
X033407Y015063D02*
X038990Y015063D01*
X038990Y015222D02*
X033407Y015222D01*
X033407Y015380D02*
X038990Y015380D01*
X038990Y015539D02*
X033407Y015539D01*
X033407Y015697D02*
X038990Y015697D01*
X038990Y015856D02*
X036532Y015856D01*
X036559Y015877D02*
X036619Y015937D01*
X036671Y016005D01*
X036714Y016079D01*
X036747Y016158D01*
X036769Y016241D01*
X036775Y016291D01*
X036205Y016291D01*
X036205Y016446D01*
X036050Y016446D01*
X036050Y017016D01*
X036000Y017009D01*
X035917Y016987D01*
X035838Y016955D01*
X035764Y016912D01*
X035696Y016860D01*
X035636Y016799D01*
X035584Y016731D01*
X035541Y016657D01*
X035508Y016578D01*
X035486Y016496D01*
X035480Y016446D01*
X036050Y016446D01*
X036050Y016291D01*
X035480Y016291D01*
X035486Y016241D01*
X035508Y016158D01*
X035541Y016079D01*
X035584Y016005D01*
X035636Y015937D01*
X035696Y015877D01*
X035764Y015824D01*
X035838Y015782D01*
X035917Y015749D01*
X036000Y015727D01*
X036050Y015720D01*
X036050Y016291D01*
X036205Y016291D01*
X036205Y015720D01*
X036255Y015727D01*
X036338Y015749D01*
X036417Y015782D01*
X036491Y015824D01*
X036559Y015877D01*
X036677Y016014D02*
X038990Y016014D01*
X038990Y016173D02*
X036751Y016173D01*
X036775Y016446D02*
X036205Y016446D01*
X036205Y017016D01*
X036255Y017009D01*
X036338Y016987D01*
X036417Y016955D01*
X036491Y016912D01*
X036559Y016860D01*
X036619Y016799D01*
X036671Y016731D01*
X036714Y016657D01*
X036747Y016578D01*
X036769Y016496D01*
X036775Y016446D01*
X036770Y016490D02*
X038990Y016490D01*
X038990Y016648D02*
X036718Y016648D01*
X036611Y016807D02*
X038990Y016807D01*
X038990Y016965D02*
X036391Y016965D01*
X036205Y016965D02*
X036050Y016965D01*
X036050Y016807D02*
X036205Y016807D01*
X036205Y016648D02*
X036050Y016648D01*
X036050Y016490D02*
X036205Y016490D01*
X036205Y016331D02*
X038990Y016331D01*
X038990Y017124D02*
X033407Y017124D01*
X033407Y017282D02*
X038990Y017282D01*
X038990Y017441D02*
X033407Y017441D01*
X033407Y017599D02*
X038990Y017599D01*
X038990Y017758D02*
X033407Y017758D01*
X033407Y017916D02*
X038990Y017916D01*
X038990Y018075D02*
X033407Y018075D01*
X033407Y018233D02*
X038990Y018233D01*
X038990Y018392D02*
X033407Y018392D01*
X033407Y018550D02*
X038990Y018550D01*
X038990Y018709D02*
X033407Y018709D01*
X033407Y018867D02*
X038990Y018867D01*
X038990Y019026D02*
X033407Y019026D01*
X033407Y019184D02*
X038990Y019184D01*
X038990Y019343D02*
X033407Y019343D01*
X033407Y019501D02*
X038990Y019501D01*
X038990Y019660D02*
X033407Y019660D01*
X033407Y019818D02*
X035775Y019818D01*
X035764Y019824D02*
X035838Y019782D01*
X035917Y019749D01*
X036000Y019727D01*
X036050Y019720D01*
X036050Y020291D01*
X035480Y020291D01*
X035486Y020241D01*
X035508Y020158D01*
X035541Y020079D01*
X035584Y020005D01*
X035636Y019937D01*
X035696Y019877D01*
X035764Y019824D01*
X035605Y019977D02*
X033407Y019977D01*
X033407Y020135D02*
X035518Y020135D01*
X035480Y020446D02*
X036050Y020446D01*
X036050Y021016D01*
X036000Y021009D01*
X035917Y020987D01*
X035838Y020955D01*
X035764Y020912D01*
X035696Y020860D01*
X035636Y020799D01*
X035584Y020731D01*
X035541Y020657D01*
X035508Y020578D01*
X035486Y020496D01*
X035480Y020446D01*
X035481Y020452D02*
X033407Y020452D01*
X033407Y020294D02*
X036050Y020294D01*
X036050Y020291D02*
X036050Y020446D01*
X036205Y020446D01*
X036205Y021016D01*
X036255Y021009D01*
X036338Y020987D01*
X036417Y020955D01*
X036491Y020912D01*
X036559Y020860D01*
X036619Y020799D01*
X036671Y020731D01*
X036714Y020657D01*
X036747Y020578D01*
X036769Y020496D01*
X036775Y020446D01*
X036205Y020446D01*
X036205Y020291D01*
X036775Y020291D01*
X036769Y020241D01*
X036747Y020158D01*
X036714Y020079D01*
X036671Y020005D01*
X036619Y019937D01*
X036559Y019877D01*
X036491Y019824D01*
X036417Y019782D01*
X036338Y019749D01*
X036255Y019727D01*
X036205Y019720D01*
X036205Y020291D01*
X036050Y020291D01*
X036205Y020294D02*
X038990Y020294D01*
X038990Y020452D02*
X036775Y020452D01*
X036733Y020611D02*
X038990Y020611D01*
X038990Y020769D02*
X036642Y020769D01*
X036463Y020928D02*
X038990Y020928D01*
X038990Y021086D02*
X033407Y021086D01*
X033407Y020928D02*
X035792Y020928D01*
X035613Y020769D02*
X033407Y020769D01*
X033407Y020611D02*
X035522Y020611D01*
X036050Y020611D02*
X036205Y020611D01*
X036205Y020769D02*
X036050Y020769D01*
X036050Y020928D02*
X036205Y020928D01*
X036205Y020452D02*
X036050Y020452D01*
X036050Y020135D02*
X036205Y020135D01*
X036205Y019977D02*
X036050Y019977D01*
X036050Y019818D02*
X036205Y019818D01*
X036480Y019818D02*
X038990Y019818D01*
X038990Y019977D02*
X036650Y019977D01*
X036737Y020135D02*
X038990Y020135D01*
X038990Y021245D02*
X033407Y021245D01*
X033407Y021403D02*
X038990Y021403D01*
X038990Y021562D02*
X033407Y021562D01*
X033407Y021720D02*
X038990Y021720D01*
X038990Y021879D02*
X033407Y021879D01*
X033407Y022037D02*
X038990Y022037D01*
X038990Y022196D02*
X033407Y022196D01*
X033407Y022354D02*
X038990Y022354D01*
X038990Y022513D02*
X033407Y022513D01*
X033407Y022671D02*
X038990Y022671D01*
X038990Y022830D02*
X033407Y022830D01*
X033407Y022988D02*
X038990Y022988D01*
X038990Y023147D02*
X033407Y023147D01*
X033407Y023305D02*
X035747Y023305D01*
X035714Y023324D02*
X035788Y023282D01*
X035867Y023249D01*
X035950Y023227D01*
X036000Y023220D01*
X036000Y023791D01*
X035430Y023791D01*
X035436Y023741D01*
X035458Y023658D01*
X035491Y023579D01*
X035534Y023505D01*
X035586Y023437D01*
X035646Y023377D01*
X035714Y023324D01*
X035565Y023464D02*
X033407Y023464D01*
X033407Y023622D02*
X035473Y023622D01*
X035431Y023781D02*
X033407Y023781D01*
X033407Y023939D02*
X036000Y023939D01*
X036000Y023946D02*
X036000Y023791D01*
X036155Y023791D01*
X036155Y023946D01*
X036000Y023946D01*
X036000Y024516D01*
X035950Y024509D01*
X035867Y024487D01*
X035788Y024455D01*
X035714Y024412D01*
X035646Y024360D01*
X035586Y024299D01*
X035534Y024231D01*
X035491Y024157D01*
X035458Y024078D01*
X035436Y023996D01*
X035430Y023946D01*
X036000Y023946D01*
X036000Y024098D02*
X036155Y024098D01*
X036155Y023946D02*
X036155Y024516D01*
X036205Y024509D01*
X036288Y024487D01*
X036367Y024455D01*
X036441Y024412D01*
X036509Y024360D01*
X036569Y024299D01*
X036621Y024231D01*
X036664Y024157D01*
X036697Y024078D01*
X036719Y023996D01*
X036725Y023946D01*
X036155Y023946D01*
X036155Y023939D02*
X038990Y023939D01*
X038990Y023781D02*
X036724Y023781D01*
X036725Y023791D02*
X036155Y023791D01*
X036155Y023220D01*
X036205Y023227D01*
X036288Y023249D01*
X036367Y023282D01*
X036441Y023324D01*
X036509Y023377D01*
X036569Y023437D01*
X036621Y023505D01*
X036664Y023579D01*
X036697Y023658D01*
X036719Y023741D01*
X036725Y023791D01*
X036682Y023622D02*
X038990Y023622D01*
X038990Y023464D02*
X036590Y023464D01*
X036408Y023305D02*
X038990Y023305D01*
X038990Y024098D02*
X036689Y024098D01*
X036602Y024256D02*
X038990Y024256D01*
X038990Y024415D02*
X036435Y024415D01*
X036155Y024415D02*
X036000Y024415D01*
X036000Y024256D02*
X036155Y024256D01*
X035720Y024415D02*
X033407Y024415D01*
X033407Y024573D02*
X038990Y024573D01*
X038990Y024732D02*
X033407Y024732D01*
X033407Y024890D02*
X038990Y024890D01*
X038990Y025049D02*
X033407Y025049D01*
X033326Y025207D02*
X038990Y025207D01*
X038990Y025366D02*
X033167Y025366D01*
X033009Y025524D02*
X038990Y025524D01*
X038990Y025683D02*
X032850Y025683D01*
X032692Y025841D02*
X038990Y025841D01*
X038990Y026000D02*
X032533Y026000D01*
X032375Y026158D02*
X038990Y026158D01*
X038990Y026317D02*
X032216Y026317D01*
X032058Y026475D02*
X038990Y026475D01*
X038990Y026634D02*
X031899Y026634D01*
X031741Y026792D02*
X038990Y026792D01*
X038990Y026951D02*
X031582Y026951D01*
X031424Y027109D02*
X038990Y027109D01*
X038990Y027268D02*
X031265Y027268D01*
X031361Y027306D02*
X031441Y027317D01*
X031524Y027339D01*
X031603Y027372D01*
X031677Y027415D01*
X031745Y027467D01*
X031806Y027528D01*
X031858Y027596D01*
X031901Y027670D01*
X031934Y027750D01*
X031956Y027833D01*
X031967Y027913D01*
X031361Y027913D01*
X031361Y027306D01*
X031361Y027426D02*
X031265Y027426D01*
X031265Y027585D02*
X031361Y027585D01*
X031361Y027743D02*
X031265Y027743D01*
X031265Y027902D02*
X031361Y027902D01*
X031361Y028060D02*
X031265Y028060D01*
X031265Y028219D02*
X031361Y028219D01*
X031361Y028377D02*
X031265Y028377D01*
X031265Y028536D02*
X031361Y028536D01*
X031626Y028536D02*
X032967Y028536D01*
X032991Y028549D02*
X032916Y028506D01*
X032848Y028454D01*
X032788Y028393D01*
X032735Y028325D01*
X032692Y028251D01*
X032660Y028172D01*
X032637Y028089D01*
X032627Y028009D01*
X033233Y028009D01*
X033233Y028615D01*
X033153Y028604D01*
X033070Y028582D01*
X032991Y028549D01*
X033233Y028536D02*
X033329Y028536D01*
X033329Y028615D02*
X033409Y028604D01*
X033492Y028582D01*
X033571Y028549D01*
X033646Y028506D01*
X033714Y028454D01*
X033775Y028393D01*
X033827Y028325D01*
X033870Y028251D01*
X033903Y028172D01*
X033925Y028089D01*
X033935Y028009D01*
X033329Y028009D01*
X033233Y028009D01*
X033233Y027913D01*
X032627Y027913D01*
X032637Y027833D01*
X032660Y027750D01*
X032692Y027670D01*
X032735Y027596D01*
X032788Y027528D01*
X032848Y027467D01*
X032916Y027415D01*
X032991Y027372D01*
X033070Y027339D01*
X033153Y027317D01*
X033233Y027306D01*
X033233Y027913D01*
X033329Y027913D01*
X033329Y028009D01*
X033329Y028615D01*
X033329Y028377D02*
X033233Y028377D01*
X033233Y028219D02*
X033329Y028219D01*
X033329Y028060D02*
X033233Y028060D01*
X033233Y027902D02*
X033329Y027902D01*
X033329Y027913D02*
X033329Y027306D01*
X033409Y027317D01*
X033492Y027339D01*
X033571Y027372D01*
X033646Y027415D01*
X033714Y027467D01*
X033775Y027528D01*
X033827Y027596D01*
X033870Y027670D01*
X033903Y027750D01*
X033925Y027833D01*
X033935Y027913D01*
X033329Y027913D01*
X033329Y027743D02*
X033233Y027743D01*
X033233Y027585D02*
X033329Y027585D01*
X033329Y027426D02*
X033233Y027426D01*
X032901Y027426D02*
X031692Y027426D01*
X031850Y027585D02*
X032744Y027585D01*
X032662Y027743D02*
X031932Y027743D01*
X031966Y027902D02*
X032628Y027902D01*
X032634Y028060D02*
X031960Y028060D01*
X031915Y028219D02*
X032679Y028219D01*
X032775Y028377D02*
X031818Y028377D01*
X030999Y028536D02*
X029997Y028536D01*
X029864Y028694D02*
X038990Y028694D01*
X038990Y028536D02*
X037843Y028536D01*
X037837Y028546D02*
X037804Y028580D01*
X037763Y028603D01*
X037717Y028616D01*
X037266Y028616D01*
X037266Y028009D01*
X037170Y028009D01*
X037170Y028616D01*
X036719Y028616D01*
X036674Y028603D01*
X036633Y028580D01*
X036599Y028546D01*
X036575Y028505D01*
X036563Y028459D01*
X036563Y028009D01*
X037170Y028009D01*
X037170Y027913D01*
X036563Y027913D01*
X036563Y027462D01*
X036575Y027416D01*
X036599Y027375D01*
X036633Y027342D01*
X036674Y027318D01*
X036719Y027306D01*
X037170Y027306D01*
X037170Y027913D01*
X037266Y027913D01*
X037266Y028009D01*
X037873Y028009D01*
X037873Y028459D01*
X037861Y028505D01*
X037837Y028546D01*
X037873Y028377D02*
X038990Y028377D01*
X038990Y028219D02*
X037873Y028219D01*
X037873Y028060D02*
X038990Y028060D01*
X038990Y027902D02*
X037873Y027902D01*
X037873Y027913D02*
X037266Y027913D01*
X037266Y027306D01*
X037717Y027306D01*
X037763Y027318D01*
X037804Y027342D01*
X037837Y027375D01*
X037861Y027416D01*
X037873Y027462D01*
X037873Y027913D01*
X037873Y027743D02*
X038990Y027743D01*
X038990Y027585D02*
X037873Y027585D01*
X037864Y027426D02*
X038990Y027426D01*
X038990Y028853D02*
X029864Y028853D01*
X029864Y029011D02*
X038990Y029011D01*
X038990Y029170D02*
X029864Y029170D01*
X029864Y029328D02*
X038990Y029328D01*
X038990Y029487D02*
X029864Y029487D01*
X029864Y029645D02*
X038990Y029645D01*
X038990Y029804D02*
X029864Y029804D01*
X029864Y029962D02*
X038990Y029962D01*
X038990Y030121D02*
X029864Y030121D01*
X029864Y030279D02*
X038990Y030279D01*
X038990Y030438D02*
X029864Y030438D01*
X029864Y030596D02*
X038990Y030596D01*
X038990Y030755D02*
X029864Y030755D01*
X029864Y030913D02*
X038990Y030913D01*
X038990Y031072D02*
X029864Y031072D01*
X029864Y031230D02*
X038990Y031230D01*
X038990Y031389D02*
X037836Y031389D01*
X037838Y031395D02*
X037838Y031846D01*
X037231Y031846D01*
X037231Y031942D01*
X037135Y031942D01*
X037135Y032549D01*
X036684Y032549D01*
X036638Y032536D01*
X036597Y032513D01*
X036564Y032479D01*
X036540Y032438D01*
X036528Y032392D01*
X036528Y031942D01*
X037135Y031942D01*
X037135Y031846D01*
X037231Y031846D01*
X037231Y031239D01*
X037681Y031239D01*
X037727Y031251D01*
X037768Y031275D01*
X037802Y031308D01*
X037825Y031349D01*
X037838Y031395D01*
X037838Y031547D02*
X038990Y031547D01*
X038990Y031706D02*
X037838Y031706D01*
X037838Y031942D02*
X037838Y032392D01*
X037825Y032438D01*
X037802Y032479D01*
X037768Y032513D01*
X037727Y032536D01*
X037681Y032549D01*
X037231Y032549D01*
X037231Y031942D01*
X037838Y031942D01*
X037838Y032023D02*
X038990Y032023D01*
X038990Y032181D02*
X037838Y032181D01*
X037838Y032340D02*
X038990Y032340D01*
X038990Y032498D02*
X037783Y032498D01*
X037231Y032498D02*
X037135Y032498D01*
X037135Y032340D02*
X037231Y032340D01*
X037231Y032181D02*
X037135Y032181D01*
X037135Y032023D02*
X037231Y032023D01*
X037231Y031864D02*
X038990Y031864D01*
X038990Y032657D02*
X029864Y032657D01*
X029864Y032815D02*
X038990Y032815D01*
X038990Y032974D02*
X029864Y032974D01*
X029864Y033132D02*
X038990Y033132D01*
X038990Y033291D02*
X029864Y033291D01*
X029864Y033449D02*
X038990Y033449D01*
X038990Y033608D02*
X029864Y033608D01*
X029864Y033766D02*
X038990Y033766D01*
X038990Y033925D02*
X029864Y033925D01*
X029864Y034083D02*
X038990Y034083D01*
X038990Y034242D02*
X029864Y034242D01*
X029864Y032498D02*
X031025Y032498D01*
X030987Y032482D02*
X030912Y032439D01*
X030844Y032387D01*
X030784Y032326D01*
X030731Y032258D01*
X030688Y032184D01*
X030656Y032105D01*
X030633Y032022D01*
X030623Y031942D01*
X031229Y031942D01*
X031229Y032548D01*
X031149Y032537D01*
X031066Y032515D01*
X030987Y032482D01*
X030797Y032340D02*
X029864Y032340D01*
X029864Y032181D02*
X030687Y032181D01*
X030634Y032023D02*
X029864Y032023D01*
X029864Y031864D02*
X031229Y031864D01*
X031229Y031846D02*
X030623Y031846D01*
X030633Y031766D01*
X030656Y031683D01*
X030688Y031603D01*
X030731Y031529D01*
X030784Y031461D01*
X030844Y031400D01*
X030912Y031348D01*
X030987Y031305D01*
X031066Y031272D01*
X031149Y031250D01*
X031229Y031239D01*
X031229Y031846D01*
X031229Y031942D01*
X031325Y031942D01*
X031325Y032548D01*
X031405Y032537D01*
X031488Y032515D01*
X031567Y032482D01*
X031642Y032439D01*
X031710Y032387D01*
X031771Y032326D01*
X031823Y032258D01*
X031866Y032184D01*
X031899Y032105D01*
X031921Y032022D01*
X031932Y031942D01*
X031325Y031942D01*
X031325Y031846D01*
X031932Y031846D01*
X031921Y031766D01*
X031899Y031683D01*
X031866Y031603D01*
X031823Y031529D01*
X031771Y031461D01*
X031710Y031400D01*
X031642Y031348D01*
X031567Y031305D01*
X031488Y031272D01*
X031405Y031250D01*
X031325Y031239D01*
X031325Y031846D01*
X031229Y031846D01*
X031325Y031864D02*
X033198Y031864D01*
X033198Y031846D02*
X032591Y031846D01*
X032602Y031766D01*
X032624Y031683D01*
X032657Y031603D01*
X032700Y031529D01*
X032752Y031461D01*
X032813Y031400D01*
X032881Y031348D01*
X032955Y031305D01*
X033035Y031272D01*
X033118Y031250D01*
X033198Y031239D01*
X033198Y031846D01*
X033294Y031846D01*
X033294Y031942D01*
X033900Y031942D01*
X033889Y032022D01*
X033867Y032105D01*
X033834Y032184D01*
X033791Y032258D01*
X033739Y032326D01*
X033678Y032387D01*
X033610Y032439D01*
X033536Y032482D01*
X033457Y032515D01*
X033374Y032537D01*
X033294Y032548D01*
X033294Y031942D01*
X033198Y031942D01*
X033198Y032548D01*
X033118Y032537D01*
X033035Y032515D01*
X032955Y032482D01*
X032881Y032439D01*
X032813Y032387D01*
X032752Y032326D01*
X032700Y032258D01*
X032657Y032184D01*
X032624Y032105D01*
X032602Y032022D01*
X032591Y031942D01*
X033198Y031942D01*
X033198Y031846D01*
X033294Y031846D02*
X033294Y031239D01*
X033374Y031250D01*
X033457Y031272D01*
X033536Y031305D01*
X033610Y031348D01*
X033678Y031400D01*
X033739Y031461D01*
X033791Y031529D01*
X033834Y031603D01*
X033867Y031683D01*
X033889Y031766D01*
X033900Y031846D01*
X033294Y031846D01*
X033294Y031864D02*
X035166Y031864D01*
X035166Y031846D02*
X034560Y031846D01*
X034570Y031766D01*
X034593Y031683D01*
X034625Y031603D01*
X034668Y031529D01*
X034721Y031461D01*
X034781Y031400D01*
X034849Y031348D01*
X034924Y031305D01*
X035003Y031272D01*
X035086Y031250D01*
X035166Y031239D01*
X035166Y031846D01*
X035166Y031942D01*
X035166Y032548D01*
X035086Y032537D01*
X035003Y032515D01*
X034924Y032482D01*
X034849Y032439D01*
X034781Y032387D01*
X034721Y032326D01*
X034668Y032258D01*
X034625Y032184D01*
X034593Y032105D01*
X034570Y032022D01*
X034560Y031942D01*
X035166Y031942D01*
X035262Y031942D01*
X035262Y032548D01*
X035342Y032537D01*
X035425Y032515D01*
X035504Y032482D01*
X035579Y032439D01*
X035647Y032387D01*
X035708Y032326D01*
X035760Y032258D01*
X035803Y032184D01*
X035836Y032105D01*
X035858Y032022D01*
X035869Y031942D01*
X035262Y031942D01*
X035262Y031846D01*
X035869Y031846D01*
X035858Y031766D01*
X035836Y031683D01*
X035803Y031603D01*
X035760Y031529D01*
X035708Y031461D01*
X035647Y031400D01*
X035579Y031348D01*
X035504Y031305D01*
X035425Y031272D01*
X035342Y031250D01*
X035262Y031239D01*
X035262Y031846D01*
X035166Y031846D01*
X035262Y031864D02*
X037135Y031864D01*
X037135Y031846D02*
X036528Y031846D01*
X036528Y031395D01*
X036540Y031349D01*
X036564Y031308D01*
X036597Y031275D01*
X036638Y031251D01*
X036684Y031239D01*
X037135Y031239D01*
X037135Y031846D01*
X037135Y031706D02*
X037231Y031706D01*
X037231Y031547D02*
X037135Y031547D01*
X037135Y031389D02*
X037231Y031389D01*
X036529Y031389D02*
X035632Y031389D01*
X035771Y031547D02*
X036528Y031547D01*
X036528Y031706D02*
X035842Y031706D01*
X035858Y032023D02*
X036528Y032023D01*
X036528Y032181D02*
X035804Y032181D01*
X035694Y032340D02*
X036528Y032340D01*
X036583Y032498D02*
X035466Y032498D01*
X035262Y032498D02*
X035166Y032498D01*
X035166Y032340D02*
X035262Y032340D01*
X035262Y032181D02*
X035166Y032181D01*
X035166Y032023D02*
X035262Y032023D01*
X035262Y031706D02*
X035166Y031706D01*
X035166Y031547D02*
X035262Y031547D01*
X035262Y031389D02*
X035166Y031389D01*
X034796Y031389D02*
X033664Y031389D01*
X033802Y031547D02*
X034658Y031547D01*
X034586Y031706D02*
X033873Y031706D01*
X033889Y032023D02*
X034571Y032023D01*
X034624Y032181D02*
X033835Y032181D01*
X033726Y032340D02*
X034734Y032340D01*
X034962Y032498D02*
X033497Y032498D01*
X033294Y032498D02*
X033198Y032498D01*
X033198Y032340D02*
X033294Y032340D01*
X033294Y032181D02*
X033198Y032181D01*
X033198Y032023D02*
X033294Y032023D01*
X033294Y031706D02*
X033198Y031706D01*
X033198Y031547D02*
X033294Y031547D01*
X033294Y031389D02*
X033198Y031389D01*
X032828Y031389D02*
X031695Y031389D01*
X031834Y031547D02*
X032689Y031547D01*
X032618Y031706D02*
X031905Y031706D01*
X031921Y032023D02*
X032602Y032023D01*
X032656Y032181D02*
X031867Y032181D01*
X031757Y032340D02*
X032766Y032340D01*
X032994Y032498D02*
X031529Y032498D01*
X031325Y032498D02*
X031229Y032498D01*
X031229Y032340D02*
X031325Y032340D01*
X031325Y032181D02*
X031229Y032181D01*
X031229Y032023D02*
X031325Y032023D01*
X031325Y031706D02*
X031229Y031706D01*
X031229Y031547D02*
X031325Y031547D01*
X031325Y031389D02*
X031229Y031389D01*
X030859Y031389D02*
X029864Y031389D01*
X029864Y031547D02*
X030721Y031547D01*
X030649Y031706D02*
X029864Y031706D01*
X030156Y028377D02*
X030807Y028377D01*
X030711Y028219D02*
X030314Y028219D01*
X030473Y028060D02*
X030665Y028060D01*
X030660Y027902D02*
X030631Y027902D01*
X033595Y028536D02*
X034936Y028536D01*
X034959Y028549D02*
X034885Y028506D01*
X034817Y028454D01*
X034756Y028393D01*
X034704Y028325D01*
X034661Y028251D01*
X034628Y028172D01*
X034606Y028089D01*
X034595Y028009D01*
X035202Y028009D01*
X035202Y028615D01*
X035122Y028604D01*
X035039Y028582D01*
X034959Y028549D01*
X035202Y028536D02*
X035298Y028536D01*
X035298Y028615D02*
X035378Y028604D01*
X035461Y028582D01*
X035540Y028549D01*
X035614Y028506D01*
X035682Y028454D01*
X035743Y028393D01*
X035795Y028325D01*
X035838Y028251D01*
X035871Y028172D01*
X035893Y028089D01*
X035904Y028009D01*
X035298Y028009D01*
X035298Y027913D01*
X035904Y027913D01*
X035893Y027833D01*
X035871Y027750D01*
X035838Y027670D01*
X035795Y027596D01*
X035743Y027528D01*
X035682Y027467D01*
X035614Y027415D01*
X035540Y027372D01*
X035461Y027339D01*
X035378Y027317D01*
X035298Y027306D01*
X035298Y027913D01*
X035202Y027913D01*
X035202Y027306D01*
X035122Y027317D01*
X035039Y027339D01*
X034959Y027372D01*
X034885Y027415D01*
X034817Y027467D01*
X034756Y027528D01*
X034704Y027596D01*
X034661Y027670D01*
X034628Y027750D01*
X034606Y027833D01*
X034595Y027913D01*
X035202Y027913D01*
X035202Y028009D01*
X035298Y028009D01*
X035298Y028615D01*
X035298Y028377D02*
X035202Y028377D01*
X035202Y028219D02*
X035298Y028219D01*
X035298Y028060D02*
X035202Y028060D01*
X035202Y027902D02*
X035298Y027902D01*
X035298Y027743D02*
X035202Y027743D01*
X035202Y027585D02*
X035298Y027585D01*
X035298Y027426D02*
X035202Y027426D01*
X034870Y027426D02*
X033661Y027426D01*
X033818Y027585D02*
X034712Y027585D01*
X034631Y027743D02*
X033900Y027743D01*
X033934Y027902D02*
X034597Y027902D01*
X034602Y028060D02*
X033929Y028060D01*
X033883Y028219D02*
X034648Y028219D01*
X034744Y028377D02*
X033787Y028377D01*
X035563Y028536D02*
X036593Y028536D01*
X036563Y028377D02*
X035755Y028377D01*
X035852Y028219D02*
X036563Y028219D01*
X036563Y028060D02*
X035897Y028060D01*
X035903Y027902D02*
X036563Y027902D01*
X036563Y027743D02*
X035869Y027743D01*
X035787Y027585D02*
X036563Y027585D01*
X036573Y027426D02*
X035629Y027426D01*
X037170Y027426D02*
X037266Y027426D01*
X037266Y027585D02*
X037170Y027585D01*
X037170Y027743D02*
X037266Y027743D01*
X037266Y027902D02*
X037170Y027902D01*
X037170Y028060D02*
X037266Y028060D01*
X037266Y028219D02*
X037170Y028219D01*
X037170Y028377D02*
X037266Y028377D01*
X037266Y028536D02*
X037170Y028536D01*
X035553Y024256D02*
X033407Y024256D01*
X033407Y024098D02*
X035467Y024098D01*
X036000Y023781D02*
X036155Y023781D01*
X036155Y023622D02*
X036000Y023622D01*
X036000Y023464D02*
X036155Y023464D01*
X036155Y023305D02*
X036000Y023305D01*
X035865Y016965D02*
X033407Y016965D01*
X033407Y016807D02*
X035644Y016807D01*
X035537Y016648D02*
X033407Y016648D01*
X033407Y016490D02*
X035486Y016490D01*
X035504Y016173D02*
X033407Y016173D01*
X033407Y016331D02*
X036050Y016331D01*
X036050Y016173D02*
X036205Y016173D01*
X036205Y016014D02*
X036050Y016014D01*
X036050Y015856D02*
X036205Y015856D01*
X035723Y015856D02*
X033407Y015856D01*
X033407Y016014D02*
X035578Y016014D01*
X028857Y006821D02*
X028761Y006821D01*
X028761Y006663D02*
X028857Y006663D01*
X028857Y006504D02*
X028761Y006504D01*
X028761Y006346D02*
X028857Y006346D01*
X028857Y006029D02*
X028761Y006029D01*
X028761Y005870D02*
X028857Y005870D01*
X028857Y005712D02*
X028761Y005712D01*
X028761Y005553D02*
X028857Y005553D01*
D18*
X028840Y006150D02*
X028840Y002055D01*
X028761Y001976D01*
X034667Y001976D01*
X034746Y006150D02*
X028840Y006150D01*
X025919Y009772D02*
X023958Y009772D01*
X025919Y009831D02*
X025919Y009772D01*
X025919Y009831D02*
X031006Y014917D01*
X031006Y019811D01*
X031006Y024598D01*
X027691Y027913D01*
X025722Y027913D01*
X023754Y027913D01*
X021785Y027913D01*
X021754Y027913D01*
X021754Y025913D01*
X012380Y025913D01*
X012380Y020374D01*
X010730Y020402D02*
X010730Y018197D01*
X014033Y018209D02*
X014033Y015579D01*
X018506Y015579D01*
X017340Y016744D01*
X017340Y018209D01*
X015691Y018197D02*
X015691Y023157D01*
X021785Y027913D02*
X021813Y027941D01*
X021813Y031850D01*
X023781Y031850D01*
X025750Y031850D01*
X027718Y031850D01*
X031281Y031898D02*
X035218Y031898D01*
X031281Y027961D01*
X037265Y027961D01*
X037265Y025677D01*
X036163Y023945D01*
X036163Y006937D01*
X034746Y006150D01*
X027069Y013906D02*
X020179Y013906D01*
X018506Y015579D01*
X027069Y013906D02*
X028915Y015752D01*
X028915Y018209D01*
X028915Y020374D02*
X028943Y020402D01*
X030415Y020402D01*
X031006Y019811D01*
X035218Y031898D02*
X037187Y031898D01*
X010651Y006543D02*
X004746Y006543D01*
X003565Y006543D01*
X003407Y023315D01*
X004116Y027961D01*
X008053Y027961D01*
X008053Y031898D01*
X002147Y031898D01*
X002147Y027961D01*
X004746Y006543D02*
X004746Y002055D01*
X004746Y001976D01*
X004746Y002055D02*
X006793Y002055D01*
X006793Y002000D01*
X010698Y002000D01*
X024746Y001976D02*
X024746Y001504D01*
D19*
X000660Y000883D02*
X000660Y034339D01*
X010415Y034339D01*
X010415Y023079D01*
X009234Y023079D01*
X009234Y019485D01*
X009027Y019540D01*
X008724Y019540D01*
X008431Y019462D01*
X008169Y019310D01*
X007955Y019096D01*
X007803Y018834D01*
X007725Y018541D01*
X007725Y018238D01*
X007803Y017946D01*
X007955Y017683D01*
X008169Y017469D01*
X008431Y017318D01*
X008724Y017239D01*
X009027Y017239D01*
X009234Y017295D01*
X009234Y016780D01*
X014431Y016780D01*
X014431Y012291D01*
X012698Y012291D01*
X012698Y007882D01*
X023250Y007882D01*
X023171Y002685D01*
X026793Y002685D01*
X026793Y000883D01*
X000660Y000883D01*
X000660Y000960D02*
X001762Y000960D01*
X001859Y000928D02*
X001950Y000928D01*
X002278Y000928D01*
X002677Y001058D01*
X003016Y001304D01*
X003016Y001304D01*
X003016Y001304D01*
X003263Y001644D01*
X003392Y002042D01*
X003392Y002462D01*
X003263Y002860D01*
X003016Y003200D01*
X002677Y003446D01*
X002677Y003446D01*
X002278Y003576D01*
X001859Y003576D01*
X001460Y003446D01*
X001121Y003200D01*
X001121Y003200D01*
X001121Y003200D01*
X000874Y002860D01*
X000745Y002462D01*
X000745Y002042D01*
X000874Y001644D01*
X000874Y001644D01*
X001121Y001304D01*
X001460Y001058D01*
X001859Y000928D01*
X001460Y001058D02*
X001460Y001058D01*
X001157Y001278D02*
X000660Y001278D01*
X000660Y001597D02*
X000908Y001597D01*
X000786Y001915D02*
X000660Y001915D01*
X000660Y002234D02*
X000745Y002234D01*
X000774Y002552D02*
X000660Y002552D01*
X000660Y002871D02*
X000882Y002871D01*
X000874Y002860D02*
X000874Y002860D01*
X000660Y003189D02*
X001113Y003189D01*
X001460Y003446D02*
X001460Y003446D01*
X001650Y003508D02*
X000660Y003508D01*
X000660Y003826D02*
X017219Y003826D01*
X017346Y003860D02*
X017038Y003778D01*
X016763Y003619D01*
X016537Y003393D01*
X016378Y003117D01*
X016296Y002810D01*
X016296Y002491D01*
X016378Y002183D01*
X016537Y001907D01*
X016763Y001682D01*
X017038Y001523D01*
X017346Y001440D01*
X017665Y001440D01*
X017973Y001523D01*
X018248Y001682D01*
X018474Y001907D01*
X018633Y002183D01*
X018716Y002491D01*
X018716Y002810D01*
X018633Y003117D01*
X018474Y003393D01*
X018248Y003619D01*
X017973Y003778D01*
X017665Y003860D01*
X017346Y003860D01*
X017792Y003826D02*
X023188Y003826D01*
X023183Y003508D02*
X018359Y003508D01*
X018592Y003189D02*
X023179Y003189D01*
X023174Y002871D02*
X018699Y002871D01*
X018716Y002552D02*
X026793Y002552D01*
X026793Y002234D02*
X025123Y002234D01*
X025082Y002240D02*
X024706Y002240D01*
X024706Y001650D01*
X024706Y001650D01*
X025626Y001650D01*
X025626Y001604D01*
X025611Y001512D01*
X025582Y001424D01*
X025540Y001341D01*
X025486Y001266D01*
X025420Y001200D01*
X025345Y001146D01*
X025262Y001104D01*
X025174Y001075D01*
X025082Y001060D01*
X024706Y001060D01*
X024706Y001650D01*
X024706Y001650D01*
X025626Y001650D01*
X025626Y001697D01*
X025611Y001789D01*
X025582Y001877D01*
X025540Y001960D01*
X025486Y002035D01*
X025420Y002100D01*
X025345Y002155D01*
X025262Y002197D01*
X025174Y002226D01*
X025082Y002240D01*
X024706Y002240D02*
X024706Y001650D01*
X024706Y001060D01*
X024329Y001060D01*
X024237Y001075D01*
X024149Y001104D01*
X024066Y001146D01*
X023991Y001200D01*
X023925Y001266D01*
X023871Y001341D01*
X023829Y001424D01*
X023800Y001512D01*
X023786Y001604D01*
X023786Y001650D01*
X024705Y001650D01*
X024705Y001650D01*
X023786Y001650D01*
X023786Y001697D01*
X023800Y001789D01*
X023829Y001877D01*
X023871Y001960D01*
X023925Y002035D01*
X023991Y002100D01*
X024066Y002155D01*
X024149Y002197D01*
X024237Y002226D01*
X024329Y002240D01*
X024706Y002240D01*
X024706Y002234D02*
X024706Y002234D01*
X024706Y001915D02*
X024706Y001915D01*
X024706Y001650D02*
X024706Y001650D01*
X024706Y001597D02*
X024706Y001597D01*
X024706Y001278D02*
X024706Y001278D01*
X025494Y001278D02*
X026793Y001278D01*
X026793Y000960D02*
X002375Y000960D01*
X002677Y001058D02*
X002677Y001058D01*
X002980Y001278D02*
X004234Y001278D01*
X004242Y001275D02*
X004292Y001265D01*
X004793Y001265D01*
X005294Y001265D01*
X005344Y001275D01*
X005391Y001295D01*
X005434Y001323D01*
X005470Y001359D01*
X005498Y001402D01*
X005518Y001449D01*
X005528Y001499D01*
X005528Y002000D01*
X005528Y002501D01*
X005518Y002551D01*
X005498Y002598D01*
X005470Y002641D01*
X005434Y002677D01*
X005391Y002705D01*
X005344Y002725D01*
X005294Y002735D01*
X004793Y002735D01*
X004793Y002000D01*
X005528Y002000D01*
X004793Y002000D01*
X004793Y002000D01*
X004793Y001265D01*
X004793Y002000D01*
X004793Y002000D01*
X004793Y002000D01*
X004793Y002735D01*
X004292Y002735D01*
X004242Y002725D01*
X004195Y002705D01*
X004152Y002677D01*
X004116Y002641D01*
X004088Y002598D01*
X004068Y002551D01*
X004058Y002501D01*
X004058Y002000D01*
X004058Y001499D01*
X004068Y001449D01*
X004088Y001402D01*
X004116Y001359D01*
X004152Y001323D01*
X004195Y001295D01*
X004242Y001275D01*
X004058Y001597D02*
X003229Y001597D01*
X003263Y001644D02*
X003263Y001644D01*
X003351Y001915D02*
X004058Y001915D01*
X004058Y002000D02*
X004793Y002000D01*
X004793Y002000D01*
X004058Y002000D01*
X004058Y002234D02*
X003392Y002234D01*
X003363Y002552D02*
X004069Y002552D01*
X004793Y002552D02*
X004793Y002552D01*
X004793Y002234D02*
X004793Y002234D01*
X004793Y001915D02*
X004793Y001915D01*
X004793Y001597D02*
X004793Y001597D01*
X004793Y001278D02*
X004793Y001278D01*
X005352Y001278D02*
X006615Y001278D01*
X006618Y001278D02*
X006713Y001265D01*
X006761Y001265D01*
X006761Y002000D01*
X006026Y002000D01*
X006026Y001952D01*
X006039Y001856D01*
X006064Y001763D01*
X006101Y001674D01*
X006149Y001591D01*
X006208Y001514D01*
X006276Y001446D01*
X006352Y001388D01*
X006436Y001339D01*
X006525Y001303D01*
X006618Y001278D01*
X006761Y001278D02*
X006761Y001278D01*
X006761Y001265D02*
X006810Y001265D01*
X006905Y001278D01*
X006998Y001303D01*
X007087Y001339D01*
X007171Y001388D01*
X007247Y001446D01*
X007315Y001514D01*
X007374Y001591D01*
X007422Y001674D01*
X007459Y001763D01*
X007484Y001856D01*
X007496Y001952D01*
X007496Y002000D01*
X007496Y002048D01*
X007484Y002144D01*
X007459Y002237D01*
X007422Y002326D01*
X007374Y002409D01*
X007315Y002486D01*
X007247Y002554D01*
X007171Y002612D01*
X007087Y002661D01*
X006998Y002697D01*
X006905Y002722D01*
X006810Y002735D01*
X006761Y002735D01*
X006713Y002735D01*
X006618Y002722D01*
X006525Y002697D01*
X006436Y002661D01*
X006352Y002612D01*
X006276Y002554D01*
X006208Y002486D01*
X006149Y002409D01*
X006101Y002326D01*
X006064Y002237D01*
X006039Y002144D01*
X006026Y002048D01*
X006026Y002000D01*
X006761Y002000D01*
X006761Y002000D01*
X006761Y002000D01*
X006761Y002735D01*
X006761Y002000D01*
X006761Y002000D01*
X006761Y001265D01*
X006908Y001278D02*
X008583Y001278D01*
X008586Y001278D02*
X008682Y001265D01*
X008730Y001265D01*
X008778Y001265D01*
X008874Y001278D01*
X008967Y001303D01*
X009056Y001339D01*
X009139Y001388D01*
X009216Y001446D01*
X009284Y001514D01*
X009342Y001591D01*
X009391Y001674D01*
X009427Y001763D01*
X009452Y001856D01*
X009465Y001952D01*
X009465Y002000D01*
X009465Y002048D01*
X009452Y002144D01*
X009427Y002237D01*
X009391Y002326D01*
X009342Y002409D01*
X009284Y002486D01*
X009216Y002554D01*
X009139Y002612D01*
X009056Y002661D01*
X008967Y002697D01*
X008874Y002722D01*
X008778Y002735D01*
X008730Y002735D01*
X008730Y002000D01*
X009465Y002000D01*
X008730Y002000D01*
X008730Y002000D01*
X008730Y002000D01*
X008730Y001265D01*
X008730Y002000D01*
X008730Y002000D01*
X008730Y002735D01*
X008682Y002735D01*
X008586Y002722D01*
X008493Y002697D01*
X008404Y002661D01*
X008321Y002612D01*
X008244Y002554D01*
X008176Y002486D01*
X008117Y002409D01*
X008069Y002326D01*
X008032Y002237D01*
X008007Y002144D01*
X007995Y002048D01*
X007995Y002000D01*
X007995Y001952D01*
X008007Y001856D01*
X008032Y001763D01*
X008069Y001674D01*
X008117Y001591D01*
X008176Y001514D01*
X008244Y001446D01*
X008321Y001388D01*
X008404Y001339D01*
X008493Y001303D01*
X008586Y001278D01*
X008730Y001278D02*
X008730Y001278D01*
X008876Y001278D02*
X010552Y001278D01*
X010555Y001278D02*
X010650Y001265D01*
X010698Y001265D01*
X010698Y002000D01*
X009963Y002000D01*
X009963Y001952D01*
X009976Y001856D01*
X010001Y001763D01*
X010038Y001674D01*
X010086Y001591D01*
X010145Y001514D01*
X010213Y001446D01*
X010289Y001388D01*
X010373Y001339D01*
X010462Y001303D01*
X010555Y001278D01*
X010698Y001278D02*
X010698Y001278D01*
X010698Y001265D02*
X010747Y001265D01*
X010842Y001278D01*
X010935Y001303D01*
X011024Y001339D01*
X011108Y001388D01*
X011184Y001446D01*
X011252Y001514D01*
X011311Y001591D01*
X011359Y001674D01*
X011396Y001763D01*
X011421Y001856D01*
X011433Y001952D01*
X011433Y002000D01*
X011433Y002048D01*
X011421Y002144D01*
X011396Y002237D01*
X011359Y002326D01*
X011311Y002409D01*
X011252Y002486D01*
X011184Y002554D01*
X011108Y002612D01*
X011024Y002661D01*
X010935Y002697D01*
X010842Y002722D01*
X010747Y002735D01*
X010698Y002735D01*
X010650Y002735D01*
X010555Y002722D01*
X010462Y002697D01*
X010373Y002661D01*
X010289Y002612D01*
X010213Y002554D01*
X010145Y002486D01*
X010086Y002409D01*
X010038Y002326D01*
X010001Y002237D01*
X009976Y002144D01*
X009963Y002048D01*
X009963Y002000D01*
X010698Y002000D01*
X010698Y002000D01*
X010698Y002000D01*
X010698Y002735D01*
X010698Y002000D01*
X010698Y002000D01*
X010698Y001265D01*
X010845Y001278D02*
X023917Y001278D01*
X023787Y001597D02*
X018101Y001597D01*
X018478Y001915D02*
X023848Y001915D01*
X024288Y002234D02*
X018647Y002234D01*
X016910Y001597D02*
X011314Y001597D01*
X011429Y001915D02*
X016533Y001915D01*
X016364Y002234D02*
X011397Y002234D01*
X011433Y002000D02*
X010698Y002000D01*
X010698Y002000D01*
X011433Y002000D01*
X011186Y002552D02*
X016296Y002552D01*
X016312Y002871D02*
X003255Y002871D01*
X003024Y003189D02*
X016419Y003189D01*
X016652Y003508D02*
X002487Y003508D01*
X003016Y003200D02*
X003016Y003200D01*
X001121Y001304D02*
X001121Y001304D01*
X001121Y001304D01*
X000660Y004145D02*
X023193Y004145D01*
X023198Y004463D02*
X000660Y004463D01*
X000660Y004782D02*
X023203Y004782D01*
X023207Y005100D02*
X000660Y005100D01*
X000660Y005419D02*
X023212Y005419D01*
X023217Y005737D02*
X000660Y005737D01*
X000660Y006056D02*
X004030Y006056D01*
X004030Y006027D02*
X004040Y005977D01*
X004060Y005929D01*
X004088Y005887D01*
X004125Y005851D01*
X004167Y005822D01*
X004215Y005803D01*
X004265Y005793D01*
X004765Y005793D01*
X004765Y006528D01*
X004765Y007263D01*
X004265Y007263D01*
X004215Y007253D01*
X004167Y007233D01*
X004125Y007205D01*
X004088Y007168D01*
X004060Y007126D01*
X004040Y007078D01*
X004030Y007028D01*
X004030Y006528D01*
X004765Y006528D01*
X004765Y006528D01*
X004765Y006528D01*
X004765Y007263D01*
X005266Y007263D01*
X005316Y007253D01*
X005364Y007233D01*
X005406Y007205D01*
X005442Y007168D01*
X005471Y007126D01*
X005490Y007078D01*
X005500Y007028D01*
X005500Y006528D01*
X004765Y006528D01*
X004030Y006528D01*
X004030Y006027D01*
X004030Y006374D02*
X000660Y006374D01*
X000660Y006693D02*
X004030Y006693D01*
X004030Y007011D02*
X000660Y007011D01*
X000660Y007330D02*
X023241Y007330D01*
X023246Y007648D02*
X000660Y007648D01*
X000660Y007967D02*
X012698Y007967D01*
X012698Y008285D02*
X000660Y008285D01*
X000660Y008604D02*
X012698Y008604D01*
X012698Y008922D02*
X000660Y008922D01*
X000660Y009241D02*
X012698Y009241D01*
X012698Y009559D02*
X000660Y009559D01*
X000660Y009878D02*
X012698Y009878D01*
X012698Y010196D02*
X000660Y010196D01*
X000660Y010515D02*
X012698Y010515D01*
X012698Y010833D02*
X000660Y010833D01*
X000660Y011152D02*
X012698Y011152D01*
X012698Y011470D02*
X003964Y011470D01*
X003934Y011440D02*
X004002Y011508D01*
X004061Y011584D01*
X004109Y011667D01*
X004145Y011756D01*
X004170Y011849D01*
X004183Y011944D01*
X004183Y011992D01*
X003450Y011992D01*
X002718Y011992D01*
X002718Y011944D01*
X002730Y011849D01*
X002755Y011756D01*
X002792Y011667D01*
X002840Y011584D01*
X002899Y011508D01*
X002966Y011440D01*
X003043Y011382D01*
X003126Y011334D01*
X003214Y011297D01*
X003307Y011272D01*
X003402Y011260D01*
X003450Y011260D01*
X003450Y011992D01*
X003450Y011992D01*
X002718Y011992D01*
X002718Y012040D01*
X002730Y012135D01*
X002755Y012228D01*
X002792Y012317D01*
X002840Y012400D01*
X002899Y012476D01*
X002966Y012544D01*
X003043Y012602D01*
X003126Y012650D01*
X003214Y012687D01*
X003307Y012712D01*
X003402Y012725D01*
X003450Y012725D01*
X003450Y011992D01*
X003450Y011992D01*
X003450Y011992D01*
X003450Y011260D01*
X003498Y011260D01*
X003594Y011272D01*
X003686Y011297D01*
X003775Y011334D01*
X003858Y011382D01*
X003934Y011440D01*
X004154Y011789D02*
X012698Y011789D01*
X012698Y012107D02*
X004174Y012107D01*
X004170Y012135D02*
X004145Y012228D01*
X004109Y012317D01*
X004061Y012400D01*
X004002Y012476D01*
X003934Y012544D01*
X003858Y012602D01*
X003775Y012650D01*
X003686Y012687D01*
X003594Y012712D01*
X003498Y012725D01*
X003450Y012725D01*
X003450Y011992D01*
X003450Y011992D01*
X004183Y011992D01*
X004183Y012040D01*
X004170Y012135D01*
X004041Y012426D02*
X014431Y012426D01*
X014431Y012744D02*
X000660Y012744D01*
X000660Y012426D02*
X002860Y012426D01*
X002727Y012107D02*
X000660Y012107D01*
X000660Y011789D02*
X002747Y011789D01*
X002936Y011470D02*
X000660Y011470D01*
X000660Y013063D02*
X014431Y013063D01*
X014431Y013381D02*
X000660Y013381D01*
X000660Y013700D02*
X014431Y013700D01*
X014431Y014018D02*
X000660Y014018D01*
X000660Y014337D02*
X014431Y014337D01*
X014431Y014655D02*
X000660Y014655D01*
X000660Y014974D02*
X014431Y014974D01*
X014431Y015292D02*
X004028Y015292D01*
X004002Y015258D02*
X004061Y015334D01*
X004109Y015417D01*
X004145Y015506D01*
X004170Y015599D01*
X004183Y015694D01*
X004183Y015742D01*
X003450Y015742D01*
X002718Y015742D01*
X002718Y015694D01*
X002730Y015599D01*
X002755Y015506D01*
X002792Y015417D01*
X002840Y015334D01*
X002899Y015258D01*
X002966Y015190D01*
X003043Y015132D01*
X003126Y015084D01*
X003214Y015047D01*
X003307Y015022D01*
X003402Y015010D01*
X003450Y015010D01*
X003450Y015742D01*
X003450Y015742D01*
X002718Y015742D01*
X002718Y015790D01*
X002730Y015885D01*
X002755Y015978D01*
X002792Y016067D01*
X002840Y016150D01*
X002899Y016226D01*
X002966Y016294D01*
X003043Y016352D01*
X003126Y016400D01*
X003214Y016437D01*
X003307Y016462D01*
X003402Y016475D01*
X003450Y016475D01*
X003450Y015742D01*
X003450Y015742D01*
X003450Y015742D01*
X003450Y015010D01*
X003498Y015010D01*
X003594Y015022D01*
X003686Y015047D01*
X003775Y015084D01*
X003858Y015132D01*
X003934Y015190D01*
X004002Y015258D01*
X004172Y015611D02*
X014431Y015611D01*
X014431Y015929D02*
X004159Y015929D01*
X004170Y015885D02*
X004145Y015978D01*
X004109Y016067D01*
X004061Y016150D01*
X004002Y016226D01*
X003934Y016294D01*
X003858Y016352D01*
X003775Y016400D01*
X003686Y016437D01*
X003594Y016462D01*
X003498Y016475D01*
X003450Y016475D01*
X003450Y015742D01*
X003450Y015742D01*
X004183Y015742D01*
X004183Y015790D01*
X004170Y015885D01*
X003980Y016248D02*
X014431Y016248D01*
X014431Y016566D02*
X000660Y016566D01*
X000660Y016248D02*
X002920Y016248D01*
X002742Y015929D02*
X000660Y015929D01*
X000660Y015611D02*
X002729Y015611D01*
X002872Y015292D02*
X000660Y015292D01*
X000660Y016885D02*
X009234Y016885D01*
X009234Y017203D02*
X000660Y017203D01*
X000660Y017522D02*
X008116Y017522D01*
X007864Y017840D02*
X000660Y017840D01*
X000660Y018159D02*
X007746Y018159D01*
X007725Y018477D02*
X000660Y018477D01*
X000660Y018796D02*
X007793Y018796D01*
X007973Y019114D02*
X003828Y019114D01*
X003858Y019132D02*
X003934Y019190D01*
X004002Y019258D01*
X004061Y019334D01*
X004109Y019417D01*
X004145Y019506D01*
X004170Y019599D01*
X004183Y019694D01*
X004183Y019742D01*
X003450Y019742D01*
X002718Y019742D01*
X002718Y019694D01*
X002730Y019599D01*
X002755Y019506D01*
X002792Y019417D01*
X002840Y019334D01*
X002899Y019258D01*
X002966Y019190D01*
X003043Y019132D01*
X003126Y019084D01*
X003214Y019047D01*
X003307Y019022D01*
X003402Y019010D01*
X003450Y019010D01*
X003450Y019742D01*
X003450Y019742D01*
X002718Y019742D01*
X002718Y019790D01*
X002730Y019885D01*
X002755Y019978D01*
X002792Y020067D01*
X002840Y020150D01*
X002899Y020226D01*
X002966Y020294D01*
X003043Y020352D01*
X003126Y020400D01*
X003214Y020437D01*
X003307Y020462D01*
X003402Y020475D01*
X003450Y020475D01*
X003450Y019742D01*
X003450Y019742D01*
X003450Y019742D01*
X003450Y019010D01*
X003498Y019010D01*
X003594Y019022D01*
X003686Y019047D01*
X003775Y019084D01*
X003858Y019132D01*
X004115Y019433D02*
X008381Y019433D01*
X009234Y019751D02*
X004183Y019751D01*
X004183Y019742D02*
X004183Y019790D01*
X004170Y019885D01*
X004145Y019978D01*
X004109Y020067D01*
X004061Y020150D01*
X004002Y020226D01*
X003934Y020294D01*
X003858Y020352D01*
X003775Y020400D01*
X003686Y020437D01*
X003594Y020462D01*
X003498Y020475D01*
X003450Y020475D01*
X003450Y019742D01*
X003450Y019742D01*
X004183Y019742D01*
X004107Y020070D02*
X009234Y020070D01*
X009234Y020388D02*
X003796Y020388D01*
X003450Y020388D02*
X003450Y020388D01*
X003450Y020070D02*
X003450Y020070D01*
X003450Y019751D02*
X003450Y019751D01*
X003450Y019433D02*
X003450Y019433D01*
X003450Y019114D02*
X003450Y019114D01*
X003073Y019114D02*
X000660Y019114D01*
X000660Y019433D02*
X002786Y019433D01*
X002718Y019751D02*
X000660Y019751D01*
X000660Y020070D02*
X002794Y020070D01*
X003105Y020388D02*
X000660Y020388D01*
X000660Y020707D02*
X009234Y020707D01*
X009234Y021025D02*
X000660Y021025D01*
X000660Y021344D02*
X009234Y021344D01*
X009234Y021662D02*
X000660Y021662D01*
X000660Y021981D02*
X009234Y021981D01*
X009234Y022299D02*
X000660Y022299D01*
X000660Y022618D02*
X003017Y022618D01*
X002993Y022632D02*
X003076Y022584D01*
X003164Y022547D01*
X003257Y022522D01*
X003352Y022510D01*
X003400Y022510D01*
X003400Y023242D01*
X002668Y023242D01*
X002668Y023194D01*
X002680Y023099D01*
X002705Y023006D01*
X002742Y022917D01*
X002790Y022834D01*
X002849Y022758D01*
X002916Y022690D01*
X002993Y022632D01*
X002734Y022936D02*
X000660Y022936D01*
X000660Y023255D02*
X002668Y023255D01*
X002668Y023242D02*
X003400Y023242D01*
X003400Y023242D01*
X003400Y023242D01*
X003400Y023975D01*
X003352Y023975D01*
X003257Y023962D01*
X003164Y023937D01*
X003076Y023900D01*
X002993Y023852D01*
X002916Y023794D01*
X002849Y023726D01*
X002790Y023650D01*
X002742Y023567D01*
X002705Y023478D01*
X002680Y023385D01*
X002668Y023290D01*
X002668Y023242D01*
X002746Y023573D02*
X000660Y023573D01*
X000660Y023892D02*
X003061Y023892D01*
X003400Y023892D02*
X003400Y023892D01*
X003400Y023975D02*
X003400Y023242D01*
X003400Y023242D01*
X003400Y022510D01*
X003448Y022510D01*
X003544Y022522D01*
X003636Y022547D01*
X003725Y022584D01*
X003808Y022632D01*
X003884Y022690D01*
X003952Y022758D01*
X004011Y022834D01*
X004059Y022917D01*
X004095Y023006D01*
X004120Y023099D01*
X004133Y023194D01*
X004133Y023242D01*
X003400Y023242D01*
X003400Y023242D01*
X004133Y023242D01*
X004133Y023290D01*
X004120Y023385D01*
X004095Y023478D01*
X004059Y023567D01*
X004011Y023650D01*
X003952Y023726D01*
X003884Y023794D01*
X003808Y023852D01*
X003725Y023900D01*
X003636Y023937D01*
X003544Y023962D01*
X003448Y023975D01*
X003400Y023975D01*
X003740Y023892D02*
X010415Y023892D01*
X010415Y024210D02*
X000660Y024210D01*
X000660Y024529D02*
X010415Y024529D01*
X010415Y024847D02*
X000660Y024847D01*
X000660Y025166D02*
X010415Y025166D01*
X010415Y025484D02*
X000660Y025484D01*
X000660Y025803D02*
X010415Y025803D01*
X010415Y026121D02*
X000660Y026121D01*
X000660Y026440D02*
X010415Y026440D01*
X010415Y026758D02*
X000660Y026758D01*
X000660Y027077D02*
X010415Y027077D01*
X010415Y027395D02*
X008769Y027395D01*
X008774Y027406D02*
X008784Y027456D01*
X008784Y027957D01*
X008784Y028457D01*
X008774Y028508D01*
X008754Y028555D01*
X008726Y028597D01*
X008690Y028634D01*
X008647Y028662D01*
X008600Y028682D01*
X008549Y028692D01*
X008049Y028692D01*
X008049Y027957D01*
X008049Y027957D01*
X008784Y027957D01*
X008049Y027957D01*
X008049Y027957D01*
X008049Y028692D01*
X007548Y028692D01*
X007498Y028682D01*
X007451Y028662D01*
X007408Y028634D01*
X007372Y028597D01*
X007343Y028555D01*
X007324Y028508D01*
X007314Y028457D01*
X007314Y027957D01*
X008049Y027957D01*
X008049Y027957D01*
X008049Y027222D01*
X008549Y027222D01*
X008600Y027232D01*
X008647Y027251D01*
X008690Y027280D01*
X008726Y027316D01*
X008754Y027359D01*
X008774Y027406D01*
X008784Y027714D02*
X010415Y027714D01*
X010415Y028032D02*
X008784Y028032D01*
X008784Y028351D02*
X010415Y028351D01*
X010415Y028669D02*
X008629Y028669D01*
X008049Y028669D02*
X008049Y028669D01*
X008049Y028351D02*
X008049Y028351D01*
X008049Y028032D02*
X008049Y028032D01*
X008049Y027957D02*
X007314Y027957D01*
X007314Y027456D01*
X007324Y027406D01*
X007343Y027359D01*
X007372Y027316D01*
X007408Y027280D01*
X007451Y027251D01*
X007498Y027232D01*
X007548Y027222D01*
X008049Y027222D01*
X008049Y027957D01*
X008049Y027957D01*
X008049Y027714D02*
X008049Y027714D01*
X008049Y027395D02*
X008049Y027395D01*
X007328Y027395D02*
X006556Y027395D01*
X006566Y027403D02*
X006634Y027471D01*
X006693Y027547D01*
X006741Y027631D01*
X006778Y027720D01*
X006803Y027813D01*
X006815Y027909D01*
X006815Y027957D01*
X006815Y028005D01*
X006803Y028100D01*
X006778Y028193D01*
X006741Y028282D01*
X006693Y028366D01*
X006634Y028442D01*
X006566Y028510D01*
X006490Y028569D01*
X006406Y028617D01*
X006317Y028654D01*
X006224Y028679D01*
X006128Y028692D01*
X006080Y028692D01*
X006032Y028692D01*
X005937Y028679D01*
X005844Y028654D01*
X005755Y028617D01*
X005671Y028569D01*
X005595Y028510D01*
X005527Y028442D01*
X005468Y028366D01*
X005420Y028282D01*
X005383Y028193D01*
X005358Y028100D01*
X005345Y028005D01*
X005345Y027957D01*
X006080Y027957D01*
X006080Y028692D01*
X006080Y027957D01*
X006080Y027957D01*
X006080Y027957D01*
X005345Y027957D01*
X005345Y027909D01*
X005358Y027813D01*
X005383Y027720D01*
X005420Y027631D01*
X005468Y027547D01*
X005527Y027471D01*
X005595Y027403D01*
X005671Y027344D01*
X005755Y027296D01*
X005844Y027259D01*
X005937Y027234D01*
X006032Y027222D01*
X006080Y027222D01*
X006080Y027957D01*
X006080Y027957D01*
X006815Y027957D01*
X006080Y027957D01*
X006080Y027957D01*
X006080Y027222D01*
X006128Y027222D01*
X006224Y027234D01*
X006317Y027259D01*
X006406Y027296D01*
X006490Y027344D01*
X006566Y027403D01*
X006775Y027714D02*
X007314Y027714D01*
X007314Y028032D02*
X006812Y028032D01*
X006701Y028351D02*
X007314Y028351D01*
X007468Y028669D02*
X006260Y028669D01*
X006080Y028669D02*
X006080Y028669D01*
X005900Y028669D02*
X004292Y028669D01*
X004256Y028679D02*
X004160Y028692D01*
X004112Y028692D01*
X004112Y027957D01*
X004112Y027957D01*
X004847Y027957D01*
X004847Y028005D01*
X004834Y028100D01*
X004809Y028193D01*
X004772Y028282D01*
X004724Y028366D01*
X004666Y028442D01*
X004597Y028510D01*
X004521Y028569D01*
X004438Y028617D01*
X004349Y028654D01*
X004256Y028679D01*
X004112Y028669D02*
X004112Y028669D01*
X004112Y028692D02*
X004064Y028692D01*
X003968Y028679D01*
X003875Y028654D01*
X003786Y028617D01*
X003703Y028569D01*
X003626Y028510D01*
X003558Y028442D01*
X003499Y028366D01*
X003451Y028282D01*
X003414Y028193D01*
X003389Y028100D01*
X003377Y028005D01*
X003377Y027957D01*
X004112Y027957D01*
X004112Y027957D01*
X004112Y028692D01*
X003932Y028669D02*
X002323Y028669D01*
X002287Y028679D02*
X002191Y028692D01*
X002143Y028692D01*
X002095Y028692D01*
X002000Y028679D01*
X001907Y028654D01*
X001818Y028617D01*
X001734Y028569D01*
X001658Y028510D01*
X001590Y028442D01*
X001531Y028366D01*
X001483Y028282D01*
X001446Y028193D01*
X001421Y028100D01*
X001408Y028005D01*
X001408Y027957D01*
X002143Y027957D01*
X002143Y027957D01*
X002143Y028692D01*
X002143Y027957D01*
X002143Y027957D01*
X001408Y027957D01*
X001408Y027909D01*
X001421Y027813D01*
X001446Y027720D01*
X001483Y027631D01*
X001531Y027547D01*
X001590Y027471D01*
X001658Y027403D01*
X001734Y027344D01*
X001818Y027296D01*
X001907Y027259D01*
X002000Y027234D01*
X002095Y027222D01*
X002143Y027222D01*
X002143Y027957D01*
X002878Y027957D01*
X002878Y028005D01*
X002866Y028100D01*
X002841Y028193D01*
X002804Y028282D01*
X002756Y028366D01*
X002697Y028442D01*
X002629Y028510D01*
X002553Y028569D01*
X002469Y028617D01*
X002380Y028654D01*
X002287Y028679D01*
X002143Y028669D02*
X002143Y028669D01*
X001963Y028669D02*
X000660Y028669D01*
X000660Y028351D02*
X001522Y028351D01*
X001412Y028032D02*
X000660Y028032D01*
X000660Y027714D02*
X001448Y027714D01*
X001667Y027395D02*
X000660Y027395D01*
X002143Y027395D02*
X002143Y027395D01*
X002143Y027222D02*
X002191Y027222D01*
X002287Y027234D01*
X002380Y027259D01*
X002469Y027296D01*
X002553Y027344D01*
X002629Y027403D01*
X002697Y027471D01*
X002756Y027547D01*
X002804Y027631D01*
X002841Y027720D01*
X002866Y027813D01*
X002878Y027909D01*
X002878Y027957D01*
X002143Y027957D01*
X002143Y027957D01*
X002143Y027957D01*
X002143Y027222D01*
X002143Y027714D02*
X002143Y027714D01*
X002143Y028032D02*
X002143Y028032D01*
X002143Y028351D02*
X002143Y028351D01*
X002764Y028351D02*
X003491Y028351D01*
X003380Y028032D02*
X002875Y028032D01*
X002838Y027714D02*
X003417Y027714D01*
X003414Y027720D02*
X003451Y027631D01*
X003499Y027547D01*
X003558Y027471D01*
X003626Y027403D01*
X003703Y027344D01*
X003786Y027296D01*
X003875Y027259D01*
X003968Y027234D01*
X004064Y027222D01*
X004112Y027222D01*
X004160Y027222D01*
X004256Y027234D01*
X004349Y027259D01*
X004438Y027296D01*
X004521Y027344D01*
X004597Y027403D01*
X004666Y027471D01*
X004724Y027547D01*
X004772Y027631D01*
X004809Y027720D01*
X004834Y027813D01*
X004847Y027909D01*
X004847Y027957D01*
X004112Y027957D01*
X004112Y027957D01*
X004112Y027222D01*
X004112Y027957D01*
X004112Y027957D01*
X003377Y027957D01*
X003377Y027909D01*
X003389Y027813D01*
X003414Y027720D01*
X003636Y027395D02*
X002619Y027395D01*
X004112Y027395D02*
X004112Y027395D01*
X004112Y027714D02*
X004112Y027714D01*
X004112Y028032D02*
X004112Y028032D01*
X004112Y028351D02*
X004112Y028351D01*
X004733Y028351D02*
X005459Y028351D01*
X005349Y028032D02*
X004843Y028032D01*
X004807Y027714D02*
X005385Y027714D01*
X005604Y027395D02*
X004588Y027395D01*
X006080Y027395D02*
X006080Y027395D01*
X006080Y027714D02*
X006080Y027714D01*
X006080Y028032D02*
X006080Y028032D01*
X006080Y028351D02*
X006080Y028351D01*
X006065Y031115D02*
X006113Y031115D01*
X006208Y031128D01*
X006301Y031153D01*
X006390Y031190D01*
X006474Y031238D01*
X006550Y031297D01*
X006618Y031365D01*
X006677Y031441D01*
X006725Y031525D01*
X006762Y031614D01*
X006787Y031707D01*
X006800Y031802D01*
X006800Y031850D01*
X006065Y031850D01*
X006065Y031850D01*
X006065Y031115D01*
X006065Y031850D01*
X006065Y031850D01*
X006800Y031850D01*
X006800Y031899D01*
X006787Y031994D01*
X006762Y032087D01*
X006725Y032176D01*
X006677Y032260D01*
X006618Y032336D01*
X006550Y032404D01*
X006474Y032463D01*
X006390Y032511D01*
X006301Y032548D01*
X006208Y032573D01*
X006113Y032585D01*
X006065Y032585D01*
X006065Y031850D01*
X005330Y031850D01*
X005330Y031802D01*
X005342Y031707D01*
X005367Y031614D01*
X005404Y031525D01*
X005452Y031441D01*
X005511Y031365D01*
X005579Y031297D01*
X005655Y031238D01*
X005739Y031190D01*
X005828Y031153D01*
X005921Y031128D01*
X006016Y031115D01*
X006065Y031115D01*
X006065Y031217D02*
X006065Y031217D01*
X006065Y031536D02*
X006065Y031536D01*
X006065Y031850D02*
X006065Y031850D01*
X006065Y031850D01*
X005330Y031850D01*
X005330Y031899D01*
X005342Y031994D01*
X005367Y032087D01*
X005404Y032176D01*
X005452Y032260D01*
X005511Y032336D01*
X005579Y032404D01*
X005655Y032463D01*
X005739Y032511D01*
X005828Y032548D01*
X005921Y032573D01*
X006016Y032585D01*
X006065Y032585D01*
X006065Y031850D01*
X006065Y031854D02*
X006065Y031854D01*
X006065Y032173D02*
X006065Y032173D01*
X006065Y032491D02*
X006065Y032491D01*
X006424Y032491D02*
X007356Y032491D01*
X007328Y032449D01*
X007308Y032401D01*
X007298Y032351D01*
X007298Y031850D01*
X007298Y031350D01*
X007308Y031300D01*
X007328Y031252D01*
X007356Y031210D01*
X007392Y031173D01*
X007435Y031145D01*
X007482Y031125D01*
X007532Y031115D01*
X008033Y031115D01*
X008033Y031850D01*
X008033Y031850D01*
X008033Y031115D01*
X008534Y031115D01*
X008584Y031125D01*
X008631Y031145D01*
X008674Y031173D01*
X008710Y031210D01*
X008738Y031252D01*
X008758Y031300D01*
X008768Y031350D01*
X008768Y031850D01*
X008033Y031850D01*
X007298Y031850D01*
X008033Y031850D01*
X008033Y031850D01*
X008033Y031850D01*
X008768Y031850D01*
X008768Y032351D01*
X008758Y032401D01*
X008738Y032449D01*
X008710Y032491D01*
X008674Y032527D01*
X008631Y032556D01*
X008584Y032575D01*
X008534Y032585D01*
X008033Y032585D01*
X007532Y032585D01*
X007482Y032575D01*
X007435Y032556D01*
X007392Y032527D01*
X007356Y032491D01*
X007298Y032173D02*
X006727Y032173D01*
X006800Y031854D02*
X007298Y031854D01*
X007298Y031536D02*
X006730Y031536D01*
X006438Y031217D02*
X007351Y031217D01*
X008033Y031217D02*
X008033Y031217D01*
X008033Y031536D02*
X008033Y031536D01*
X008033Y031850D02*
X008033Y032585D01*
X008033Y031850D01*
X008033Y031850D01*
X008033Y031854D02*
X008033Y031854D01*
X008033Y032173D02*
X008033Y032173D01*
X008033Y032491D02*
X008033Y032491D01*
X008710Y032491D02*
X010415Y032491D01*
X010415Y032173D02*
X008768Y032173D01*
X008768Y031854D02*
X010415Y031854D01*
X010415Y031536D02*
X008768Y031536D01*
X008715Y031217D02*
X010415Y031217D01*
X010415Y030899D02*
X000660Y030899D01*
X000660Y031217D02*
X001754Y031217D01*
X001718Y031238D02*
X001802Y031190D01*
X001891Y031153D01*
X001984Y031128D01*
X002079Y031115D01*
X002128Y031115D01*
X002176Y031115D01*
X002271Y031128D01*
X002364Y031153D01*
X002453Y031190D01*
X002537Y031238D01*
X002613Y031297D01*
X002681Y031365D01*
X002740Y031441D01*
X002788Y031525D01*
X002825Y031614D01*
X002850Y031707D01*
X002863Y031802D01*
X002863Y031850D01*
X002128Y031850D01*
X002128Y031850D01*
X002128Y031115D01*
X002128Y031850D01*
X002128Y031850D01*
X002863Y031850D01*
X002863Y031899D01*
X002850Y031994D01*
X002825Y032087D01*
X002788Y032176D01*
X002740Y032260D01*
X002681Y032336D01*
X002613Y032404D01*
X002537Y032463D01*
X002453Y032511D01*
X002364Y032548D01*
X002271Y032573D01*
X002176Y032585D01*
X002128Y032585D01*
X002128Y031850D01*
X002128Y031850D01*
X001393Y031850D01*
X001393Y031802D01*
X001405Y031707D01*
X001430Y031614D01*
X001467Y031525D01*
X001515Y031441D01*
X001574Y031365D01*
X001642Y031297D01*
X001718Y031238D01*
X001462Y031536D02*
X000660Y031536D01*
X000660Y031854D02*
X001393Y031854D01*
X001393Y031850D02*
X002128Y031850D01*
X002128Y031850D01*
X002128Y032585D01*
X002079Y032585D01*
X001984Y032573D01*
X001891Y032548D01*
X001802Y032511D01*
X001718Y032463D01*
X001642Y032404D01*
X001574Y032336D01*
X001515Y032260D01*
X001467Y032176D01*
X001430Y032087D01*
X001405Y031994D01*
X001393Y031899D01*
X001393Y031850D01*
X001466Y032173D02*
X000660Y032173D01*
X000660Y032491D02*
X001768Y032491D01*
X002128Y032491D02*
X002128Y032491D01*
X002128Y032173D02*
X002128Y032173D01*
X002128Y031854D02*
X002128Y031854D01*
X002128Y031536D02*
X002128Y031536D01*
X002128Y031217D02*
X002128Y031217D01*
X002501Y031217D02*
X003723Y031217D01*
X003687Y031238D02*
X003770Y031190D01*
X003859Y031153D01*
X003952Y031128D01*
X004048Y031115D01*
X004096Y031115D01*
X004096Y031850D01*
X004096Y031850D01*
X004096Y031115D01*
X004144Y031115D01*
X004240Y031128D01*
X004333Y031153D01*
X004422Y031190D01*
X004505Y031238D01*
X004582Y031297D01*
X004650Y031365D01*
X004709Y031441D01*
X004757Y031525D01*
X004794Y031614D01*
X004818Y031707D01*
X004831Y031802D01*
X004831Y031850D01*
X004096Y031850D01*
X003361Y031850D01*
X003361Y031802D01*
X003374Y031707D01*
X003399Y031614D01*
X003435Y031525D01*
X003484Y031441D01*
X003542Y031365D01*
X003610Y031297D01*
X003687Y031238D01*
X003431Y031536D02*
X002793Y031536D01*
X002863Y031854D02*
X003361Y031854D01*
X003361Y031850D02*
X004096Y031850D01*
X004096Y031850D01*
X004096Y031850D01*
X004831Y031850D01*
X004831Y031899D01*
X004818Y031994D01*
X004794Y032087D01*
X004757Y032176D01*
X004709Y032260D01*
X004650Y032336D01*
X004582Y032404D01*
X004505Y032463D01*
X004422Y032511D01*
X004333Y032548D01*
X004240Y032573D01*
X004144Y032585D01*
X004096Y032585D01*
X004048Y032585D01*
X003952Y032573D01*
X003859Y032548D01*
X003770Y032511D01*
X003687Y032463D01*
X003610Y032404D01*
X003542Y032336D01*
X003484Y032260D01*
X003435Y032176D01*
X003399Y032087D01*
X003374Y031994D01*
X003361Y031899D01*
X003361Y031850D01*
X003434Y032173D02*
X002790Y032173D01*
X002487Y032491D02*
X003736Y032491D01*
X004096Y032491D02*
X004096Y032491D01*
X004096Y032585D02*
X004096Y031850D01*
X004096Y031850D01*
X004096Y032585D01*
X004456Y032491D02*
X005705Y032491D01*
X005403Y032173D02*
X004758Y032173D01*
X004831Y031854D02*
X005330Y031854D01*
X005399Y031536D02*
X004761Y031536D01*
X004470Y031217D02*
X005691Y031217D01*
X004096Y031217D02*
X004096Y031217D01*
X004096Y031536D02*
X004096Y031536D01*
X004096Y031854D02*
X004096Y031854D01*
X004096Y032173D02*
X004096Y032173D01*
X000660Y032810D02*
X010415Y032810D01*
X010415Y033128D02*
X000660Y033128D01*
X000660Y033447D02*
X010415Y033447D01*
X010415Y033765D02*
X000660Y033765D01*
X000660Y034084D02*
X010415Y034084D01*
X010415Y030580D02*
X000660Y030580D01*
X000660Y030262D02*
X010415Y030262D01*
X010415Y029943D02*
X000660Y029943D01*
X000660Y029625D02*
X010415Y029625D01*
X010415Y029306D02*
X000660Y029306D01*
X000660Y028988D02*
X010415Y028988D01*
X010415Y023573D02*
X004055Y023573D01*
X004133Y023255D02*
X010415Y023255D01*
X009234Y022936D02*
X004067Y022936D01*
X003784Y022618D02*
X009234Y022618D01*
X003400Y022618D02*
X003400Y022618D01*
X003400Y022936D02*
X003400Y022936D01*
X003400Y023255D02*
X003400Y023255D01*
X003400Y023573D02*
X003400Y023573D01*
X003450Y016248D02*
X003450Y016248D01*
X003450Y015929D02*
X003450Y015929D01*
X003450Y015611D02*
X003450Y015611D01*
X003450Y015292D02*
X003450Y015292D01*
X003450Y012426D02*
X003450Y012426D01*
X003450Y012107D02*
X003450Y012107D01*
X003450Y011789D02*
X003450Y011789D01*
X003450Y011470D02*
X003450Y011470D01*
X006408Y007188D02*
X006497Y007225D01*
X006590Y007250D01*
X006686Y007263D01*
X006734Y007263D01*
X006782Y007263D01*
X006878Y007250D01*
X006971Y007225D01*
X007060Y007188D01*
X007143Y007140D01*
X007220Y007081D01*
X007288Y007013D01*
X007346Y006937D01*
X007394Y006853D01*
X007431Y006764D01*
X007456Y006671D01*
X007469Y006576D01*
X007469Y006528D01*
X006734Y006528D01*
X006734Y006528D01*
X006734Y007263D01*
X006734Y006528D01*
X006734Y006528D01*
X006734Y006528D01*
X005999Y006528D01*
X005999Y006576D01*
X006011Y006671D01*
X006036Y006764D01*
X006073Y006853D01*
X006121Y006937D01*
X006180Y007013D01*
X006248Y007081D01*
X006325Y007140D01*
X006408Y007188D01*
X006179Y007011D02*
X005500Y007011D01*
X005500Y006693D02*
X006017Y006693D01*
X005999Y006528D02*
X005999Y006479D01*
X006011Y006384D01*
X006036Y006291D01*
X006073Y006202D01*
X006121Y006118D01*
X006180Y006042D01*
X006248Y005974D01*
X006325Y005915D01*
X006408Y005867D01*
X006497Y005830D01*
X006590Y005805D01*
X006686Y005793D01*
X006734Y005793D01*
X006782Y005793D01*
X006878Y005805D01*
X006971Y005830D01*
X007060Y005867D01*
X007143Y005915D01*
X007220Y005974D01*
X007288Y006042D01*
X007346Y006118D01*
X007394Y006202D01*
X007431Y006291D01*
X007456Y006384D01*
X007469Y006479D01*
X007469Y006528D01*
X006734Y006528D01*
X006734Y005793D01*
X006734Y006528D01*
X006734Y006528D01*
X005999Y006528D01*
X006014Y006374D02*
X005500Y006374D01*
X005500Y006528D02*
X005500Y006027D01*
X005490Y005977D01*
X005471Y005929D01*
X005442Y005887D01*
X005406Y005851D01*
X005364Y005822D01*
X005316Y005803D01*
X005266Y005793D01*
X004765Y005793D01*
X004765Y006528D01*
X004765Y006528D01*
X004765Y006528D01*
X005500Y006528D01*
X005500Y006056D02*
X006169Y006056D01*
X006734Y006056D02*
X006734Y006056D01*
X006734Y006374D02*
X006734Y006374D01*
X006734Y006693D02*
X006734Y006693D01*
X006734Y007011D02*
X006734Y007011D01*
X007289Y007011D02*
X008147Y007011D01*
X008149Y007013D02*
X008090Y006937D01*
X008042Y006853D01*
X008005Y006764D01*
X007980Y006671D01*
X007967Y006576D01*
X007967Y006528D01*
X008702Y006528D01*
X008702Y007263D01*
X008654Y007263D01*
X008559Y007250D01*
X008466Y007225D01*
X008377Y007188D01*
X008293Y007140D01*
X008217Y007081D01*
X008149Y007013D01*
X007986Y006693D02*
X007450Y006693D01*
X007454Y006374D02*
X007982Y006374D01*
X007980Y006384D02*
X008005Y006291D01*
X008042Y006202D01*
X008090Y006118D01*
X008149Y006042D01*
X008217Y005974D01*
X008293Y005915D01*
X008377Y005867D01*
X008466Y005830D01*
X008559Y005805D01*
X008654Y005793D01*
X008702Y005793D01*
X008702Y006528D01*
X008702Y006528D01*
X008702Y006528D01*
X008702Y007263D01*
X008751Y007263D01*
X008846Y007250D01*
X008939Y007225D01*
X009028Y007188D01*
X009112Y007140D01*
X009188Y007081D01*
X009256Y007013D01*
X009315Y006937D01*
X009363Y006853D01*
X009400Y006764D01*
X009425Y006671D01*
X009437Y006576D01*
X009437Y006528D01*
X008702Y006528D01*
X007967Y006528D01*
X007967Y006479D01*
X007980Y006384D01*
X008138Y006056D02*
X007298Y006056D01*
X008702Y006056D02*
X008702Y006056D01*
X008702Y005793D02*
X008751Y005793D01*
X008846Y005805D01*
X008939Y005830D01*
X009028Y005867D01*
X009112Y005915D01*
X009188Y005974D01*
X009256Y006042D01*
X009315Y006118D01*
X009363Y006202D01*
X009400Y006291D01*
X009425Y006384D01*
X009437Y006479D01*
X009437Y006528D01*
X008702Y006528D01*
X008702Y006528D01*
X008702Y006528D01*
X008702Y005793D01*
X008702Y006374D02*
X008702Y006374D01*
X008702Y006693D02*
X008702Y006693D01*
X008702Y007011D02*
X008702Y007011D01*
X009258Y007011D02*
X010116Y007011D01*
X010117Y007013D02*
X010058Y006937D01*
X010010Y006853D01*
X009973Y006764D01*
X009948Y006671D01*
X009936Y006576D01*
X009936Y006528D01*
X010671Y006528D01*
X010671Y006528D01*
X010671Y007263D01*
X010719Y007263D01*
X010815Y007250D01*
X010908Y007225D01*
X010997Y007188D01*
X011080Y007140D01*
X011157Y007081D01*
X011225Y007013D01*
X011283Y006937D01*
X011331Y006853D01*
X011368Y006764D01*
X011393Y006671D01*
X011406Y006576D01*
X011406Y006528D01*
X010671Y006528D01*
X010671Y007263D01*
X010623Y007263D01*
X010527Y007250D01*
X010434Y007225D01*
X010345Y007188D01*
X010262Y007140D01*
X010185Y007081D01*
X010117Y007013D01*
X009954Y006693D02*
X009419Y006693D01*
X009422Y006374D02*
X009951Y006374D01*
X009948Y006384D02*
X009973Y006291D01*
X010010Y006202D01*
X010058Y006118D01*
X010117Y006042D01*
X010185Y005974D01*
X010262Y005915D01*
X010345Y005867D01*
X010434Y005830D01*
X010527Y005805D01*
X010623Y005793D01*
X010671Y005793D01*
X010719Y005793D01*
X010815Y005805D01*
X010908Y005830D01*
X010997Y005867D01*
X011080Y005915D01*
X011157Y005974D01*
X011225Y006042D01*
X011283Y006118D01*
X011331Y006202D01*
X011368Y006291D01*
X011393Y006384D01*
X011406Y006479D01*
X011406Y006528D01*
X010671Y006528D01*
X010671Y006528D01*
X010671Y006528D01*
X010671Y005793D01*
X010671Y006528D01*
X010671Y006528D01*
X009936Y006528D01*
X009936Y006479D01*
X009948Y006384D01*
X010106Y006056D02*
X009267Y006056D01*
X010671Y006056D02*
X010671Y006056D01*
X010671Y006374D02*
X010671Y006374D01*
X010671Y006693D02*
X010671Y006693D01*
X010671Y007011D02*
X010671Y007011D01*
X011226Y007011D02*
X023236Y007011D01*
X023232Y006693D02*
X011388Y006693D01*
X011391Y006374D02*
X023227Y006374D01*
X023222Y006056D02*
X011235Y006056D01*
X010698Y002552D02*
X010698Y002552D01*
X010698Y002234D02*
X010698Y002234D01*
X010698Y001915D02*
X010698Y001915D01*
X010698Y001597D02*
X010698Y001597D01*
X010082Y001597D02*
X009346Y001597D01*
X009460Y001915D02*
X009968Y001915D01*
X010000Y002234D02*
X009428Y002234D01*
X009217Y002552D02*
X010211Y002552D01*
X008730Y002552D02*
X008730Y002552D01*
X008730Y002234D02*
X008730Y002234D01*
X008730Y002000D02*
X008730Y002000D01*
X007995Y002000D01*
X008730Y002000D01*
X008730Y001915D02*
X008730Y001915D01*
X008730Y001597D02*
X008730Y001597D01*
X008114Y001597D02*
X007377Y001597D01*
X007492Y001915D02*
X008000Y001915D01*
X008032Y002234D02*
X007460Y002234D01*
X007496Y002000D02*
X006761Y002000D01*
X006761Y002000D01*
X007496Y002000D01*
X007249Y002552D02*
X008243Y002552D01*
X006761Y002552D02*
X006761Y002552D01*
X006761Y002234D02*
X006761Y002234D01*
X006761Y001915D02*
X006761Y001915D01*
X006761Y001597D02*
X006761Y001597D01*
X006145Y001597D02*
X005528Y001597D01*
X005528Y001915D02*
X006031Y001915D01*
X006063Y002234D02*
X005528Y002234D01*
X005517Y002552D02*
X006274Y002552D01*
X004765Y006056D02*
X004765Y006056D01*
X004765Y006374D02*
X004765Y006374D01*
X004765Y006693D02*
X004765Y006693D01*
X004765Y007011D02*
X004765Y007011D01*
X025563Y001915D02*
X026793Y001915D01*
X026793Y001597D02*
X025624Y001597D01*
D20*
X026635Y008276D02*
X022305Y008276D01*
X022305Y012685D01*
X022383Y012606D01*
X027187Y012606D01*
X029943Y015362D01*
X029943Y017741D01*
X030126Y017557D01*
X030364Y017420D01*
X030628Y017349D01*
X030902Y017349D01*
X031167Y017420D01*
X031404Y017557D01*
X031598Y017751D01*
X031735Y017988D01*
X031806Y018253D01*
X031806Y018527D01*
X031735Y018791D01*
X031598Y019029D01*
X031404Y019222D01*
X031167Y019359D01*
X030902Y019430D01*
X030628Y019430D01*
X030364Y019359D01*
X030126Y019222D01*
X029943Y019038D01*
X029943Y019299D01*
X028131Y019299D01*
X028131Y025126D01*
X013092Y025126D01*
X013092Y020484D01*
X013088Y020515D01*
X013064Y020606D01*
X013027Y020694D01*
X012980Y020775D01*
X012923Y020850D01*
X012856Y020917D01*
X012781Y020975D01*
X012699Y021022D01*
X012612Y021058D01*
X012520Y021083D01*
X012430Y021095D01*
X012430Y020424D01*
X012330Y020424D01*
X012330Y021095D01*
X012239Y021083D01*
X012147Y021058D01*
X012060Y021022D01*
X011978Y020975D01*
X011903Y020917D01*
X011836Y020850D01*
X011779Y020775D01*
X011732Y020694D01*
X011695Y020606D01*
X011671Y020515D01*
X011659Y020424D01*
X012330Y020424D01*
X012330Y020324D01*
X012430Y020324D01*
X012430Y019654D01*
X012520Y019665D01*
X012612Y019690D01*
X012699Y019726D01*
X012781Y019773D01*
X012856Y019831D01*
X012923Y019898D01*
X012980Y019973D01*
X013027Y020055D01*
X013064Y020142D01*
X013088Y020233D01*
X013092Y020264D01*
X013092Y019299D01*
X011675Y019299D01*
X011675Y018644D01*
X011562Y018371D01*
X011562Y018046D01*
X011675Y017773D01*
X011675Y017331D01*
X009785Y017331D01*
X009785Y017884D01*
X009845Y017988D01*
X009916Y018253D01*
X009916Y018527D01*
X009845Y018791D01*
X009785Y018896D01*
X009785Y022606D01*
X010887Y022606D01*
X010887Y026858D01*
X020887Y026858D01*
X020887Y034417D01*
X029470Y034417D01*
X029470Y028354D01*
X032856Y024969D01*
X032856Y014496D01*
X026635Y008276D01*
X026661Y008301D02*
X022305Y008301D01*
X022305Y008400D02*
X026760Y008400D01*
X026858Y008498D02*
X022305Y008498D01*
X022305Y008597D02*
X026957Y008597D01*
X027055Y008695D02*
X022305Y008695D01*
X022305Y008794D02*
X027154Y008794D01*
X027252Y008892D02*
X022305Y008892D01*
X022305Y008991D02*
X027351Y008991D01*
X027449Y009089D02*
X022305Y009089D01*
X022305Y009188D02*
X027548Y009188D01*
X027646Y009286D02*
X025998Y009286D01*
X025969Y009286D02*
X025869Y009286D01*
X025869Y009282D02*
X025869Y009781D01*
X025370Y009781D01*
X025382Y009702D01*
X025409Y009620D01*
X025448Y009542D01*
X025499Y009472D01*
X025561Y009411D01*
X025631Y009360D01*
X025708Y009321D01*
X025790Y009294D01*
X025869Y009282D01*
X025840Y009286D02*
X024391Y009286D01*
X024408Y009291D02*
X024442Y009311D01*
X024470Y009339D01*
X024490Y009373D01*
X024500Y009411D01*
X024500Y009781D01*
X024000Y009781D01*
X024000Y009281D01*
X024370Y009281D01*
X024408Y009291D01*
X024493Y009385D02*
X025597Y009385D01*
X025491Y009483D02*
X024500Y009483D01*
X024500Y009582D02*
X025428Y009582D01*
X025389Y009680D02*
X024500Y009680D01*
X024500Y009779D02*
X025370Y009779D01*
X025370Y009881D02*
X025869Y009881D01*
X025869Y010380D01*
X025790Y010367D01*
X025708Y010340D01*
X025631Y010301D01*
X025561Y010250D01*
X025499Y010189D01*
X025448Y010119D01*
X025409Y010042D01*
X025382Y009960D01*
X025370Y009881D01*
X025388Y009976D02*
X024500Y009976D01*
X024500Y009881D02*
X024500Y010250D01*
X024490Y010289D01*
X024470Y010323D01*
X024442Y010351D01*
X024408Y010370D01*
X024370Y010381D01*
X024000Y010381D01*
X024000Y009881D01*
X023900Y009881D01*
X023900Y009781D01*
X023400Y009781D01*
X023400Y009411D01*
X023411Y009373D01*
X023430Y009339D01*
X023458Y009311D01*
X023492Y009291D01*
X023531Y009281D01*
X023900Y009281D01*
X023900Y009781D01*
X024000Y009781D01*
X024000Y009881D01*
X024500Y009881D01*
X024500Y010074D02*
X025426Y010074D01*
X025488Y010173D02*
X024500Y010173D01*
X024495Y010271D02*
X025590Y010271D01*
X025807Y010370D02*
X024409Y010370D01*
X024000Y010370D02*
X023900Y010370D01*
X023900Y010381D02*
X023531Y010381D01*
X023492Y010370D01*
X023491Y010370D02*
X022305Y010370D01*
X022305Y010468D02*
X028828Y010468D01*
X028730Y010370D02*
X026031Y010370D01*
X026048Y010367D02*
X025969Y010380D01*
X025969Y009881D01*
X025869Y009881D01*
X025869Y009781D01*
X025969Y009781D01*
X025969Y009881D01*
X026468Y009881D01*
X026455Y009960D01*
X026429Y010042D01*
X026389Y010119D01*
X026338Y010189D01*
X026277Y010250D01*
X026207Y010301D01*
X026130Y010340D01*
X026048Y010367D01*
X025969Y010370D02*
X025869Y010370D01*
X025869Y010271D02*
X025969Y010271D01*
X025969Y010173D02*
X025869Y010173D01*
X025869Y010074D02*
X025969Y010074D01*
X025969Y009976D02*
X025869Y009976D01*
X025869Y009877D02*
X024000Y009877D01*
X024000Y009779D02*
X023900Y009779D01*
X023900Y009877D02*
X022305Y009877D01*
X022305Y009779D02*
X023400Y009779D01*
X023400Y009680D02*
X022305Y009680D01*
X022305Y009582D02*
X023400Y009582D01*
X023400Y009483D02*
X022305Y009483D01*
X022305Y009385D02*
X023407Y009385D01*
X023510Y009286D02*
X022305Y009286D01*
X022305Y009976D02*
X023400Y009976D01*
X023400Y009881D02*
X023900Y009881D01*
X023900Y010381D01*
X023900Y010271D02*
X024000Y010271D01*
X024000Y010173D02*
X023900Y010173D01*
X023900Y010074D02*
X024000Y010074D01*
X024000Y009976D02*
X023900Y009976D01*
X023900Y009680D02*
X024000Y009680D01*
X024000Y009582D02*
X023900Y009582D01*
X023900Y009483D02*
X024000Y009483D01*
X024000Y009385D02*
X023900Y009385D01*
X023900Y009286D02*
X024000Y009286D01*
X023400Y009881D02*
X023400Y010250D01*
X023411Y010289D01*
X023430Y010323D01*
X023458Y010351D01*
X023492Y010370D01*
X023406Y010271D02*
X022305Y010271D01*
X022305Y010173D02*
X023400Y010173D01*
X023400Y010074D02*
X022305Y010074D01*
X022305Y010567D02*
X028927Y010567D01*
X029025Y010665D02*
X022305Y010665D01*
X022305Y010764D02*
X029124Y010764D01*
X029222Y010862D02*
X022305Y010862D01*
X022305Y010961D02*
X029321Y010961D01*
X029419Y011059D02*
X022305Y011059D01*
X022305Y011158D02*
X029518Y011158D01*
X029616Y011256D02*
X022305Y011256D01*
X022305Y011355D02*
X029715Y011355D01*
X029813Y011453D02*
X022305Y011453D01*
X022305Y011552D02*
X029912Y011552D01*
X030010Y011650D02*
X022305Y011650D01*
X022305Y011749D02*
X030109Y011749D01*
X030207Y011847D02*
X022305Y011847D01*
X022305Y011946D02*
X030306Y011946D01*
X030404Y012044D02*
X022305Y012044D01*
X022305Y012143D02*
X030503Y012143D01*
X030601Y012241D02*
X022305Y012241D01*
X022305Y012340D02*
X030700Y012340D01*
X030798Y012438D02*
X022305Y012438D01*
X022305Y012537D02*
X030897Y012537D01*
X030995Y012635D02*
X027216Y012635D01*
X027314Y012734D02*
X031094Y012734D01*
X031192Y012832D02*
X027413Y012832D01*
X027511Y012931D02*
X031291Y012931D01*
X031389Y013029D02*
X027610Y013029D01*
X027708Y013128D02*
X031488Y013128D01*
X031586Y013226D02*
X027807Y013226D01*
X027905Y013325D02*
X031685Y013325D01*
X031783Y013423D02*
X028004Y013423D01*
X028102Y013522D02*
X031882Y013522D01*
X031980Y013620D02*
X028201Y013620D01*
X028299Y013719D02*
X032079Y013719D01*
X032177Y013817D02*
X028398Y013817D01*
X028496Y013916D02*
X032276Y013916D01*
X032374Y014014D02*
X028595Y014014D01*
X028693Y014113D02*
X032473Y014113D01*
X032571Y014211D02*
X028792Y014211D01*
X028890Y014310D02*
X032670Y014310D01*
X032768Y014408D02*
X028989Y014408D01*
X029087Y014507D02*
X032856Y014507D01*
X032856Y014605D02*
X029186Y014605D01*
X029284Y014704D02*
X032856Y014704D01*
X032856Y014802D02*
X029383Y014802D01*
X029481Y014901D02*
X032856Y014901D01*
X032856Y014999D02*
X029580Y014999D01*
X029678Y015098D02*
X032856Y015098D01*
X032856Y015196D02*
X029777Y015196D01*
X029875Y015295D02*
X032856Y015295D01*
X032856Y015393D02*
X029943Y015393D01*
X029943Y015492D02*
X032856Y015492D01*
X032856Y015590D02*
X029943Y015590D01*
X029943Y015689D02*
X032856Y015689D01*
X032856Y015787D02*
X029943Y015787D01*
X029943Y015886D02*
X032856Y015886D01*
X032856Y015984D02*
X029943Y015984D01*
X029943Y016083D02*
X032856Y016083D01*
X032856Y016181D02*
X029943Y016181D01*
X029943Y016280D02*
X032856Y016280D01*
X032856Y016378D02*
X029943Y016378D01*
X029943Y016477D02*
X032856Y016477D01*
X032856Y016575D02*
X029943Y016575D01*
X029943Y016674D02*
X032856Y016674D01*
X032856Y016772D02*
X029943Y016772D01*
X029943Y016871D02*
X032856Y016871D01*
X032856Y016969D02*
X029943Y016969D01*
X029943Y017068D02*
X032856Y017068D01*
X032856Y017166D02*
X029943Y017166D01*
X029943Y017265D02*
X032856Y017265D01*
X032856Y017363D02*
X030955Y017363D01*
X031239Y017462D02*
X032856Y017462D01*
X032856Y017560D02*
X031408Y017560D01*
X031506Y017659D02*
X032856Y017659D01*
X032856Y017757D02*
X031602Y017757D01*
X031659Y017856D02*
X032856Y017856D01*
X032856Y017954D02*
X031716Y017954D01*
X031752Y018053D02*
X032856Y018053D01*
X032856Y018151D02*
X031779Y018151D01*
X031805Y018250D02*
X032856Y018250D01*
X032856Y018348D02*
X031806Y018348D01*
X031806Y018447D02*
X032856Y018447D01*
X032856Y018545D02*
X031801Y018545D01*
X031775Y018644D02*
X032856Y018644D01*
X032856Y018742D02*
X031748Y018742D01*
X031706Y018841D02*
X032856Y018841D01*
X032856Y018939D02*
X031650Y018939D01*
X031589Y019038D02*
X032856Y019038D01*
X032856Y019136D02*
X031490Y019136D01*
X031383Y019235D02*
X032856Y019235D01*
X032856Y019333D02*
X031212Y019333D01*
X030319Y019333D02*
X028131Y019333D01*
X028131Y019432D02*
X032856Y019432D01*
X032856Y019530D02*
X028131Y019530D01*
X028131Y019629D02*
X032856Y019629D01*
X032856Y019727D02*
X029237Y019727D01*
X029234Y019726D02*
X029316Y019773D01*
X029391Y019831D01*
X029458Y019898D01*
X029516Y019973D01*
X029563Y020055D01*
X029599Y020142D01*
X029623Y020233D01*
X029635Y020324D01*
X028965Y020324D01*
X028965Y020424D01*
X029635Y020424D01*
X029623Y020515D01*
X029599Y020606D01*
X029563Y020694D01*
X029516Y020775D01*
X029458Y020850D01*
X029391Y020917D01*
X029316Y020975D01*
X029234Y021022D01*
X029147Y021058D01*
X029056Y021083D01*
X028965Y021095D01*
X028965Y020424D01*
X028865Y020424D01*
X028865Y021095D01*
X028774Y021083D01*
X028683Y021058D01*
X028595Y021022D01*
X028514Y020975D01*
X028439Y020917D01*
X028372Y020850D01*
X028314Y020775D01*
X028267Y020694D01*
X028231Y020606D01*
X028206Y020515D01*
X028194Y020424D01*
X028865Y020424D01*
X028865Y020324D01*
X028965Y020324D01*
X028965Y019654D01*
X029056Y019665D01*
X029147Y019690D01*
X029234Y019726D01*
X029385Y019826D02*
X032856Y019826D01*
X032856Y019924D02*
X029479Y019924D01*
X029545Y020023D02*
X032856Y020023D01*
X032856Y020121D02*
X029591Y020121D01*
X029620Y020220D02*
X032856Y020220D01*
X032856Y020318D02*
X029635Y020318D01*
X029623Y020515D02*
X032856Y020515D01*
X032856Y020417D02*
X028965Y020417D01*
X028965Y020515D02*
X028865Y020515D01*
X028865Y020417D02*
X028131Y020417D01*
X028131Y020515D02*
X028207Y020515D01*
X028234Y020614D02*
X028131Y020614D01*
X028131Y020712D02*
X028278Y020712D01*
X028342Y020811D02*
X028131Y020811D01*
X028131Y020909D02*
X028431Y020909D01*
X028571Y021008D02*
X028131Y021008D01*
X028131Y021106D02*
X032856Y021106D01*
X032856Y021008D02*
X029259Y021008D01*
X029399Y020909D02*
X032856Y020909D01*
X032856Y020811D02*
X029488Y020811D01*
X029552Y020712D02*
X032856Y020712D01*
X032856Y020614D02*
X029596Y020614D01*
X028965Y020614D02*
X028865Y020614D01*
X028865Y020712D02*
X028965Y020712D01*
X028965Y020811D02*
X028865Y020811D01*
X028865Y020909D02*
X028965Y020909D01*
X028965Y021008D02*
X028865Y021008D01*
X028131Y021205D02*
X032856Y021205D01*
X032856Y021303D02*
X028131Y021303D01*
X028131Y021402D02*
X032856Y021402D01*
X032856Y021500D02*
X028131Y021500D01*
X028131Y021599D02*
X032856Y021599D01*
X032856Y021697D02*
X028131Y021697D01*
X028131Y021796D02*
X032856Y021796D01*
X032856Y021894D02*
X028131Y021894D01*
X028131Y021993D02*
X032856Y021993D01*
X032856Y022091D02*
X028131Y022091D01*
X028131Y022190D02*
X032856Y022190D01*
X032856Y022288D02*
X028131Y022288D01*
X028131Y022387D02*
X032856Y022387D01*
X032856Y022485D02*
X028131Y022485D01*
X028131Y022584D02*
X032856Y022584D01*
X032856Y022682D02*
X028131Y022682D01*
X028131Y022781D02*
X032856Y022781D01*
X032856Y022879D02*
X028131Y022879D01*
X028131Y022978D02*
X032856Y022978D01*
X032856Y023076D02*
X028131Y023076D01*
X028131Y023175D02*
X032856Y023175D01*
X032856Y023273D02*
X028131Y023273D01*
X028131Y023372D02*
X032856Y023372D01*
X032856Y023470D02*
X028131Y023470D01*
X028131Y023569D02*
X032856Y023569D01*
X032856Y023667D02*
X028131Y023667D01*
X028131Y023766D02*
X032856Y023766D01*
X032856Y023864D02*
X028131Y023864D01*
X028131Y023963D02*
X032856Y023963D01*
X032856Y024061D02*
X028131Y024061D01*
X028131Y024160D02*
X032856Y024160D01*
X032856Y024258D02*
X028131Y024258D01*
X028131Y024357D02*
X032856Y024357D01*
X032856Y024455D02*
X028131Y024455D01*
X028131Y024554D02*
X032856Y024554D01*
X032856Y024652D02*
X028131Y024652D01*
X028131Y024751D02*
X032856Y024751D01*
X032856Y024849D02*
X028131Y024849D01*
X028131Y024948D02*
X032856Y024948D01*
X032778Y025046D02*
X028131Y025046D01*
X028185Y027288D02*
X027741Y027288D01*
X027741Y027863D01*
X027741Y027963D01*
X028316Y027963D01*
X028316Y028408D01*
X028305Y028446D01*
X028286Y028480D01*
X028258Y028508D01*
X028223Y028528D01*
X028185Y028538D01*
X027741Y028538D01*
X027741Y027963D01*
X027641Y027963D01*
X027641Y027863D01*
X027741Y027863D01*
X028316Y027863D01*
X028316Y027419D01*
X028305Y027380D01*
X028286Y027346D01*
X028258Y027318D01*
X028223Y027299D01*
X028185Y027288D01*
X028246Y027312D02*
X030513Y027312D01*
X030611Y027213D02*
X020887Y027213D01*
X020887Y027115D02*
X030710Y027115D01*
X030808Y027016D02*
X020887Y027016D01*
X020887Y026918D02*
X030907Y026918D01*
X031005Y026819D02*
X010887Y026819D01*
X010887Y026721D02*
X031104Y026721D01*
X031202Y026622D02*
X010887Y026622D01*
X010887Y026524D02*
X031301Y026524D01*
X031399Y026425D02*
X010887Y026425D01*
X010887Y026327D02*
X031498Y026327D01*
X031596Y026228D02*
X010887Y026228D01*
X010887Y026130D02*
X031695Y026130D01*
X031793Y026031D02*
X010887Y026031D01*
X010887Y025933D02*
X031892Y025933D01*
X031990Y025834D02*
X010887Y025834D01*
X010887Y025736D02*
X032089Y025736D01*
X032187Y025637D02*
X010887Y025637D01*
X010887Y025539D02*
X032286Y025539D01*
X032384Y025440D02*
X010887Y025440D01*
X010887Y025342D02*
X032483Y025342D01*
X032581Y025243D02*
X010887Y025243D01*
X010887Y025145D02*
X032680Y025145D01*
X030414Y027410D02*
X028313Y027410D01*
X028316Y027509D02*
X030316Y027509D01*
X030217Y027607D02*
X028316Y027607D01*
X028316Y027706D02*
X030119Y027706D01*
X030020Y027804D02*
X028316Y027804D01*
X028316Y028001D02*
X029823Y028001D01*
X029922Y027903D02*
X027741Y027903D01*
X027741Y028001D02*
X027641Y028001D01*
X027641Y027963D02*
X027641Y028538D01*
X027196Y028538D01*
X027158Y028528D01*
X027123Y028508D01*
X027096Y028480D01*
X027076Y028446D01*
X027066Y028408D01*
X027066Y027963D01*
X027641Y027963D01*
X027641Y027903D02*
X025772Y027903D01*
X025772Y027863D02*
X025772Y027963D01*
X026347Y027963D01*
X026332Y028060D01*
X026301Y028153D01*
X026257Y028241D01*
X026199Y028321D01*
X026129Y028390D01*
X026050Y028448D01*
X025962Y028493D01*
X025868Y028523D01*
X025772Y028538D01*
X025772Y027963D01*
X025672Y027963D01*
X025672Y027863D01*
X025772Y027863D01*
X025772Y027289D01*
X025868Y027304D01*
X025962Y027334D01*
X026050Y027379D01*
X026129Y027437D01*
X026199Y027506D01*
X026257Y027586D01*
X026301Y027673D01*
X026332Y027767D01*
X026347Y027863D01*
X025772Y027863D01*
X025772Y027804D02*
X025672Y027804D01*
X025672Y027863D02*
X025672Y027289D01*
X025576Y027304D01*
X025482Y027334D01*
X025394Y027379D01*
X025315Y027437D01*
X025245Y027506D01*
X025187Y027586D01*
X025143Y027673D01*
X025112Y027767D01*
X025097Y027863D01*
X025672Y027863D01*
X025672Y027903D02*
X023804Y027903D01*
X023804Y027863D02*
X023804Y027963D01*
X024378Y027963D01*
X024363Y028060D01*
X024333Y028153D01*
X024288Y028241D01*
X024230Y028321D01*
X024161Y028390D01*
X024081Y028448D01*
X023993Y028493D01*
X023900Y028523D01*
X023804Y028538D01*
X023804Y027963D01*
X023704Y027963D01*
X023704Y027863D01*
X023804Y027863D01*
X024378Y027863D01*
X024363Y027767D01*
X024333Y027673D01*
X024288Y027586D01*
X024230Y027506D01*
X024161Y027437D01*
X024081Y027379D01*
X023993Y027334D01*
X023900Y027304D01*
X023804Y027289D01*
X023804Y027863D01*
X023804Y027804D02*
X023704Y027804D01*
X023704Y027863D02*
X023704Y027289D01*
X023607Y027304D01*
X023514Y027334D01*
X023426Y027379D01*
X023346Y027437D01*
X023277Y027506D01*
X023219Y027586D01*
X023174Y027673D01*
X023144Y027767D01*
X023129Y027863D01*
X023704Y027863D01*
X023704Y027903D02*
X021835Y027903D01*
X021835Y027863D02*
X021835Y027963D01*
X022410Y027963D01*
X022395Y028060D01*
X022364Y028153D01*
X022320Y028241D01*
X022262Y028321D01*
X022192Y028390D01*
X022113Y028448D01*
X022025Y028493D01*
X021931Y028523D01*
X021835Y028538D01*
X021835Y027963D01*
X021735Y027963D01*
X021735Y027863D01*
X021835Y027863D01*
X021835Y027289D01*
X021931Y027304D01*
X022025Y027334D01*
X022113Y027379D01*
X022192Y027437D01*
X022262Y027506D01*
X022320Y027586D01*
X022364Y027673D01*
X022395Y027767D01*
X022410Y027863D01*
X021835Y027863D01*
X021835Y027804D02*
X021735Y027804D01*
X021735Y027863D02*
X021735Y027289D01*
X021639Y027304D01*
X021545Y027334D01*
X021457Y027379D01*
X021378Y027437D01*
X021308Y027506D01*
X021250Y027586D01*
X021206Y027673D01*
X021175Y027767D01*
X021160Y027863D01*
X021735Y027863D01*
X021735Y027903D02*
X020887Y027903D01*
X020887Y028001D02*
X021166Y028001D01*
X021160Y027963D02*
X021175Y028060D01*
X021206Y028153D01*
X021250Y028241D01*
X021308Y028321D01*
X021378Y028390D01*
X021457Y028448D01*
X021545Y028493D01*
X021639Y028523D01*
X021735Y028538D01*
X021735Y027963D01*
X021160Y027963D01*
X021188Y028100D02*
X020887Y028100D01*
X020887Y028198D02*
X021229Y028198D01*
X021291Y028297D02*
X020887Y028297D01*
X020887Y028395D02*
X021385Y028395D01*
X021549Y028494D02*
X020887Y028494D01*
X020887Y028592D02*
X029470Y028592D01*
X029470Y028494D02*
X028272Y028494D01*
X028316Y028395D02*
X029470Y028395D01*
X029528Y028297D02*
X028316Y028297D01*
X028316Y028198D02*
X029626Y028198D01*
X029725Y028100D02*
X028316Y028100D01*
X027741Y028100D02*
X027641Y028100D01*
X027641Y028198D02*
X027741Y028198D01*
X027741Y028297D02*
X027641Y028297D01*
X027641Y028395D02*
X027741Y028395D01*
X027741Y028494D02*
X027641Y028494D01*
X027109Y028494D02*
X025958Y028494D01*
X025772Y028494D02*
X025672Y028494D01*
X025672Y028538D02*
X025576Y028523D01*
X025482Y028493D01*
X025394Y028448D01*
X025315Y028390D01*
X025245Y028321D01*
X025187Y028241D01*
X025143Y028153D01*
X025112Y028060D01*
X025097Y027963D01*
X025672Y027963D01*
X025672Y028538D01*
X025672Y028395D02*
X025772Y028395D01*
X025772Y028297D02*
X025672Y028297D01*
X025672Y028198D02*
X025772Y028198D01*
X025772Y028100D02*
X025672Y028100D01*
X025672Y028001D02*
X025772Y028001D01*
X025772Y027706D02*
X025672Y027706D01*
X025672Y027607D02*
X025772Y027607D01*
X025772Y027509D02*
X025672Y027509D01*
X025672Y027410D02*
X025772Y027410D01*
X025772Y027312D02*
X025672Y027312D01*
X025551Y027312D02*
X023925Y027312D01*
X023804Y027312D02*
X023704Y027312D01*
X023704Y027410D02*
X023804Y027410D01*
X023804Y027509D02*
X023704Y027509D01*
X023704Y027607D02*
X023804Y027607D01*
X023804Y027706D02*
X023704Y027706D01*
X023704Y027963D02*
X023129Y027963D01*
X023144Y028060D01*
X023174Y028153D01*
X023219Y028241D01*
X023277Y028321D01*
X023346Y028390D01*
X023426Y028448D01*
X023514Y028493D01*
X023607Y028523D01*
X023704Y028538D01*
X023704Y027963D01*
X023704Y028001D02*
X023804Y028001D01*
X023804Y028100D02*
X023704Y028100D01*
X023704Y028198D02*
X023804Y028198D01*
X023804Y028297D02*
X023704Y028297D01*
X023704Y028395D02*
X023804Y028395D01*
X023804Y028494D02*
X023704Y028494D01*
X023518Y028494D02*
X022021Y028494D01*
X021835Y028494D02*
X021735Y028494D01*
X021735Y028395D02*
X021835Y028395D01*
X021835Y028297D02*
X021735Y028297D01*
X021735Y028198D02*
X021835Y028198D01*
X021835Y028100D02*
X021735Y028100D01*
X021735Y028001D02*
X021835Y028001D01*
X021835Y027706D02*
X021735Y027706D01*
X021735Y027607D02*
X021835Y027607D01*
X021835Y027509D02*
X021735Y027509D01*
X021735Y027410D02*
X021835Y027410D01*
X021835Y027312D02*
X021735Y027312D01*
X021614Y027312D02*
X020887Y027312D01*
X020887Y027410D02*
X021414Y027410D01*
X021306Y027509D02*
X020887Y027509D01*
X020887Y027607D02*
X021239Y027607D01*
X021195Y027706D02*
X020887Y027706D01*
X020887Y027804D02*
X021170Y027804D01*
X021956Y027312D02*
X023582Y027312D01*
X023383Y027410D02*
X022156Y027410D01*
X022264Y027509D02*
X023275Y027509D01*
X023208Y027607D02*
X022331Y027607D01*
X022375Y027706D02*
X023164Y027706D01*
X023138Y027804D02*
X022401Y027804D01*
X022404Y028001D02*
X023135Y028001D01*
X023157Y028100D02*
X022382Y028100D01*
X022341Y028198D02*
X023197Y028198D01*
X023260Y028297D02*
X022279Y028297D01*
X022185Y028395D02*
X023354Y028395D01*
X023989Y028494D02*
X025486Y028494D01*
X025322Y028395D02*
X024153Y028395D01*
X024247Y028297D02*
X025228Y028297D01*
X025166Y028198D02*
X024310Y028198D01*
X024350Y028100D02*
X025125Y028100D01*
X025103Y028001D02*
X024372Y028001D01*
X024369Y027804D02*
X025107Y027804D01*
X025132Y027706D02*
X024343Y027706D01*
X024299Y027607D02*
X025176Y027607D01*
X025243Y027509D02*
X024232Y027509D01*
X024125Y027410D02*
X025351Y027410D01*
X025893Y027312D02*
X027135Y027312D01*
X027123Y027318D02*
X027158Y027299D01*
X027196Y027288D01*
X027641Y027288D01*
X027641Y027863D01*
X027066Y027863D01*
X027066Y027419D01*
X027076Y027380D01*
X027096Y027346D01*
X027123Y027318D01*
X027068Y027410D02*
X026093Y027410D01*
X026201Y027509D02*
X027066Y027509D01*
X027066Y027607D02*
X026268Y027607D01*
X026312Y027706D02*
X027066Y027706D01*
X027066Y027804D02*
X026338Y027804D01*
X026341Y028001D02*
X027066Y028001D01*
X027066Y028100D02*
X026319Y028100D01*
X026278Y028198D02*
X027066Y028198D01*
X027066Y028297D02*
X026216Y028297D01*
X026122Y028395D02*
X027066Y028395D01*
X027641Y027804D02*
X027741Y027804D01*
X027741Y027706D02*
X027641Y027706D01*
X027641Y027607D02*
X027741Y027607D01*
X027741Y027509D02*
X027641Y027509D01*
X027641Y027410D02*
X027741Y027410D01*
X027741Y027312D02*
X027641Y027312D01*
X029470Y028691D02*
X020887Y028691D01*
X020887Y028789D02*
X029470Y028789D01*
X029470Y028888D02*
X020887Y028888D01*
X020887Y028986D02*
X029470Y028986D01*
X029470Y029085D02*
X020887Y029085D01*
X020887Y029183D02*
X029470Y029183D01*
X029470Y029282D02*
X020887Y029282D01*
X020887Y029380D02*
X029470Y029380D01*
X029470Y029479D02*
X020887Y029479D01*
X020887Y029577D02*
X029470Y029577D01*
X029470Y029676D02*
X020887Y029676D01*
X020887Y029774D02*
X029470Y029774D01*
X029470Y029873D02*
X020887Y029873D01*
X020887Y029971D02*
X029470Y029971D01*
X029470Y030070D02*
X020887Y030070D01*
X020887Y030168D02*
X029470Y030168D01*
X029470Y030267D02*
X020887Y030267D01*
X020887Y030365D02*
X029470Y030365D01*
X029470Y030464D02*
X020887Y030464D01*
X020887Y030562D02*
X029470Y030562D01*
X029470Y030661D02*
X020887Y030661D01*
X020887Y030759D02*
X029470Y030759D01*
X029470Y030858D02*
X020887Y030858D01*
X020887Y030956D02*
X029470Y030956D01*
X029470Y031055D02*
X020887Y031055D01*
X020887Y031153D02*
X029470Y031153D01*
X029470Y031252D02*
X028279Y031252D01*
X028285Y031255D02*
X028313Y031283D01*
X028333Y031317D01*
X028343Y031356D01*
X028343Y031800D01*
X027768Y031800D01*
X027768Y031225D01*
X028213Y031225D01*
X028251Y031236D01*
X028285Y031255D01*
X028342Y031350D02*
X029470Y031350D01*
X029470Y031449D02*
X028343Y031449D01*
X028343Y031547D02*
X029470Y031547D01*
X029470Y031646D02*
X028343Y031646D01*
X028343Y031744D02*
X029470Y031744D01*
X029470Y031843D02*
X027768Y031843D01*
X027768Y031800D02*
X027768Y031900D01*
X028343Y031900D01*
X028343Y032345D01*
X028333Y032383D01*
X028313Y032417D01*
X028285Y032445D01*
X028251Y032465D01*
X028213Y032475D01*
X027768Y032475D01*
X027768Y031900D01*
X027668Y031900D01*
X027668Y031800D01*
X027768Y031800D01*
X027768Y031744D02*
X027668Y031744D01*
X027668Y031800D02*
X027668Y031225D01*
X027223Y031225D01*
X027185Y031236D01*
X027151Y031255D01*
X027123Y031283D01*
X027103Y031317D01*
X027093Y031356D01*
X027093Y031800D01*
X027668Y031800D01*
X027668Y031843D02*
X025800Y031843D01*
X025800Y031800D02*
X025800Y031900D01*
X026374Y031900D01*
X026359Y031997D01*
X026329Y032090D01*
X026284Y032178D01*
X026226Y032258D01*
X026157Y032327D01*
X026077Y032385D01*
X025990Y032430D01*
X025896Y032460D01*
X025800Y032475D01*
X025800Y031900D01*
X025700Y031900D01*
X025700Y031800D01*
X025800Y031800D01*
X026374Y031800D01*
X026359Y031704D01*
X026329Y031610D01*
X026284Y031523D01*
X026226Y031443D01*
X026157Y031374D01*
X026077Y031316D01*
X025990Y031271D01*
X025896Y031241D01*
X025800Y031226D01*
X025800Y031800D01*
X025800Y031744D02*
X025700Y031744D01*
X025700Y031800D02*
X025700Y031226D01*
X025603Y031241D01*
X025510Y031271D01*
X025422Y031316D01*
X025342Y031374D01*
X025273Y031443D01*
X025215Y031523D01*
X025170Y031610D01*
X025140Y031704D01*
X025125Y031800D01*
X025700Y031800D01*
X025700Y031843D02*
X023831Y031843D01*
X023831Y031800D02*
X023831Y031900D01*
X024406Y031900D01*
X024391Y031997D01*
X024360Y032090D01*
X024316Y032178D01*
X024258Y032258D01*
X024188Y032327D01*
X024109Y032385D01*
X024021Y032430D01*
X023927Y032460D01*
X023831Y032475D01*
X023831Y031900D01*
X023731Y031900D01*
X023731Y031800D01*
X023831Y031800D01*
X023831Y031226D01*
X023927Y031241D01*
X024021Y031271D01*
X024109Y031316D01*
X024188Y031374D01*
X024258Y031443D01*
X024316Y031523D01*
X024360Y031610D01*
X024391Y031704D01*
X024406Y031800D01*
X023831Y031800D01*
X023831Y031744D02*
X023731Y031744D01*
X023731Y031800D02*
X023731Y031226D01*
X023635Y031241D01*
X023541Y031271D01*
X023454Y031316D01*
X023374Y031374D01*
X023304Y031443D01*
X023247Y031523D01*
X023202Y031610D01*
X023171Y031704D01*
X023156Y031800D01*
X023731Y031800D01*
X023731Y031843D02*
X021863Y031843D01*
X021863Y031800D02*
X021863Y031900D01*
X022437Y031900D01*
X022422Y031997D01*
X022392Y032090D01*
X022347Y032178D01*
X022289Y032258D01*
X022220Y032327D01*
X022140Y032385D01*
X022053Y032430D01*
X021959Y032460D01*
X021863Y032475D01*
X021863Y031900D01*
X021763Y031900D01*
X021763Y031800D01*
X021863Y031800D01*
X022437Y031800D01*
X022422Y031704D01*
X022392Y031610D01*
X022347Y031523D01*
X022289Y031443D01*
X022220Y031374D01*
X022140Y031316D01*
X022053Y031271D01*
X021959Y031241D01*
X021863Y031226D01*
X021863Y031800D01*
X021863Y031744D02*
X021763Y031744D01*
X021763Y031800D02*
X021763Y031226D01*
X021666Y031241D01*
X021573Y031271D01*
X021485Y031316D01*
X021405Y031374D01*
X021336Y031443D01*
X021278Y031523D01*
X021233Y031610D01*
X021203Y031704D01*
X021188Y031800D01*
X021763Y031800D01*
X021763Y031843D02*
X020887Y031843D01*
X020887Y031941D02*
X021194Y031941D01*
X021188Y031900D02*
X021763Y031900D01*
X021763Y032475D01*
X021666Y032460D01*
X021573Y032430D01*
X021485Y032385D01*
X021405Y032327D01*
X021336Y032258D01*
X021278Y032178D01*
X021233Y032090D01*
X021203Y031997D01*
X021188Y031900D01*
X021217Y032040D02*
X020887Y032040D01*
X020887Y032138D02*
X021258Y032138D01*
X021321Y032237D02*
X020887Y032237D01*
X020887Y032335D02*
X021417Y032335D01*
X021586Y032434D02*
X020887Y032434D01*
X020887Y032532D02*
X029470Y032532D01*
X029470Y032434D02*
X028297Y032434D01*
X028343Y032335D02*
X029470Y032335D01*
X029470Y032237D02*
X028343Y032237D01*
X028343Y032138D02*
X029470Y032138D01*
X029470Y032040D02*
X028343Y032040D01*
X028343Y031941D02*
X029470Y031941D01*
X029470Y032631D02*
X020887Y032631D01*
X020887Y032729D02*
X029470Y032729D01*
X029470Y032828D02*
X020887Y032828D01*
X020887Y032926D02*
X029470Y032926D01*
X029470Y033025D02*
X020887Y033025D01*
X020887Y033123D02*
X029470Y033123D01*
X029470Y033222D02*
X020887Y033222D01*
X020887Y033320D02*
X029470Y033320D01*
X029470Y033419D02*
X020887Y033419D01*
X020887Y033517D02*
X029470Y033517D01*
X029470Y033616D02*
X020887Y033616D01*
X020887Y033714D02*
X029470Y033714D01*
X029470Y033813D02*
X020887Y033813D01*
X020887Y033911D02*
X029470Y033911D01*
X029470Y034010D02*
X020887Y034010D01*
X020887Y034108D02*
X029470Y034108D01*
X029470Y034207D02*
X020887Y034207D01*
X020887Y034305D02*
X029470Y034305D01*
X029470Y034404D02*
X020887Y034404D01*
X021763Y032434D02*
X021863Y032434D01*
X021863Y032335D02*
X021763Y032335D01*
X021763Y032237D02*
X021863Y032237D01*
X021863Y032138D02*
X021763Y032138D01*
X021763Y032040D02*
X021863Y032040D01*
X021863Y031941D02*
X021763Y031941D01*
X021763Y031646D02*
X021863Y031646D01*
X021863Y031547D02*
X021763Y031547D01*
X021763Y031449D02*
X021863Y031449D01*
X021863Y031350D02*
X021763Y031350D01*
X021763Y031252D02*
X021863Y031252D01*
X021993Y031252D02*
X023600Y031252D01*
X023731Y031252D02*
X023831Y031252D01*
X023831Y031350D02*
X023731Y031350D01*
X023731Y031449D02*
X023831Y031449D01*
X023831Y031547D02*
X023731Y031547D01*
X023731Y031646D02*
X023831Y031646D01*
X023731Y031900D02*
X023156Y031900D01*
X023171Y031997D01*
X023202Y032090D01*
X023247Y032178D01*
X023304Y032258D01*
X023374Y032327D01*
X023454Y032385D01*
X023541Y032430D01*
X023635Y032460D01*
X023731Y032475D01*
X023731Y031900D01*
X023731Y031941D02*
X023831Y031941D01*
X023831Y032040D02*
X023731Y032040D01*
X023731Y032138D02*
X023831Y032138D01*
X023831Y032237D02*
X023731Y032237D01*
X023731Y032335D02*
X023831Y032335D01*
X023831Y032434D02*
X023731Y032434D01*
X023554Y032434D02*
X022039Y032434D01*
X022208Y032335D02*
X023385Y032335D01*
X023289Y032237D02*
X022304Y032237D01*
X022367Y032138D02*
X023226Y032138D01*
X023186Y032040D02*
X022408Y032040D01*
X022431Y031941D02*
X023163Y031941D01*
X023165Y031744D02*
X022429Y031744D01*
X022403Y031646D02*
X023190Y031646D01*
X023234Y031547D02*
X022360Y031547D01*
X022293Y031449D02*
X023300Y031449D01*
X023406Y031350D02*
X022188Y031350D01*
X021632Y031252D02*
X020887Y031252D01*
X020887Y031350D02*
X021437Y031350D01*
X021332Y031449D02*
X020887Y031449D01*
X020887Y031547D02*
X021266Y031547D01*
X021222Y031646D02*
X020887Y031646D01*
X020887Y031744D02*
X021197Y031744D01*
X023962Y031252D02*
X025569Y031252D01*
X025700Y031252D02*
X025800Y031252D01*
X025800Y031350D02*
X025700Y031350D01*
X025700Y031449D02*
X025800Y031449D01*
X025800Y031547D02*
X025700Y031547D01*
X025700Y031646D02*
X025800Y031646D01*
X025700Y031900D02*
X025125Y031900D01*
X025140Y031997D01*
X025170Y032090D01*
X025215Y032178D01*
X025273Y032258D01*
X025342Y032327D01*
X025422Y032385D01*
X025510Y032430D01*
X025603Y032460D01*
X025700Y032475D01*
X025700Y031900D01*
X025700Y031941D02*
X025800Y031941D01*
X025800Y032040D02*
X025700Y032040D01*
X025700Y032138D02*
X025800Y032138D01*
X025800Y032237D02*
X025700Y032237D01*
X025700Y032335D02*
X025800Y032335D01*
X025800Y032434D02*
X025700Y032434D01*
X025523Y032434D02*
X024008Y032434D01*
X024177Y032335D02*
X025354Y032335D01*
X025258Y032237D02*
X024273Y032237D01*
X024336Y032138D02*
X025195Y032138D01*
X025154Y032040D02*
X024377Y032040D01*
X024399Y031941D02*
X025131Y031941D01*
X025134Y031744D02*
X024397Y031744D01*
X024372Y031646D02*
X025159Y031646D01*
X025203Y031547D02*
X024328Y031547D01*
X024262Y031449D02*
X025269Y031449D01*
X025374Y031350D02*
X024156Y031350D01*
X025930Y031252D02*
X027157Y031252D01*
X027095Y031350D02*
X026125Y031350D01*
X026230Y031449D02*
X027093Y031449D01*
X027093Y031547D02*
X026297Y031547D01*
X026340Y031646D02*
X027093Y031646D01*
X027093Y031744D02*
X026366Y031744D01*
X026368Y031941D02*
X027093Y031941D01*
X027093Y031900D02*
X027668Y031900D01*
X027668Y032475D01*
X027223Y032475D01*
X027185Y032465D01*
X027151Y032445D01*
X027123Y032417D01*
X027103Y032383D01*
X027093Y032345D01*
X027093Y031900D01*
X027093Y032040D02*
X026345Y032040D01*
X026304Y032138D02*
X027093Y032138D01*
X027093Y032237D02*
X026241Y032237D01*
X026145Y032335D02*
X027093Y032335D01*
X027140Y032434D02*
X025976Y032434D01*
X027668Y032434D02*
X027768Y032434D01*
X027768Y032335D02*
X027668Y032335D01*
X027668Y032237D02*
X027768Y032237D01*
X027768Y032138D02*
X027668Y032138D01*
X027668Y032040D02*
X027768Y032040D01*
X027768Y031941D02*
X027668Y031941D01*
X027668Y031646D02*
X027768Y031646D01*
X027768Y031547D02*
X027668Y031547D01*
X027668Y031449D02*
X027768Y031449D01*
X027768Y031350D02*
X027668Y031350D01*
X027668Y031252D02*
X027768Y031252D01*
X028194Y020324D02*
X028206Y020233D01*
X028231Y020142D01*
X028267Y020055D01*
X028314Y019973D01*
X028372Y019898D01*
X028439Y019831D01*
X028514Y019773D01*
X028595Y019726D01*
X028683Y019690D01*
X028774Y019665D01*
X028865Y019654D01*
X028865Y020324D01*
X028194Y020324D01*
X028195Y020318D02*
X028131Y020318D01*
X028131Y020220D02*
X028210Y020220D01*
X028239Y020121D02*
X028131Y020121D01*
X028131Y020023D02*
X028285Y020023D01*
X028351Y019924D02*
X028131Y019924D01*
X028131Y019826D02*
X028445Y019826D01*
X028593Y019727D02*
X028131Y019727D01*
X028865Y019727D02*
X028965Y019727D01*
X028965Y019826D02*
X028865Y019826D01*
X028865Y019924D02*
X028965Y019924D01*
X028965Y020023D02*
X028865Y020023D01*
X028865Y020121D02*
X028965Y020121D01*
X028965Y020220D02*
X028865Y020220D01*
X028865Y020318D02*
X028965Y020318D01*
X029943Y019235D02*
X030148Y019235D01*
X030040Y019136D02*
X029943Y019136D01*
X029943Y017659D02*
X030025Y017659D01*
X029943Y017560D02*
X030123Y017560D01*
X030291Y017462D02*
X029943Y017462D01*
X029943Y017363D02*
X030575Y017363D01*
X028631Y010271D02*
X026248Y010271D01*
X026350Y010173D02*
X028533Y010173D01*
X028434Y010074D02*
X026412Y010074D01*
X026450Y009976D02*
X028336Y009976D01*
X028237Y009877D02*
X025969Y009877D01*
X025969Y009781D02*
X026468Y009781D01*
X026455Y009702D01*
X026429Y009620D01*
X026389Y009542D01*
X026338Y009472D01*
X026277Y009411D01*
X026207Y009360D01*
X026130Y009321D01*
X026048Y009294D01*
X025969Y009282D01*
X025969Y009781D01*
X025969Y009779D02*
X025869Y009779D01*
X025869Y009680D02*
X025969Y009680D01*
X025969Y009582D02*
X025869Y009582D01*
X025869Y009483D02*
X025969Y009483D01*
X025969Y009385D02*
X025869Y009385D01*
X026241Y009385D02*
X027745Y009385D01*
X027843Y009483D02*
X026346Y009483D01*
X026409Y009582D02*
X027942Y009582D01*
X028040Y009680D02*
X026448Y009680D01*
X026468Y009779D02*
X028139Y009779D01*
X022354Y012635D02*
X022305Y012635D01*
X013092Y019333D02*
X009785Y019333D01*
X009785Y019235D02*
X011675Y019235D01*
X011675Y019136D02*
X009785Y019136D01*
X009785Y019038D02*
X011675Y019038D01*
X011675Y018939D02*
X009785Y018939D01*
X009817Y018841D02*
X010379Y018841D01*
X010406Y018857D02*
X010325Y018809D01*
X010250Y018752D01*
X010183Y018685D01*
X010125Y018610D01*
X010078Y018528D01*
X010042Y018441D01*
X010017Y018350D01*
X010005Y018259D01*
X010676Y018259D01*
X010676Y018929D01*
X010585Y018917D01*
X010494Y018893D01*
X010406Y018857D01*
X010240Y018742D02*
X009858Y018742D01*
X009885Y018644D02*
X010151Y018644D01*
X010088Y018545D02*
X009911Y018545D01*
X009916Y018447D02*
X010044Y018447D01*
X010017Y018348D02*
X009916Y018348D01*
X009915Y018250D02*
X010676Y018250D01*
X010676Y018259D02*
X010676Y018159D01*
X010005Y018159D01*
X010017Y018068D01*
X010042Y017976D01*
X010078Y017889D01*
X010125Y017807D01*
X010183Y017732D01*
X010250Y017666D01*
X010325Y017608D01*
X010406Y017561D01*
X010494Y017525D01*
X010585Y017500D01*
X010676Y017488D01*
X010676Y018159D01*
X010776Y018159D01*
X010776Y018259D01*
X010676Y018259D01*
X010676Y018348D02*
X010776Y018348D01*
X010776Y018259D02*
X010776Y018929D01*
X010867Y018917D01*
X010958Y018893D01*
X011045Y018857D01*
X011127Y018809D01*
X011202Y018752D01*
X011269Y018685D01*
X011327Y018610D01*
X011374Y018528D01*
X011410Y018441D01*
X011435Y018350D01*
X011446Y018259D01*
X010776Y018259D01*
X010776Y018250D02*
X011562Y018250D01*
X011562Y018348D02*
X011435Y018348D01*
X011408Y018447D02*
X011593Y018447D01*
X011634Y018545D02*
X011364Y018545D01*
X011301Y018644D02*
X011675Y018644D01*
X011675Y018742D02*
X011212Y018742D01*
X011073Y018841D02*
X011675Y018841D01*
X011562Y018151D02*
X011446Y018151D01*
X011446Y018159D02*
X010776Y018159D01*
X010776Y017488D01*
X010867Y017500D01*
X010958Y017525D01*
X011045Y017561D01*
X011127Y017608D01*
X011202Y017666D01*
X011269Y017732D01*
X011327Y017807D01*
X011374Y017889D01*
X011410Y017976D01*
X011435Y018068D01*
X011446Y018159D01*
X011431Y018053D02*
X011562Y018053D01*
X011600Y017954D02*
X011401Y017954D01*
X011355Y017856D02*
X011641Y017856D01*
X011675Y017757D02*
X011288Y017757D01*
X011194Y017659D02*
X011675Y017659D01*
X011675Y017560D02*
X011045Y017560D01*
X010776Y017560D02*
X010676Y017560D01*
X010676Y017659D02*
X010776Y017659D01*
X010776Y017757D02*
X010676Y017757D01*
X010676Y017856D02*
X010776Y017856D01*
X010776Y017954D02*
X010676Y017954D01*
X010676Y018053D02*
X010776Y018053D01*
X010776Y018151D02*
X010676Y018151D01*
X010676Y018447D02*
X010776Y018447D01*
X010776Y018545D02*
X010676Y018545D01*
X010676Y018644D02*
X010776Y018644D01*
X010776Y018742D02*
X010676Y018742D01*
X010676Y018841D02*
X010776Y018841D01*
X010776Y019654D02*
X010867Y019665D01*
X010958Y019690D01*
X011045Y019726D01*
X011127Y019773D01*
X011202Y019831D01*
X011269Y019898D01*
X011327Y019973D01*
X011374Y020055D01*
X011410Y020142D01*
X011435Y020233D01*
X011446Y020324D01*
X010776Y020324D01*
X010776Y020424D01*
X011446Y020424D01*
X011435Y020515D01*
X011410Y020606D01*
X011374Y020694D01*
X011327Y020775D01*
X011269Y020850D01*
X011202Y020917D01*
X011127Y020975D01*
X011045Y021022D01*
X010958Y021058D01*
X010867Y021083D01*
X010776Y021095D01*
X010776Y020424D01*
X010676Y020424D01*
X010676Y020324D01*
X010776Y020324D01*
X010776Y019654D01*
X010776Y019727D02*
X010676Y019727D01*
X010676Y019654D02*
X010676Y020324D01*
X010005Y020324D01*
X010017Y020233D01*
X010042Y020142D01*
X010078Y020055D01*
X010125Y019973D01*
X010183Y019898D01*
X010250Y019831D01*
X010325Y019773D01*
X010406Y019726D01*
X010494Y019690D01*
X010585Y019665D01*
X010676Y019654D01*
X010676Y019826D02*
X010776Y019826D01*
X010776Y019924D02*
X010676Y019924D01*
X010676Y020023D02*
X010776Y020023D01*
X010776Y020121D02*
X010676Y020121D01*
X010676Y020220D02*
X010776Y020220D01*
X010776Y020318D02*
X010676Y020318D01*
X010676Y020417D02*
X009785Y020417D01*
X009785Y020515D02*
X010018Y020515D01*
X010017Y020515D02*
X010005Y020424D01*
X010676Y020424D01*
X010676Y021095D01*
X010585Y021083D01*
X010494Y021058D01*
X010406Y021022D01*
X010325Y020975D01*
X010250Y020917D01*
X010183Y020850D01*
X010125Y020775D01*
X010078Y020694D01*
X010042Y020606D01*
X010017Y020515D01*
X010045Y020614D02*
X009785Y020614D01*
X009785Y020712D02*
X010089Y020712D01*
X010153Y020811D02*
X009785Y020811D01*
X009785Y020909D02*
X010242Y020909D01*
X010382Y021008D02*
X009785Y021008D01*
X009785Y021106D02*
X013092Y021106D01*
X013092Y021008D02*
X012723Y021008D01*
X012864Y020909D02*
X013092Y020909D01*
X013092Y020811D02*
X012953Y020811D01*
X013017Y020712D02*
X013092Y020712D01*
X013092Y020614D02*
X013060Y020614D01*
X013088Y020515D02*
X013092Y020515D01*
X013085Y020220D02*
X013092Y020220D01*
X013092Y020121D02*
X013055Y020121D01*
X013092Y020023D02*
X013009Y020023D01*
X012943Y019924D02*
X013092Y019924D01*
X013092Y019826D02*
X012849Y019826D01*
X012701Y019727D02*
X013092Y019727D01*
X013092Y019629D02*
X009785Y019629D01*
X009785Y019727D02*
X010404Y019727D01*
X010256Y019826D02*
X009785Y019826D01*
X009785Y019924D02*
X010162Y019924D01*
X010096Y020023D02*
X009785Y020023D01*
X009785Y020121D02*
X010050Y020121D01*
X010021Y020220D02*
X009785Y020220D01*
X009785Y020318D02*
X010006Y020318D01*
X010676Y020515D02*
X010776Y020515D01*
X010776Y020417D02*
X012330Y020417D01*
X012330Y020324D02*
X011659Y020324D01*
X011671Y020233D01*
X011695Y020142D01*
X011732Y020055D01*
X011779Y019973D01*
X011836Y019898D01*
X011903Y019831D01*
X011978Y019773D01*
X012060Y019726D01*
X012147Y019690D01*
X012239Y019665D01*
X012330Y019654D01*
X012330Y020324D01*
X012330Y020318D02*
X012430Y020318D01*
X012430Y020220D02*
X012330Y020220D01*
X012330Y020121D02*
X012430Y020121D01*
X012430Y020023D02*
X012330Y020023D01*
X012330Y019924D02*
X012430Y019924D01*
X012430Y019826D02*
X012330Y019826D01*
X012330Y019727D02*
X012430Y019727D01*
X012058Y019727D02*
X011048Y019727D01*
X011196Y019826D02*
X011910Y019826D01*
X011816Y019924D02*
X011290Y019924D01*
X011356Y020023D02*
X011750Y020023D01*
X011704Y020121D02*
X011402Y020121D01*
X011431Y020220D02*
X011675Y020220D01*
X011660Y020318D02*
X011446Y020318D01*
X011434Y020515D02*
X011671Y020515D01*
X011699Y020614D02*
X011407Y020614D01*
X011363Y020712D02*
X011743Y020712D01*
X011806Y020811D02*
X011299Y020811D01*
X011210Y020909D02*
X011895Y020909D01*
X012036Y021008D02*
X011070Y021008D01*
X010776Y021008D02*
X010676Y021008D01*
X010676Y020909D02*
X010776Y020909D01*
X010776Y020811D02*
X010676Y020811D01*
X010676Y020712D02*
X010776Y020712D01*
X010776Y020614D02*
X010676Y020614D01*
X009785Y021205D02*
X013092Y021205D01*
X013092Y021303D02*
X009785Y021303D01*
X009785Y021402D02*
X013092Y021402D01*
X013092Y021500D02*
X009785Y021500D01*
X009785Y021599D02*
X013092Y021599D01*
X013092Y021697D02*
X009785Y021697D01*
X009785Y021796D02*
X013092Y021796D01*
X013092Y021894D02*
X009785Y021894D01*
X009785Y021993D02*
X013092Y021993D01*
X013092Y022091D02*
X009785Y022091D01*
X009785Y022190D02*
X013092Y022190D01*
X013092Y022288D02*
X009785Y022288D01*
X009785Y022387D02*
X013092Y022387D01*
X013092Y022485D02*
X009785Y022485D01*
X009785Y022584D02*
X013092Y022584D01*
X013092Y022682D02*
X010887Y022682D01*
X010887Y022781D02*
X013092Y022781D01*
X013092Y022879D02*
X010887Y022879D01*
X010887Y022978D02*
X013092Y022978D01*
X013092Y023076D02*
X010887Y023076D01*
X010887Y023175D02*
X013092Y023175D01*
X013092Y023273D02*
X010887Y023273D01*
X010887Y023372D02*
X013092Y023372D01*
X013092Y023470D02*
X010887Y023470D01*
X010887Y023569D02*
X013092Y023569D01*
X013092Y023667D02*
X010887Y023667D01*
X010887Y023766D02*
X013092Y023766D01*
X013092Y023864D02*
X010887Y023864D01*
X010887Y023963D02*
X013092Y023963D01*
X013092Y024061D02*
X010887Y024061D01*
X010887Y024160D02*
X013092Y024160D01*
X013092Y024258D02*
X010887Y024258D01*
X010887Y024357D02*
X013092Y024357D01*
X013092Y024455D02*
X010887Y024455D01*
X010887Y024554D02*
X013092Y024554D01*
X013092Y024652D02*
X010887Y024652D01*
X010887Y024751D02*
X013092Y024751D01*
X013092Y024849D02*
X010887Y024849D01*
X010887Y024948D02*
X013092Y024948D01*
X013092Y025046D02*
X010887Y025046D01*
X012330Y021008D02*
X012430Y021008D01*
X012430Y020909D02*
X012330Y020909D01*
X012330Y020811D02*
X012430Y020811D01*
X012430Y020712D02*
X012330Y020712D01*
X012330Y020614D02*
X012430Y020614D01*
X012430Y020515D02*
X012330Y020515D01*
X013092Y019530D02*
X009785Y019530D01*
X009785Y019432D02*
X013092Y019432D01*
X011675Y017462D02*
X009785Y017462D01*
X009785Y017560D02*
X010407Y017560D01*
X010258Y017659D02*
X009785Y017659D01*
X009785Y017757D02*
X010164Y017757D01*
X010097Y017856D02*
X009785Y017856D01*
X009826Y017954D02*
X010051Y017954D01*
X010021Y018053D02*
X009863Y018053D01*
X009889Y018151D02*
X010006Y018151D01*
X009785Y017363D02*
X011675Y017363D01*
M02*
