G75*
G70*
%OFA0B0*%
%FSLAX24Y24*%
%IPPOS*%
%LPD*%
%AMOC8*
5,1,8,0,0,1.08239X$1,22.5*
%
%ADD10C,0.0000*%
%ADD11C,0.0320*%
%ADD12C,0.1142*%
%ADD13R,0.0950X0.0950*%
%ADD14C,0.0950*%
%ADD15R,0.0800X0.0800*%
%ADD16C,0.0800*%
%ADD17C,0.0660*%
%ADD18R,0.0709X0.0630*%
%ADD19R,0.0551X0.0472*%
%ADD20C,0.0945*%
%ADD21C,0.1500*%
%ADD22C,0.2540*%
%ADD23C,0.0160*%
%ADD24C,0.0500*%
%ADD25C,0.0240*%
%ADD26C,0.0120*%
%ADD27C,0.0100*%
D10*
X000100Y000323D02*
X000100Y039693D01*
X039470Y039693D01*
X039470Y000323D01*
X000100Y000323D01*
X001419Y002252D02*
X001421Y002302D01*
X001427Y002352D01*
X001437Y002402D01*
X001450Y002450D01*
X001467Y002498D01*
X001488Y002544D01*
X001512Y002588D01*
X001540Y002630D01*
X001571Y002670D01*
X001605Y002707D01*
X001642Y002742D01*
X001681Y002773D01*
X001722Y002802D01*
X001766Y002827D01*
X001812Y002849D01*
X001859Y002867D01*
X001907Y002881D01*
X001956Y002892D01*
X002006Y002899D01*
X002056Y002902D01*
X002107Y002901D01*
X002157Y002896D01*
X002207Y002887D01*
X002255Y002875D01*
X002303Y002858D01*
X002349Y002838D01*
X002394Y002815D01*
X002437Y002788D01*
X002477Y002758D01*
X002515Y002725D01*
X002550Y002689D01*
X002583Y002650D01*
X002612Y002609D01*
X002638Y002566D01*
X002661Y002521D01*
X002680Y002474D01*
X002695Y002426D01*
X002707Y002377D01*
X002715Y002327D01*
X002719Y002277D01*
X002719Y002227D01*
X002715Y002177D01*
X002707Y002127D01*
X002695Y002078D01*
X002680Y002030D01*
X002661Y001983D01*
X002638Y001938D01*
X002612Y001895D01*
X002583Y001854D01*
X002550Y001815D01*
X002515Y001779D01*
X002477Y001746D01*
X002437Y001716D01*
X002394Y001689D01*
X002349Y001666D01*
X002303Y001646D01*
X002255Y001629D01*
X002207Y001617D01*
X002157Y001608D01*
X002107Y001603D01*
X002056Y001602D01*
X002006Y001605D01*
X001956Y001612D01*
X001907Y001623D01*
X001859Y001637D01*
X001812Y001655D01*
X001766Y001677D01*
X001722Y001702D01*
X001681Y001731D01*
X001642Y001762D01*
X001605Y001797D01*
X001571Y001834D01*
X001540Y001874D01*
X001512Y001916D01*
X001488Y001960D01*
X001467Y002006D01*
X001450Y002054D01*
X001437Y002102D01*
X001427Y002152D01*
X001421Y002202D01*
X001419Y002252D01*
X016856Y002650D02*
X016858Y002700D01*
X016864Y002750D01*
X016874Y002800D01*
X016887Y002848D01*
X016904Y002896D01*
X016925Y002942D01*
X016949Y002986D01*
X016977Y003028D01*
X017008Y003068D01*
X017042Y003105D01*
X017079Y003140D01*
X017118Y003171D01*
X017159Y003200D01*
X017203Y003225D01*
X017249Y003247D01*
X017296Y003265D01*
X017344Y003279D01*
X017393Y003290D01*
X017443Y003297D01*
X017493Y003300D01*
X017544Y003299D01*
X017594Y003294D01*
X017644Y003285D01*
X017692Y003273D01*
X017740Y003256D01*
X017786Y003236D01*
X017831Y003213D01*
X017874Y003186D01*
X017914Y003156D01*
X017952Y003123D01*
X017987Y003087D01*
X018020Y003048D01*
X018049Y003007D01*
X018075Y002964D01*
X018098Y002919D01*
X018117Y002872D01*
X018132Y002824D01*
X018144Y002775D01*
X018152Y002725D01*
X018156Y002675D01*
X018156Y002625D01*
X018152Y002575D01*
X018144Y002525D01*
X018132Y002476D01*
X018117Y002428D01*
X018098Y002381D01*
X018075Y002336D01*
X018049Y002293D01*
X018020Y002252D01*
X017987Y002213D01*
X017952Y002177D01*
X017914Y002144D01*
X017874Y002114D01*
X017831Y002087D01*
X017786Y002064D01*
X017740Y002044D01*
X017692Y002027D01*
X017644Y002015D01*
X017594Y002006D01*
X017544Y002001D01*
X017493Y002000D01*
X017443Y002003D01*
X017393Y002010D01*
X017344Y002021D01*
X017296Y002035D01*
X017249Y002053D01*
X017203Y002075D01*
X017159Y002100D01*
X017118Y002129D01*
X017079Y002160D01*
X017042Y002195D01*
X017008Y002232D01*
X016977Y002272D01*
X016949Y002314D01*
X016925Y002358D01*
X016904Y002404D01*
X016887Y002452D01*
X016874Y002500D01*
X016864Y002550D01*
X016858Y002600D01*
X016856Y002650D01*
X008285Y018390D02*
X008287Y018438D01*
X008293Y018486D01*
X008303Y018533D01*
X008316Y018579D01*
X008334Y018624D01*
X008354Y018668D01*
X008379Y018710D01*
X008407Y018749D01*
X008437Y018786D01*
X008471Y018820D01*
X008508Y018852D01*
X008546Y018881D01*
X008587Y018906D01*
X008630Y018928D01*
X008675Y018946D01*
X008721Y018960D01*
X008768Y018971D01*
X008816Y018978D01*
X008864Y018981D01*
X008912Y018980D01*
X008960Y018975D01*
X009008Y018966D01*
X009054Y018954D01*
X009099Y018937D01*
X009143Y018917D01*
X009185Y018894D01*
X009225Y018867D01*
X009263Y018837D01*
X009298Y018804D01*
X009330Y018768D01*
X009360Y018730D01*
X009386Y018689D01*
X009408Y018646D01*
X009428Y018602D01*
X009443Y018557D01*
X009455Y018510D01*
X009463Y018462D01*
X009467Y018414D01*
X009467Y018366D01*
X009463Y018318D01*
X009455Y018270D01*
X009443Y018223D01*
X009428Y018178D01*
X009408Y018134D01*
X009386Y018091D01*
X009360Y018050D01*
X009330Y018012D01*
X009298Y017976D01*
X009263Y017943D01*
X009225Y017913D01*
X009185Y017886D01*
X009143Y017863D01*
X009099Y017843D01*
X009054Y017826D01*
X009008Y017814D01*
X008960Y017805D01*
X008912Y017800D01*
X008864Y017799D01*
X008816Y017802D01*
X008768Y017809D01*
X008721Y017820D01*
X008675Y017834D01*
X008630Y017852D01*
X008587Y017874D01*
X008546Y017899D01*
X008508Y017928D01*
X008471Y017960D01*
X008437Y017994D01*
X008407Y018031D01*
X008379Y018070D01*
X008354Y018112D01*
X008334Y018156D01*
X008316Y018201D01*
X008303Y018247D01*
X008293Y018294D01*
X008287Y018342D01*
X008285Y018390D01*
X001419Y037724D02*
X001421Y037774D01*
X001427Y037824D01*
X001437Y037874D01*
X001450Y037922D01*
X001467Y037970D01*
X001488Y038016D01*
X001512Y038060D01*
X001540Y038102D01*
X001571Y038142D01*
X001605Y038179D01*
X001642Y038214D01*
X001681Y038245D01*
X001722Y038274D01*
X001766Y038299D01*
X001812Y038321D01*
X001859Y038339D01*
X001907Y038353D01*
X001956Y038364D01*
X002006Y038371D01*
X002056Y038374D01*
X002107Y038373D01*
X002157Y038368D01*
X002207Y038359D01*
X002255Y038347D01*
X002303Y038330D01*
X002349Y038310D01*
X002394Y038287D01*
X002437Y038260D01*
X002477Y038230D01*
X002515Y038197D01*
X002550Y038161D01*
X002583Y038122D01*
X002612Y038081D01*
X002638Y038038D01*
X002661Y037993D01*
X002680Y037946D01*
X002695Y037898D01*
X002707Y037849D01*
X002715Y037799D01*
X002719Y037749D01*
X002719Y037699D01*
X002715Y037649D01*
X002707Y037599D01*
X002695Y037550D01*
X002680Y037502D01*
X002661Y037455D01*
X002638Y037410D01*
X002612Y037367D01*
X002583Y037326D01*
X002550Y037287D01*
X002515Y037251D01*
X002477Y037218D01*
X002437Y037188D01*
X002394Y037161D01*
X002349Y037138D01*
X002303Y037118D01*
X002255Y037101D01*
X002207Y037089D01*
X002157Y037080D01*
X002107Y037075D01*
X002056Y037074D01*
X002006Y037077D01*
X001956Y037084D01*
X001907Y037095D01*
X001859Y037109D01*
X001812Y037127D01*
X001766Y037149D01*
X001722Y037174D01*
X001681Y037203D01*
X001642Y037234D01*
X001605Y037269D01*
X001571Y037306D01*
X001540Y037346D01*
X001512Y037388D01*
X001488Y037432D01*
X001467Y037478D01*
X001450Y037526D01*
X001437Y037574D01*
X001427Y037624D01*
X001421Y037674D01*
X001419Y037724D01*
X030174Y018390D02*
X030176Y018438D01*
X030182Y018486D01*
X030192Y018533D01*
X030205Y018579D01*
X030223Y018624D01*
X030243Y018668D01*
X030268Y018710D01*
X030296Y018749D01*
X030326Y018786D01*
X030360Y018820D01*
X030397Y018852D01*
X030435Y018881D01*
X030476Y018906D01*
X030519Y018928D01*
X030564Y018946D01*
X030610Y018960D01*
X030657Y018971D01*
X030705Y018978D01*
X030753Y018981D01*
X030801Y018980D01*
X030849Y018975D01*
X030897Y018966D01*
X030943Y018954D01*
X030988Y018937D01*
X031032Y018917D01*
X031074Y018894D01*
X031114Y018867D01*
X031152Y018837D01*
X031187Y018804D01*
X031219Y018768D01*
X031249Y018730D01*
X031275Y018689D01*
X031297Y018646D01*
X031317Y018602D01*
X031332Y018557D01*
X031344Y018510D01*
X031352Y018462D01*
X031356Y018414D01*
X031356Y018366D01*
X031352Y018318D01*
X031344Y018270D01*
X031332Y018223D01*
X031317Y018178D01*
X031297Y018134D01*
X031275Y018091D01*
X031249Y018050D01*
X031219Y018012D01*
X031187Y017976D01*
X031152Y017943D01*
X031114Y017913D01*
X031074Y017886D01*
X031032Y017863D01*
X030988Y017843D01*
X030943Y017826D01*
X030897Y017814D01*
X030849Y017805D01*
X030801Y017800D01*
X030753Y017799D01*
X030705Y017802D01*
X030657Y017809D01*
X030610Y017820D01*
X030564Y017834D01*
X030519Y017852D01*
X030476Y017874D01*
X030435Y017899D01*
X030397Y017928D01*
X030360Y017960D01*
X030326Y017994D01*
X030296Y018031D01*
X030268Y018070D01*
X030243Y018112D01*
X030223Y018156D01*
X030205Y018201D01*
X030192Y018247D01*
X030182Y018294D01*
X030176Y018342D01*
X030174Y018390D01*
X036852Y002291D02*
X036854Y002341D01*
X036860Y002391D01*
X036870Y002441D01*
X036883Y002489D01*
X036900Y002537D01*
X036921Y002583D01*
X036945Y002627D01*
X036973Y002669D01*
X037004Y002709D01*
X037038Y002746D01*
X037075Y002781D01*
X037114Y002812D01*
X037155Y002841D01*
X037199Y002866D01*
X037245Y002888D01*
X037292Y002906D01*
X037340Y002920D01*
X037389Y002931D01*
X037439Y002938D01*
X037489Y002941D01*
X037540Y002940D01*
X037590Y002935D01*
X037640Y002926D01*
X037688Y002914D01*
X037736Y002897D01*
X037782Y002877D01*
X037827Y002854D01*
X037870Y002827D01*
X037910Y002797D01*
X037948Y002764D01*
X037983Y002728D01*
X038016Y002689D01*
X038045Y002648D01*
X038071Y002605D01*
X038094Y002560D01*
X038113Y002513D01*
X038128Y002465D01*
X038140Y002416D01*
X038148Y002366D01*
X038152Y002316D01*
X038152Y002266D01*
X038148Y002216D01*
X038140Y002166D01*
X038128Y002117D01*
X038113Y002069D01*
X038094Y002022D01*
X038071Y001977D01*
X038045Y001934D01*
X038016Y001893D01*
X037983Y001854D01*
X037948Y001818D01*
X037910Y001785D01*
X037870Y001755D01*
X037827Y001728D01*
X037782Y001705D01*
X037736Y001685D01*
X037688Y001668D01*
X037640Y001656D01*
X037590Y001647D01*
X037540Y001642D01*
X037489Y001641D01*
X037439Y001644D01*
X037389Y001651D01*
X037340Y001662D01*
X037292Y001676D01*
X037245Y001694D01*
X037199Y001716D01*
X037155Y001741D01*
X037114Y001770D01*
X037075Y001801D01*
X037038Y001836D01*
X037004Y001873D01*
X036973Y001913D01*
X036945Y001955D01*
X036921Y001999D01*
X036900Y002045D01*
X036883Y002093D01*
X036870Y002141D01*
X036860Y002191D01*
X036854Y002241D01*
X036852Y002291D01*
X036852Y037724D02*
X036854Y037774D01*
X036860Y037824D01*
X036870Y037874D01*
X036883Y037922D01*
X036900Y037970D01*
X036921Y038016D01*
X036945Y038060D01*
X036973Y038102D01*
X037004Y038142D01*
X037038Y038179D01*
X037075Y038214D01*
X037114Y038245D01*
X037155Y038274D01*
X037199Y038299D01*
X037245Y038321D01*
X037292Y038339D01*
X037340Y038353D01*
X037389Y038364D01*
X037439Y038371D01*
X037489Y038374D01*
X037540Y038373D01*
X037590Y038368D01*
X037640Y038359D01*
X037688Y038347D01*
X037736Y038330D01*
X037782Y038310D01*
X037827Y038287D01*
X037870Y038260D01*
X037910Y038230D01*
X037948Y038197D01*
X037983Y038161D01*
X038016Y038122D01*
X038045Y038081D01*
X038071Y038038D01*
X038094Y037993D01*
X038113Y037946D01*
X038128Y037898D01*
X038140Y037849D01*
X038148Y037799D01*
X038152Y037749D01*
X038152Y037699D01*
X038148Y037649D01*
X038140Y037599D01*
X038128Y037550D01*
X038113Y037502D01*
X038094Y037455D01*
X038071Y037410D01*
X038045Y037367D01*
X038016Y037326D01*
X037983Y037287D01*
X037948Y037251D01*
X037910Y037218D01*
X037870Y037188D01*
X037827Y037161D01*
X037782Y037138D01*
X037736Y037118D01*
X037688Y037101D01*
X037640Y037089D01*
X037590Y037080D01*
X037540Y037075D01*
X037489Y037074D01*
X037439Y037077D01*
X037389Y037084D01*
X037340Y037095D01*
X037292Y037109D01*
X037245Y037127D01*
X037199Y037149D01*
X037155Y037174D01*
X037114Y037203D01*
X037075Y037234D01*
X037038Y037269D01*
X037004Y037306D01*
X036973Y037346D01*
X036945Y037388D01*
X036921Y037432D01*
X036900Y037478D01*
X036883Y037526D01*
X036870Y037574D01*
X036860Y037624D01*
X036854Y037674D01*
X036852Y037724D01*
D11*
X036172Y038081D02*
X036172Y038869D01*
X035975Y039065D01*
X035385Y039065D01*
X035385Y037884D01*
X035975Y037884D01*
X036172Y038081D01*
X034791Y039065D02*
X034003Y039065D01*
X034003Y037884D01*
X034003Y038475D02*
X034397Y038475D01*
X033410Y039065D02*
X033016Y039065D01*
X033213Y039065D02*
X033213Y038081D01*
X033016Y037884D01*
X032819Y037884D01*
X032622Y038081D01*
X030748Y038081D02*
X030551Y037884D01*
X030158Y037884D01*
X029961Y038081D01*
X030748Y038869D01*
X030748Y038081D01*
X029961Y038081D02*
X029961Y038869D01*
X030158Y039065D01*
X030551Y039065D01*
X030748Y038869D01*
X029467Y038081D02*
X029467Y037884D01*
X029270Y037884D01*
X029270Y038081D01*
X029467Y038081D01*
X028677Y037884D02*
X027889Y037884D01*
X028283Y037884D02*
X028283Y039065D01*
X027889Y038672D01*
X027295Y038278D02*
X027295Y039065D01*
X027295Y038278D02*
X026902Y037884D01*
X026508Y038278D01*
X026508Y039065D01*
X025914Y037688D02*
X025127Y037688D01*
X024533Y038081D02*
X024336Y037884D01*
X023942Y037884D01*
X023746Y038081D01*
X023746Y038869D01*
X023942Y039065D01*
X024336Y039065D01*
X024533Y038869D01*
X024533Y038081D01*
X023152Y037884D02*
X022758Y038278D01*
X022955Y038278D02*
X023152Y038475D01*
X023152Y038869D01*
X022955Y039065D01*
X022364Y039065D01*
X022364Y037884D01*
X022364Y038278D02*
X022955Y038278D01*
X021771Y039065D02*
X020983Y039065D01*
X021377Y039065D02*
X021377Y037884D01*
X020389Y038081D02*
X020193Y037884D01*
X019799Y037884D01*
X019602Y038081D01*
X019799Y038475D02*
X019602Y038672D01*
X019602Y038869D01*
X019799Y039065D01*
X020193Y039065D01*
X020389Y038869D01*
X020193Y038475D02*
X019799Y038475D01*
X020193Y038475D02*
X020389Y038278D01*
X020389Y038081D01*
X019075Y037884D02*
X018681Y037884D01*
X018878Y037884D02*
X018878Y039065D01*
X018681Y039065D02*
X019075Y039065D01*
X018087Y038869D02*
X018087Y038081D01*
X017891Y037884D01*
X017300Y037884D01*
X017300Y039065D01*
X017891Y039065D01*
X018087Y038869D01*
X016706Y037688D02*
X015919Y037688D01*
X015325Y037884D02*
X014931Y038278D01*
X015128Y038278D02*
X015325Y038475D01*
X015325Y038869D01*
X015128Y039065D01*
X014538Y039065D01*
X014538Y037884D01*
X014538Y038278D02*
X015128Y038278D01*
X013944Y037884D02*
X013157Y037884D01*
X013157Y039065D01*
X013944Y039065D01*
X013550Y038475D02*
X013157Y038475D01*
X012563Y037884D02*
X012563Y039065D01*
X011775Y039065D02*
X011775Y037884D01*
X012169Y038278D01*
X012563Y037884D01*
X011182Y038081D02*
X011182Y038869D01*
X010985Y039065D01*
X010591Y039065D01*
X010394Y038869D01*
X010394Y038081D01*
X010591Y037884D01*
X010985Y037884D01*
X011182Y038081D01*
X009800Y038475D02*
X009604Y038278D01*
X009013Y038278D01*
X009013Y037884D02*
X009013Y039065D01*
X009604Y039065D01*
X009800Y038869D01*
X009800Y038475D01*
X008419Y037688D02*
X007632Y037688D01*
X007038Y037884D02*
X006251Y039065D01*
X005657Y039065D02*
X004870Y039065D01*
X005263Y039065D02*
X005263Y037884D01*
X006251Y037884D02*
X007038Y039065D01*
X004276Y038672D02*
X004276Y037884D01*
X004276Y038475D02*
X003488Y038475D01*
X003488Y038672D02*
X003882Y039065D01*
X004276Y038672D01*
X003488Y038672D02*
X003488Y037884D01*
D12*
X010726Y020374D03*
X012380Y020374D03*
X014033Y020374D03*
X015687Y020374D03*
X017340Y020374D03*
X018994Y020374D03*
X020647Y020374D03*
X022301Y020374D03*
X023954Y020374D03*
X025608Y020374D03*
X027261Y020374D03*
X028915Y020374D03*
X028915Y018209D03*
X027261Y018209D03*
X025608Y018209D03*
X023954Y018209D03*
X022301Y018209D03*
X020647Y018209D03*
X018994Y018209D03*
X017340Y018209D03*
X015687Y018209D03*
X014033Y018209D03*
X012380Y018209D03*
X010726Y018209D03*
D13*
X014411Y009921D03*
X004765Y006528D03*
X004793Y002000D03*
X028702Y002016D03*
X028809Y006205D03*
X027691Y027913D03*
X027718Y031850D03*
X037183Y031894D03*
X037218Y027961D03*
X018320Y027929D03*
X018269Y031882D03*
X008033Y031850D03*
X008049Y027957D03*
D14*
X006080Y027957D03*
X004112Y027957D03*
X002143Y027957D03*
X002128Y031850D03*
X004096Y031850D03*
X006065Y031850D03*
X012364Y031882D03*
X014332Y031882D03*
X016301Y031882D03*
X016352Y027929D03*
X014383Y027929D03*
X012415Y027929D03*
X021785Y027913D03*
X023754Y027913D03*
X025722Y027913D03*
X025750Y031850D03*
X023781Y031850D03*
X021813Y031850D03*
X031277Y031894D03*
X033246Y031894D03*
X035214Y031894D03*
X035250Y027961D03*
X033281Y027961D03*
X031313Y027961D03*
X020317Y009921D03*
X018348Y009921D03*
X016380Y009921D03*
X010671Y006528D03*
X008702Y006528D03*
X006734Y006528D03*
X006761Y002000D03*
X008730Y002000D03*
X010698Y002000D03*
X030671Y002016D03*
X032639Y002016D03*
X034608Y002016D03*
X034714Y006205D03*
X032746Y006205D03*
X030777Y006205D03*
D15*
X023950Y009831D03*
D16*
X025919Y009831D03*
D17*
X025036Y003650D02*
X024376Y003650D01*
X024376Y001650D02*
X025036Y001650D01*
D18*
X022230Y023028D03*
X022230Y024130D03*
D19*
X020655Y024201D03*
X020655Y023020D03*
D20*
X015691Y023157D03*
X003400Y023242D03*
X003450Y019742D03*
X003450Y015742D03*
X003450Y011992D03*
X036128Y012618D03*
X036128Y016368D03*
X036128Y020368D03*
X036078Y023868D03*
D21*
X035371Y023945D01*
X035250Y024066D02*
X035250Y027961D01*
X037218Y027961D01*
X037183Y027996D01*
X037183Y031894D01*
X035214Y031894D01*
X033246Y031894D01*
X031277Y031894D01*
X031313Y027961D02*
X033281Y027961D01*
X035250Y027961D01*
X035250Y024066D02*
X036078Y023868D01*
X035448Y020418D01*
X036128Y020368D01*
X036128Y016368D01*
X036128Y012618D01*
X035498Y006988D01*
X034714Y006205D01*
X032746Y006205D01*
X030777Y006205D01*
X028809Y006205D01*
X026806Y004202D01*
X024667Y004202D01*
X024667Y003709D01*
X024706Y002000D02*
X024706Y001650D01*
X026806Y004202D02*
X028702Y002305D01*
X028702Y002016D01*
X030671Y002016D01*
X032639Y002016D01*
X034608Y002016D01*
X023954Y013559D02*
X020317Y009921D01*
X018348Y009921D01*
X016380Y009921D01*
X015651Y009921D01*
X015687Y009957D01*
X015687Y018209D01*
X015687Y020374D01*
X015687Y021815D01*
X016635Y022764D01*
X018210Y022764D01*
X018320Y022764D01*
X018320Y027929D01*
X018320Y031882D01*
X018269Y031882D01*
X016301Y031882D01*
X014332Y031882D01*
X012364Y031882D01*
X012415Y027929D02*
X014383Y027929D01*
X016352Y027929D01*
X018320Y027929D01*
X018210Y022764D02*
X018998Y021976D01*
X018998Y020378D01*
X018994Y020374D01*
X020647Y020374D02*
X020647Y018209D01*
X018994Y018209D01*
X017340Y018209D01*
X017340Y020374D01*
X014033Y020374D02*
X014033Y017406D01*
X012305Y015677D01*
X004173Y015677D01*
X003450Y015742D01*
X003450Y019742D01*
X003400Y020608D01*
X003400Y023242D01*
X004112Y023872D01*
X004112Y027957D01*
X006080Y027957D01*
X008049Y027957D01*
X008033Y027957D01*
X008033Y031850D01*
X006065Y031850D01*
X004096Y031850D01*
X002128Y031850D01*
X002143Y027957D02*
X004112Y027957D01*
X010726Y020374D02*
X012380Y020374D01*
X014033Y020374D02*
X014033Y018209D01*
X010726Y018209D02*
X010726Y020374D01*
X003450Y015742D02*
X003450Y011992D01*
X004080Y006528D01*
X004765Y006528D01*
X006734Y006528D01*
X008702Y006528D01*
X010671Y006528D01*
X014411Y009921D02*
X015651Y009921D01*
X010730Y002055D02*
X008730Y002055D01*
X008730Y002000D01*
X006761Y002000D01*
X004793Y002000D01*
X004765Y002000D01*
X004765Y006528D01*
X023954Y013559D02*
X023954Y018209D01*
X025608Y018209D01*
X027261Y018209D01*
X027261Y020374D02*
X025608Y020374D01*
X027261Y020374D02*
X027261Y021579D01*
D22*
X029628Y023945D01*
X035371Y023945D01*
D23*
X035430Y023946D02*
X036000Y023946D01*
X036000Y024516D01*
X035950Y024509D01*
X035867Y024487D01*
X035788Y024455D01*
X035714Y024412D01*
X035646Y024360D01*
X035586Y024299D01*
X035534Y024231D01*
X035491Y024157D01*
X035458Y024078D01*
X035436Y023996D01*
X035430Y023946D01*
X035430Y023791D02*
X035436Y023741D01*
X035458Y023658D01*
X035491Y023579D01*
X035534Y023505D01*
X035586Y023437D01*
X035646Y023377D01*
X035714Y023324D01*
X035788Y023282D01*
X035867Y023249D01*
X035950Y023227D01*
X036000Y023220D01*
X036000Y023791D01*
X035430Y023791D01*
X035431Y023781D02*
X025376Y023781D01*
X025376Y023939D02*
X036000Y023939D01*
X036000Y023946D02*
X036000Y023791D01*
X036155Y023791D01*
X036155Y023946D01*
X036000Y023946D01*
X036000Y024098D02*
X036155Y024098D01*
X036155Y023946D02*
X036155Y024516D01*
X036205Y024509D01*
X036288Y024487D01*
X036367Y024455D01*
X036441Y024412D01*
X036509Y024360D01*
X036569Y024299D01*
X036621Y024231D01*
X036664Y024157D01*
X036697Y024078D01*
X036719Y023996D01*
X036725Y023946D01*
X036155Y023946D01*
X036155Y023939D02*
X038990Y023939D01*
X038990Y023781D02*
X036724Y023781D01*
X036725Y023791D02*
X036155Y023791D01*
X036155Y023220D01*
X036205Y023227D01*
X036288Y023249D01*
X036367Y023282D01*
X036441Y023324D01*
X036509Y023377D01*
X036569Y023437D01*
X036621Y023505D01*
X036664Y023579D01*
X036697Y023658D01*
X036719Y023741D01*
X036725Y023791D01*
X036682Y023622D02*
X038990Y023622D01*
X038990Y023464D02*
X036590Y023464D01*
X036408Y023305D02*
X038990Y023305D01*
X038990Y023147D02*
X025376Y023147D01*
X025376Y023305D02*
X035747Y023305D01*
X035565Y023464D02*
X025376Y023464D01*
X025376Y023622D02*
X035473Y023622D01*
X035467Y024098D02*
X025376Y024098D01*
X025376Y024256D02*
X035553Y024256D01*
X035720Y024415D02*
X025376Y024415D01*
X025376Y024573D02*
X038990Y024573D01*
X038990Y024415D02*
X036435Y024415D01*
X036602Y024256D02*
X038990Y024256D01*
X038990Y024098D02*
X036689Y024098D01*
X036155Y024256D02*
X036000Y024256D01*
X036000Y024415D02*
X036155Y024415D01*
X036155Y023781D02*
X036000Y023781D01*
X036000Y023622D02*
X036155Y023622D01*
X036155Y023464D02*
X036000Y023464D01*
X036000Y023305D02*
X036155Y023305D01*
X036205Y021016D02*
X036205Y020446D01*
X036050Y020446D01*
X036050Y021016D01*
X036000Y021009D01*
X035917Y020987D01*
X035838Y020955D01*
X035764Y020912D01*
X035696Y020860D01*
X035636Y020799D01*
X035584Y020731D01*
X035541Y020657D01*
X035508Y020578D01*
X035486Y020496D01*
X035480Y020446D01*
X036050Y020446D01*
X036050Y020291D01*
X035480Y020291D01*
X035486Y020241D01*
X035508Y020158D01*
X035541Y020079D01*
X035584Y020005D01*
X035636Y019937D01*
X035696Y019877D01*
X035764Y019824D01*
X035838Y019782D01*
X035917Y019749D01*
X036000Y019727D01*
X036050Y019720D01*
X036050Y020291D01*
X036205Y020291D01*
X036205Y020446D01*
X036775Y020446D01*
X036769Y020496D01*
X036747Y020578D01*
X036714Y020657D01*
X036671Y020731D01*
X036619Y020799D01*
X036559Y020860D01*
X036491Y020912D01*
X036417Y020955D01*
X036338Y020987D01*
X036255Y021009D01*
X036205Y021016D01*
X036205Y020928D02*
X036050Y020928D01*
X036050Y020769D02*
X036205Y020769D01*
X036205Y020611D02*
X036050Y020611D01*
X036050Y020452D02*
X036205Y020452D01*
X036205Y020294D02*
X038990Y020294D01*
X038990Y020452D02*
X036775Y020452D01*
X036775Y020291D02*
X036205Y020291D01*
X036205Y019720D01*
X036255Y019727D01*
X036338Y019749D01*
X036417Y019782D01*
X036491Y019824D01*
X036559Y019877D01*
X036619Y019937D01*
X036671Y020005D01*
X036714Y020079D01*
X036747Y020158D01*
X036769Y020241D01*
X036775Y020291D01*
X036737Y020135D02*
X038990Y020135D01*
X038990Y019977D02*
X036650Y019977D01*
X036480Y019818D02*
X038990Y019818D01*
X038990Y019660D02*
X030021Y019660D01*
X030021Y019818D02*
X035775Y019818D01*
X035605Y019977D02*
X030021Y019977D01*
X030021Y020135D02*
X035518Y020135D01*
X035481Y020452D02*
X030021Y020452D01*
X030021Y020294D02*
X036050Y020294D01*
X036050Y020135D02*
X036205Y020135D01*
X036205Y019977D02*
X036050Y019977D01*
X036050Y019818D02*
X036205Y019818D01*
X036733Y020611D02*
X038990Y020611D01*
X038990Y020769D02*
X036642Y020769D01*
X036463Y020928D02*
X038990Y020928D01*
X038990Y021086D02*
X030021Y021086D01*
X030021Y020928D02*
X035792Y020928D01*
X035613Y020769D02*
X030021Y020769D01*
X030021Y020611D02*
X035522Y020611D01*
X038990Y021245D02*
X030021Y021245D01*
X030021Y021403D02*
X038990Y021403D01*
X038990Y021562D02*
X030021Y021562D01*
X030021Y021583D02*
X027895Y021583D01*
X027895Y020778D01*
X027887Y020792D01*
X027827Y020870D01*
X027758Y020940D01*
X027679Y021000D01*
X027594Y021049D01*
X027503Y021087D01*
X027408Y021112D01*
X027341Y021121D01*
X027341Y020454D01*
X027181Y020454D01*
X027181Y020294D01*
X026515Y020294D01*
X026523Y020227D01*
X026549Y020132D01*
X026568Y020087D01*
X026302Y020087D01*
X026320Y020132D01*
X026346Y020227D01*
X026355Y020294D01*
X025688Y020294D01*
X025688Y020454D01*
X026355Y020454D01*
X026346Y020521D01*
X026320Y020616D01*
X026283Y020707D01*
X026234Y020792D01*
X026174Y020870D01*
X026104Y020940D01*
X026026Y021000D01*
X025941Y021049D01*
X025850Y021087D01*
X025755Y021112D01*
X025688Y021121D01*
X025688Y020454D01*
X025528Y020454D01*
X025528Y021121D01*
X025461Y021112D01*
X025376Y021089D01*
X025376Y026780D01*
X029076Y026780D01*
X029076Y034496D01*
X038990Y034496D01*
X038990Y000875D01*
X027187Y000953D01*
X027187Y003236D01*
X025260Y003192D01*
X025303Y003214D01*
X025368Y003261D01*
X025425Y003318D01*
X025472Y003383D01*
X025508Y003455D01*
X025533Y003531D01*
X025546Y003610D01*
X025546Y003620D01*
X024736Y003620D01*
X024736Y003680D01*
X025546Y003680D01*
X025546Y003691D01*
X025533Y003770D01*
X025508Y003846D01*
X025472Y003918D01*
X025425Y003983D01*
X025368Y004039D01*
X025303Y004087D01*
X025231Y004123D01*
X025155Y004148D01*
X025076Y004160D01*
X024736Y004160D01*
X024736Y003680D01*
X024676Y003680D01*
X024676Y004160D01*
X024335Y004160D01*
X024256Y004148D01*
X024180Y004123D01*
X024108Y004087D01*
X024043Y004039D01*
X023987Y003983D01*
X023939Y003918D01*
X023903Y003846D01*
X023878Y003770D01*
X023866Y003691D01*
X023866Y003680D01*
X024676Y003680D01*
X024676Y003620D01*
X023866Y003620D01*
X023866Y003610D01*
X023878Y003531D01*
X023903Y003455D01*
X023939Y003383D01*
X023987Y003318D01*
X024043Y003261D01*
X024108Y003214D01*
X024180Y003178D01*
X024208Y003169D01*
X023722Y003157D01*
X023722Y008433D01*
X027344Y008433D01*
X027344Y012685D01*
X030021Y015362D01*
X030021Y017620D01*
X030108Y017533D01*
X030352Y017392D01*
X030624Y017319D01*
X030906Y017319D01*
X031179Y017392D01*
X031423Y017533D01*
X031622Y017732D01*
X031763Y017977D01*
X031836Y018249D01*
X031836Y018531D01*
X031763Y018803D01*
X031622Y019047D01*
X031423Y019246D01*
X031179Y019387D01*
X030906Y019460D01*
X030624Y019460D01*
X030352Y019387D01*
X030108Y019246D01*
X030021Y019160D01*
X030021Y021583D01*
X030021Y019501D02*
X038990Y019501D01*
X038990Y019343D02*
X031256Y019343D01*
X031485Y019184D02*
X038990Y019184D01*
X038990Y019026D02*
X031634Y019026D01*
X031726Y018867D02*
X038990Y018867D01*
X038990Y018709D02*
X031788Y018709D01*
X031831Y018550D02*
X038990Y018550D01*
X038990Y018392D02*
X031836Y018392D01*
X031832Y018233D02*
X038990Y018233D01*
X038990Y018075D02*
X031789Y018075D01*
X031728Y017916D02*
X038990Y017916D01*
X038990Y017758D02*
X031637Y017758D01*
X031489Y017599D02*
X038990Y017599D01*
X038990Y017441D02*
X031263Y017441D01*
X030268Y017441D02*
X030021Y017441D01*
X030021Y017599D02*
X030042Y017599D01*
X030021Y017282D02*
X038990Y017282D01*
X038990Y017124D02*
X030021Y017124D01*
X030021Y016965D02*
X035865Y016965D01*
X035838Y016955D02*
X035764Y016912D01*
X035696Y016860D01*
X035636Y016799D01*
X035584Y016731D01*
X035541Y016657D01*
X035508Y016578D01*
X035486Y016496D01*
X035480Y016446D01*
X036050Y016446D01*
X036050Y017016D01*
X036000Y017009D01*
X035917Y016987D01*
X035838Y016955D01*
X036050Y016965D02*
X036205Y016965D01*
X036205Y017016D02*
X036205Y016446D01*
X036050Y016446D01*
X036050Y016291D01*
X035480Y016291D01*
X035486Y016241D01*
X035508Y016158D01*
X035541Y016079D01*
X035584Y016005D01*
X035636Y015937D01*
X035696Y015877D01*
X035764Y015824D01*
X035838Y015782D01*
X035917Y015749D01*
X036000Y015727D01*
X036050Y015720D01*
X036050Y016291D01*
X036205Y016291D01*
X036205Y016446D01*
X036775Y016446D01*
X036769Y016496D01*
X036747Y016578D01*
X036714Y016657D01*
X036671Y016731D01*
X036619Y016799D01*
X036559Y016860D01*
X036491Y016912D01*
X036417Y016955D01*
X036338Y016987D01*
X036255Y017009D01*
X036205Y017016D01*
X036391Y016965D02*
X038990Y016965D01*
X038990Y016807D02*
X036611Y016807D01*
X036718Y016648D02*
X038990Y016648D01*
X038990Y016490D02*
X036770Y016490D01*
X036775Y016291D02*
X036205Y016291D01*
X036205Y015720D01*
X036255Y015727D01*
X036338Y015749D01*
X036417Y015782D01*
X036491Y015824D01*
X036559Y015877D01*
X036619Y015937D01*
X036671Y016005D01*
X036714Y016079D01*
X036747Y016158D01*
X036769Y016241D01*
X036775Y016291D01*
X036751Y016173D02*
X038990Y016173D01*
X038990Y016331D02*
X036205Y016331D01*
X036050Y016331D02*
X030021Y016331D01*
X030021Y016173D02*
X035504Y016173D01*
X035578Y016014D02*
X030021Y016014D01*
X030021Y015856D02*
X035723Y015856D01*
X036050Y015856D02*
X036205Y015856D01*
X036205Y016014D02*
X036050Y016014D01*
X036050Y016173D02*
X036205Y016173D01*
X036205Y016490D02*
X036050Y016490D01*
X036050Y016648D02*
X036205Y016648D01*
X036205Y016807D02*
X036050Y016807D01*
X035644Y016807D02*
X030021Y016807D01*
X030021Y016648D02*
X035537Y016648D01*
X035486Y016490D02*
X030021Y016490D01*
X030021Y015697D02*
X038990Y015697D01*
X038990Y015539D02*
X030021Y015539D01*
X030021Y015380D02*
X038990Y015380D01*
X038990Y015222D02*
X029881Y015222D01*
X029722Y015063D02*
X038990Y015063D01*
X038990Y014905D02*
X029564Y014905D01*
X029405Y014746D02*
X038990Y014746D01*
X038990Y014588D02*
X029247Y014588D01*
X029088Y014429D02*
X038990Y014429D01*
X038990Y014271D02*
X028930Y014271D01*
X028771Y014112D02*
X038990Y014112D01*
X038990Y013954D02*
X028613Y013954D01*
X028454Y013795D02*
X038990Y013795D01*
X038990Y013637D02*
X028296Y013637D01*
X028137Y013478D02*
X038990Y013478D01*
X038990Y013320D02*
X027979Y013320D01*
X027820Y013161D02*
X035764Y013161D01*
X035764Y013162D02*
X035696Y013110D01*
X035636Y013049D01*
X035584Y012981D01*
X035541Y012907D01*
X035508Y012828D01*
X035486Y012746D01*
X035480Y012696D01*
X036050Y012696D01*
X036050Y013266D01*
X036000Y013259D01*
X035917Y013237D01*
X035838Y013205D01*
X035764Y013162D01*
X035600Y013003D02*
X027662Y013003D01*
X027503Y012844D02*
X035515Y012844D01*
X035480Y012541D02*
X035486Y012491D01*
X035508Y012408D01*
X035541Y012329D01*
X035584Y012255D01*
X035636Y012187D01*
X035696Y012127D01*
X035764Y012074D01*
X035838Y012032D01*
X035917Y011999D01*
X036000Y011977D01*
X036050Y011970D01*
X036050Y012541D01*
X035480Y012541D01*
X035481Y012527D02*
X027344Y012527D01*
X027344Y012369D02*
X035525Y012369D01*
X035618Y012210D02*
X027344Y012210D01*
X027344Y012052D02*
X035803Y012052D01*
X036050Y012052D02*
X036205Y012052D01*
X036205Y011970D02*
X036255Y011977D01*
X036338Y011999D01*
X036417Y012032D01*
X036491Y012074D01*
X036559Y012127D01*
X036619Y012187D01*
X036671Y012255D01*
X036714Y012329D01*
X036747Y012408D01*
X036769Y012491D01*
X036775Y012541D01*
X036205Y012541D01*
X036205Y012696D01*
X036050Y012696D01*
X036050Y012541D01*
X036205Y012541D01*
X036205Y011970D01*
X036205Y012210D02*
X036050Y012210D01*
X036050Y012369D02*
X036205Y012369D01*
X036205Y012527D02*
X036050Y012527D01*
X036050Y012686D02*
X027345Y012686D01*
X027344Y011893D02*
X038990Y011893D01*
X038990Y011735D02*
X027344Y011735D01*
X027344Y011576D02*
X038990Y011576D01*
X038990Y011418D02*
X027344Y011418D01*
X027344Y011259D02*
X038990Y011259D01*
X038990Y011101D02*
X027344Y011101D01*
X027344Y010942D02*
X038990Y010942D01*
X038990Y010784D02*
X027344Y010784D01*
X027344Y010625D02*
X038990Y010625D01*
X038990Y010467D02*
X027344Y010467D01*
X027344Y010308D02*
X038990Y010308D01*
X038990Y010150D02*
X027344Y010150D01*
X027344Y009991D02*
X038990Y009991D01*
X038990Y009833D02*
X027344Y009833D01*
X027344Y009674D02*
X038990Y009674D01*
X038990Y009516D02*
X027344Y009516D01*
X027344Y009357D02*
X038990Y009357D01*
X038990Y009199D02*
X027344Y009199D01*
X027344Y009040D02*
X038990Y009040D01*
X038990Y008882D02*
X027344Y008882D01*
X027344Y008723D02*
X038990Y008723D01*
X038990Y008565D02*
X027344Y008565D01*
X028264Y006847D02*
X028223Y006824D01*
X028190Y006790D01*
X028166Y006749D01*
X028154Y006703D01*
X028154Y006253D01*
X028761Y006253D01*
X028761Y006860D01*
X028310Y006860D01*
X028264Y006847D01*
X028221Y006821D02*
X023722Y006821D01*
X023722Y006663D02*
X028154Y006663D01*
X028154Y006504D02*
X023722Y006504D01*
X023722Y006346D02*
X028154Y006346D01*
X028154Y006157D02*
X028154Y005706D01*
X028166Y005660D01*
X028190Y005619D01*
X028223Y005586D01*
X028264Y005562D01*
X028310Y005550D01*
X028761Y005550D01*
X028761Y006157D01*
X028857Y006157D01*
X028857Y006253D01*
X029464Y006253D01*
X029464Y006703D01*
X029451Y006749D01*
X029428Y006790D01*
X029394Y006824D01*
X029353Y006847D01*
X029307Y006860D01*
X028857Y006860D01*
X028857Y006253D01*
X028761Y006253D01*
X028761Y006157D01*
X028154Y006157D01*
X028154Y006029D02*
X023722Y006029D01*
X023722Y006187D02*
X028761Y006187D01*
X028857Y006187D02*
X030729Y006187D01*
X030729Y006157D02*
X030123Y006157D01*
X030133Y006077D01*
X030156Y005994D01*
X030188Y005914D01*
X030231Y005840D01*
X030284Y005772D01*
X030344Y005711D01*
X030412Y005659D01*
X030487Y005616D01*
X030566Y005583D01*
X030649Y005561D01*
X030729Y005550D01*
X030729Y006157D01*
X030729Y006253D01*
X030729Y006859D01*
X030649Y006849D01*
X030566Y006826D01*
X030487Y006793D01*
X030412Y006751D01*
X030344Y006698D01*
X030284Y006638D01*
X030231Y006569D01*
X030188Y006495D01*
X030156Y006416D01*
X030133Y006333D01*
X030123Y006253D01*
X030729Y006253D01*
X030825Y006253D01*
X030825Y006859D01*
X030905Y006849D01*
X030988Y006826D01*
X031067Y006793D01*
X031142Y006751D01*
X031210Y006698D01*
X031271Y006638D01*
X031323Y006569D01*
X031366Y006495D01*
X031399Y006416D01*
X031421Y006333D01*
X031432Y006253D01*
X030825Y006253D01*
X030825Y006157D01*
X031432Y006157D01*
X031421Y006077D01*
X031399Y005994D01*
X031366Y005914D01*
X031323Y005840D01*
X031271Y005772D01*
X031210Y005711D01*
X031142Y005659D01*
X031067Y005616D01*
X030988Y005583D01*
X030905Y005561D01*
X030825Y005550D01*
X030825Y006157D01*
X030729Y006157D01*
X030825Y006187D02*
X032698Y006187D01*
X032698Y006157D02*
X032091Y006157D01*
X032102Y006077D01*
X032124Y005994D01*
X032157Y005914D01*
X032200Y005840D01*
X032252Y005772D01*
X032313Y005711D01*
X032381Y005659D01*
X032455Y005616D01*
X032535Y005583D01*
X032618Y005561D01*
X032698Y005550D01*
X032698Y006157D01*
X032794Y006157D01*
X032794Y006253D01*
X033400Y006253D01*
X033389Y006333D01*
X033367Y006416D01*
X033334Y006495D01*
X033291Y006569D01*
X033239Y006638D01*
X033178Y006698D01*
X033110Y006751D01*
X033036Y006793D01*
X032957Y006826D01*
X032874Y006849D01*
X032794Y006859D01*
X032794Y006253D01*
X032698Y006253D01*
X032698Y006859D01*
X032618Y006849D01*
X032535Y006826D01*
X032455Y006793D01*
X032381Y006751D01*
X032313Y006698D01*
X032252Y006638D01*
X032200Y006569D01*
X032157Y006495D01*
X032124Y006416D01*
X032102Y006333D01*
X032091Y006253D01*
X032698Y006253D01*
X032698Y006157D01*
X032794Y006157D02*
X032794Y005550D01*
X032874Y005561D01*
X032957Y005583D01*
X033036Y005616D01*
X033110Y005659D01*
X033178Y005711D01*
X033239Y005772D01*
X033291Y005840D01*
X033334Y005914D01*
X033367Y005994D01*
X033389Y006077D01*
X033400Y006157D01*
X032794Y006157D01*
X032794Y006187D02*
X034666Y006187D01*
X034666Y006157D02*
X034060Y006157D01*
X034070Y006077D01*
X034093Y005994D01*
X034125Y005914D01*
X034168Y005840D01*
X034221Y005772D01*
X034281Y005711D01*
X034349Y005659D01*
X034424Y005616D01*
X034503Y005583D01*
X034586Y005561D01*
X034666Y005550D01*
X034666Y006157D01*
X034666Y006253D01*
X034666Y006859D01*
X034586Y006849D01*
X034503Y006826D01*
X034424Y006793D01*
X034349Y006751D01*
X034281Y006698D01*
X034221Y006638D01*
X034168Y006569D01*
X034125Y006495D01*
X034093Y006416D01*
X034070Y006333D01*
X034060Y006253D01*
X034666Y006253D01*
X034762Y006253D01*
X034762Y006859D01*
X034842Y006849D01*
X034925Y006826D01*
X035004Y006793D01*
X035079Y006751D01*
X035147Y006698D01*
X035208Y006638D01*
X035260Y006569D01*
X035303Y006495D01*
X035336Y006416D01*
X035358Y006333D01*
X035369Y006253D01*
X034762Y006253D01*
X034762Y006157D01*
X035369Y006157D01*
X035358Y006077D01*
X035336Y005994D01*
X035303Y005914D01*
X035260Y005840D01*
X035208Y005772D01*
X035147Y005711D01*
X035079Y005659D01*
X035004Y005616D01*
X034925Y005583D01*
X034842Y005561D01*
X034762Y005550D01*
X034762Y006157D01*
X034666Y006157D01*
X034762Y006187D02*
X038990Y006187D01*
X038990Y006029D02*
X035345Y006029D01*
X035277Y005870D02*
X038990Y005870D01*
X038990Y005712D02*
X035148Y005712D01*
X034762Y005712D02*
X034666Y005712D01*
X034666Y005870D02*
X034762Y005870D01*
X034762Y006029D02*
X034666Y006029D01*
X034666Y006346D02*
X034762Y006346D01*
X034762Y006504D02*
X034666Y006504D01*
X034666Y006663D02*
X034762Y006663D01*
X034762Y006821D02*
X034666Y006821D01*
X034491Y006821D02*
X032969Y006821D01*
X032794Y006821D02*
X032698Y006821D01*
X032698Y006663D02*
X032794Y006663D01*
X032794Y006504D02*
X032698Y006504D01*
X032698Y006346D02*
X032794Y006346D01*
X032794Y006029D02*
X032698Y006029D01*
X032698Y005870D02*
X032794Y005870D01*
X032794Y005712D02*
X032698Y005712D01*
X032698Y005553D02*
X032794Y005553D01*
X032816Y005553D02*
X034644Y005553D01*
X034666Y005553D02*
X034762Y005553D01*
X034785Y005553D02*
X038990Y005553D01*
X038990Y005395D02*
X023722Y005395D01*
X023722Y005553D02*
X028296Y005553D01*
X028154Y005712D02*
X023722Y005712D01*
X023722Y005870D02*
X028154Y005870D01*
X028761Y005870D02*
X028857Y005870D01*
X028857Y005712D02*
X028761Y005712D01*
X028761Y005553D02*
X028857Y005553D01*
X028857Y005550D02*
X029307Y005550D01*
X029353Y005562D01*
X029394Y005586D01*
X029428Y005619D01*
X029451Y005660D01*
X029464Y005706D01*
X029464Y006157D01*
X028857Y006157D01*
X028857Y005550D01*
X029321Y005553D02*
X030707Y005553D01*
X030729Y005553D02*
X030825Y005553D01*
X030848Y005553D02*
X032675Y005553D01*
X032312Y005712D02*
X031211Y005712D01*
X031340Y005870D02*
X032182Y005870D01*
X032115Y006029D02*
X031408Y006029D01*
X031417Y006346D02*
X032105Y006346D01*
X032162Y006504D02*
X031361Y006504D01*
X031245Y006663D02*
X032277Y006663D01*
X032523Y006821D02*
X031000Y006821D01*
X030825Y006821D02*
X030729Y006821D01*
X030729Y006663D02*
X030825Y006663D01*
X030825Y006504D02*
X030729Y006504D01*
X030729Y006346D02*
X030825Y006346D01*
X030825Y006029D02*
X030729Y006029D01*
X030729Y005870D02*
X030825Y005870D01*
X030825Y005712D02*
X030729Y005712D01*
X030344Y005712D02*
X029464Y005712D01*
X029464Y005870D02*
X030214Y005870D01*
X030146Y006029D02*
X029464Y006029D01*
X029464Y006346D02*
X030137Y006346D01*
X030194Y006504D02*
X029464Y006504D01*
X029464Y006663D02*
X030309Y006663D01*
X030554Y006821D02*
X029397Y006821D01*
X028857Y006821D02*
X028761Y006821D01*
X028761Y006663D02*
X028857Y006663D01*
X028857Y006504D02*
X028761Y006504D01*
X028761Y006346D02*
X028857Y006346D01*
X028857Y006029D02*
X028761Y006029D01*
X027187Y003176D02*
X036788Y003176D01*
X036808Y003196D02*
X036597Y002985D01*
X036449Y002728D01*
X036372Y002440D01*
X036372Y002143D01*
X036449Y001855D01*
X036597Y001598D01*
X036808Y001387D01*
X037065Y001238D01*
X037353Y001161D01*
X037650Y001161D01*
X037938Y001238D01*
X038195Y001387D01*
X038406Y001598D01*
X038555Y001855D01*
X038632Y002143D01*
X038632Y002440D01*
X038555Y002728D01*
X038406Y002985D01*
X038195Y003196D01*
X037938Y003344D01*
X037650Y003421D01*
X037353Y003421D01*
X037065Y003344D01*
X036808Y003196D01*
X036630Y003017D02*
X027187Y003017D01*
X027187Y002859D02*
X036524Y002859D01*
X036441Y002700D02*
X027187Y002700D01*
X027187Y002542D02*
X028055Y002542D01*
X028060Y002560D02*
X028047Y002514D01*
X028047Y002064D01*
X028654Y002064D01*
X028654Y001968D01*
X028047Y001968D01*
X028047Y001517D01*
X028060Y001471D01*
X028083Y001430D01*
X028117Y001397D01*
X028158Y001373D01*
X028204Y001361D01*
X028654Y001361D01*
X028654Y001968D01*
X028750Y001968D01*
X028750Y001361D01*
X029201Y001361D01*
X029247Y001373D01*
X029288Y001397D01*
X029321Y001430D01*
X029345Y001471D01*
X029357Y001517D01*
X029357Y001968D01*
X028750Y001968D01*
X028750Y002064D01*
X028654Y002064D01*
X028654Y002671D01*
X028204Y002671D01*
X028158Y002658D01*
X028117Y002635D01*
X028083Y002601D01*
X028060Y002560D01*
X028047Y002383D02*
X027187Y002383D01*
X027187Y002225D02*
X028047Y002225D01*
X028047Y002066D02*
X027187Y002066D01*
X027187Y001908D02*
X028047Y001908D01*
X028047Y001749D02*
X027187Y001749D01*
X027187Y001591D02*
X028047Y001591D01*
X028082Y001432D02*
X027187Y001432D01*
X027187Y001274D02*
X037004Y001274D01*
X036763Y001432D02*
X034907Y001432D01*
X034898Y001427D02*
X034973Y001470D01*
X035041Y001522D01*
X035101Y001583D01*
X035154Y001651D01*
X035197Y001725D01*
X035229Y001805D01*
X035252Y001888D01*
X035262Y001968D01*
X034656Y001968D01*
X034656Y002064D01*
X034560Y002064D01*
X034560Y002670D01*
X034480Y002660D01*
X034397Y002637D01*
X034318Y002604D01*
X034243Y002562D01*
X034175Y002509D01*
X034114Y002449D01*
X034062Y002380D01*
X034019Y002306D01*
X033986Y002227D01*
X033964Y002144D01*
X033954Y002064D01*
X034560Y002064D01*
X034560Y001968D01*
X033954Y001968D01*
X033964Y001888D01*
X033986Y001805D01*
X034019Y001725D01*
X034062Y001651D01*
X034114Y001583D01*
X034175Y001522D01*
X034243Y001470D01*
X034318Y001427D01*
X034397Y001394D01*
X034480Y001372D01*
X034560Y001361D01*
X034560Y001968D01*
X034656Y001968D01*
X034656Y001361D01*
X034736Y001372D01*
X034819Y001394D01*
X034898Y001427D01*
X034656Y001432D02*
X034560Y001432D01*
X034560Y001591D02*
X034656Y001591D01*
X034656Y001749D02*
X034560Y001749D01*
X034560Y001908D02*
X034656Y001908D01*
X034656Y002064D02*
X035262Y002064D01*
X035252Y002144D01*
X035229Y002227D01*
X035197Y002306D01*
X035154Y002380D01*
X035101Y002449D01*
X035041Y002509D01*
X034973Y002562D01*
X034898Y002604D01*
X034819Y002637D01*
X034736Y002660D01*
X034656Y002670D01*
X034656Y002064D01*
X034656Y002066D02*
X034560Y002066D01*
X034560Y002225D02*
X034656Y002225D01*
X034656Y002383D02*
X034560Y002383D01*
X034560Y002542D02*
X034656Y002542D01*
X034998Y002542D02*
X036399Y002542D01*
X036372Y002383D02*
X035151Y002383D01*
X035230Y002225D02*
X036372Y002225D01*
X036392Y002066D02*
X035262Y002066D01*
X035254Y001908D02*
X036434Y001908D01*
X036510Y001749D02*
X035206Y001749D01*
X035107Y001591D02*
X036604Y001591D01*
X037999Y001274D02*
X038990Y001274D01*
X038990Y001432D02*
X038241Y001432D01*
X038399Y001591D02*
X038990Y001591D01*
X038990Y001749D02*
X038493Y001749D01*
X038569Y001908D02*
X038990Y001908D01*
X038990Y002066D02*
X038611Y002066D01*
X038632Y002225D02*
X038990Y002225D01*
X038990Y002383D02*
X038632Y002383D01*
X038604Y002542D02*
X038990Y002542D01*
X038990Y002700D02*
X038562Y002700D01*
X038479Y002859D02*
X038990Y002859D01*
X038990Y003017D02*
X038374Y003017D01*
X038215Y003176D02*
X038990Y003176D01*
X038990Y003334D02*
X037955Y003334D01*
X037048Y003334D02*
X025436Y003334D01*
X025521Y003493D02*
X038990Y003493D01*
X038990Y003651D02*
X024736Y003651D01*
X024676Y003651D02*
X023722Y003651D01*
X023722Y003493D02*
X023890Y003493D01*
X023975Y003334D02*
X023722Y003334D01*
X023722Y003176D02*
X024186Y003176D01*
X023891Y003810D02*
X023722Y003810D01*
X023722Y003968D02*
X023976Y003968D01*
X024191Y004127D02*
X023722Y004127D01*
X023722Y004285D02*
X038990Y004285D01*
X038990Y004127D02*
X025220Y004127D01*
X025435Y003968D02*
X038990Y003968D01*
X038990Y003810D02*
X025520Y003810D01*
X024736Y003810D02*
X024676Y003810D01*
X024676Y003968D02*
X024736Y003968D01*
X024736Y004127D02*
X024676Y004127D01*
X023722Y004444D02*
X038990Y004444D01*
X038990Y004602D02*
X023722Y004602D01*
X023722Y004761D02*
X038990Y004761D01*
X038990Y004919D02*
X023722Y004919D01*
X023722Y005078D02*
X038990Y005078D01*
X038990Y005236D02*
X023722Y005236D01*
X023722Y006980D02*
X038990Y006980D01*
X038990Y007138D02*
X023722Y007138D01*
X023722Y007297D02*
X038990Y007297D01*
X038990Y007455D02*
X023722Y007455D01*
X023722Y007614D02*
X038990Y007614D01*
X038990Y007772D02*
X023722Y007772D01*
X023722Y007931D02*
X038990Y007931D01*
X038990Y008089D02*
X023722Y008089D01*
X023722Y008248D02*
X038990Y008248D01*
X038990Y008406D02*
X023722Y008406D01*
X028750Y002671D02*
X029201Y002671D01*
X029247Y002658D01*
X029288Y002635D01*
X029321Y002601D01*
X029345Y002560D01*
X029357Y002514D01*
X029357Y002064D01*
X028750Y002064D01*
X028750Y002671D01*
X028750Y002542D02*
X028654Y002542D01*
X028654Y002383D02*
X028750Y002383D01*
X028750Y002225D02*
X028654Y002225D01*
X028654Y002066D02*
X028750Y002066D01*
X028750Y001908D02*
X028654Y001908D01*
X028654Y001749D02*
X028750Y001749D01*
X028750Y001591D02*
X028654Y001591D01*
X028654Y001432D02*
X028750Y001432D01*
X029323Y001432D02*
X030371Y001432D01*
X030381Y001427D02*
X030460Y001394D01*
X030543Y001372D01*
X030623Y001361D01*
X030623Y001968D01*
X030017Y001968D01*
X030027Y001888D01*
X030049Y001805D01*
X030082Y001725D01*
X030125Y001651D01*
X030177Y001583D01*
X030238Y001522D01*
X030306Y001470D01*
X030381Y001427D01*
X030623Y001432D02*
X030719Y001432D01*
X030719Y001361D02*
X030799Y001372D01*
X030882Y001394D01*
X030961Y001427D01*
X031036Y001470D01*
X031104Y001522D01*
X031164Y001583D01*
X031217Y001651D01*
X031260Y001725D01*
X031292Y001805D01*
X031315Y001888D01*
X031325Y001968D01*
X030719Y001968D01*
X030719Y002064D01*
X030623Y002064D01*
X030623Y002670D01*
X030543Y002660D01*
X030460Y002637D01*
X030381Y002604D01*
X030306Y002562D01*
X030238Y002509D01*
X030177Y002449D01*
X030125Y002380D01*
X030082Y002306D01*
X030049Y002227D01*
X030027Y002144D01*
X030017Y002064D01*
X030623Y002064D01*
X030623Y001968D01*
X030719Y001968D01*
X030719Y001361D01*
X030719Y001591D02*
X030623Y001591D01*
X030623Y001749D02*
X030719Y001749D01*
X030719Y001908D02*
X030623Y001908D01*
X030623Y002066D02*
X030719Y002066D01*
X030719Y002064D02*
X030719Y002670D01*
X030799Y002660D01*
X030882Y002637D01*
X030961Y002604D01*
X031036Y002562D01*
X031104Y002509D01*
X031164Y002449D01*
X031217Y002380D01*
X031260Y002306D01*
X031292Y002227D01*
X031315Y002144D01*
X031325Y002064D01*
X030719Y002064D01*
X030719Y002225D02*
X030623Y002225D01*
X030623Y002383D02*
X030719Y002383D01*
X030719Y002542D02*
X030623Y002542D01*
X030281Y002542D02*
X029350Y002542D01*
X029357Y002383D02*
X030127Y002383D01*
X030049Y002225D02*
X029357Y002225D01*
X029357Y002066D02*
X030017Y002066D01*
X030024Y001908D02*
X029357Y001908D01*
X029357Y001749D02*
X030072Y001749D01*
X030171Y001591D02*
X029357Y001591D01*
X030970Y001432D02*
X032340Y001432D01*
X032349Y001427D02*
X032428Y001394D01*
X032511Y001372D01*
X032591Y001361D01*
X032591Y001968D01*
X031985Y001968D01*
X031996Y001888D01*
X032018Y001805D01*
X032051Y001725D01*
X032094Y001651D01*
X032146Y001583D01*
X032207Y001522D01*
X032275Y001470D01*
X032349Y001427D01*
X032591Y001432D02*
X032687Y001432D01*
X032687Y001361D02*
X032767Y001372D01*
X032850Y001394D01*
X032930Y001427D01*
X033004Y001470D01*
X033072Y001522D01*
X033133Y001583D01*
X033185Y001651D01*
X033228Y001725D01*
X033261Y001805D01*
X033283Y001888D01*
X033294Y001968D01*
X032687Y001968D01*
X032687Y001361D01*
X032687Y001591D02*
X032591Y001591D01*
X032591Y001749D02*
X032687Y001749D01*
X032687Y001908D02*
X032591Y001908D01*
X032591Y001968D02*
X032687Y001968D01*
X032687Y002064D01*
X032591Y002064D01*
X032591Y001968D01*
X032591Y002064D02*
X031985Y002064D01*
X031996Y002144D01*
X032018Y002227D01*
X032051Y002306D01*
X032094Y002380D01*
X032146Y002449D01*
X032207Y002509D01*
X032275Y002562D01*
X032349Y002604D01*
X032428Y002637D01*
X032511Y002660D01*
X032591Y002670D01*
X032591Y002064D01*
X032591Y002066D02*
X032687Y002066D01*
X032687Y002064D02*
X032687Y002670D01*
X032767Y002660D01*
X032850Y002637D01*
X032930Y002604D01*
X033004Y002562D01*
X033072Y002509D01*
X033133Y002449D01*
X033185Y002380D01*
X033228Y002306D01*
X033261Y002227D01*
X033283Y002144D01*
X033294Y002064D01*
X032687Y002064D01*
X032687Y002225D02*
X032591Y002225D01*
X032591Y002383D02*
X032687Y002383D01*
X032687Y002542D02*
X032591Y002542D01*
X032249Y002542D02*
X031061Y002542D01*
X031214Y002383D02*
X032096Y002383D01*
X032017Y002225D02*
X031293Y002225D01*
X031325Y002066D02*
X031985Y002066D01*
X031993Y001908D02*
X031317Y001908D01*
X031269Y001749D02*
X032041Y001749D01*
X032140Y001591D02*
X031170Y001591D01*
X032939Y001432D02*
X034308Y001432D01*
X034108Y001591D02*
X033139Y001591D01*
X033238Y001749D02*
X034009Y001749D01*
X033961Y001908D02*
X033286Y001908D01*
X033293Y002066D02*
X033954Y002066D01*
X033986Y002225D02*
X033261Y002225D01*
X033183Y002383D02*
X034064Y002383D01*
X034218Y002542D02*
X033030Y002542D01*
X033179Y005712D02*
X034281Y005712D01*
X034151Y005870D02*
X033309Y005870D01*
X033377Y006029D02*
X034083Y006029D01*
X034074Y006346D02*
X033386Y006346D01*
X033329Y006504D02*
X034131Y006504D01*
X034246Y006663D02*
X033214Y006663D01*
X034937Y006821D02*
X038990Y006821D01*
X038990Y006663D02*
X035182Y006663D01*
X035298Y006504D02*
X038990Y006504D01*
X038990Y006346D02*
X035354Y006346D01*
X038990Y001115D02*
X027187Y001115D01*
X027187Y000957D02*
X038990Y000957D01*
X038990Y012052D02*
X036452Y012052D01*
X036637Y012210D02*
X038990Y012210D01*
X038990Y012369D02*
X036731Y012369D01*
X036774Y012527D02*
X038990Y012527D01*
X038990Y012686D02*
X036205Y012686D01*
X036205Y012696D02*
X036775Y012696D01*
X036769Y012746D01*
X036747Y012828D01*
X036714Y012907D01*
X036671Y012981D01*
X036619Y013049D01*
X036559Y013110D01*
X036491Y013162D01*
X036417Y013205D01*
X036338Y013237D01*
X036255Y013259D01*
X036205Y013266D01*
X036205Y012696D01*
X036205Y012844D02*
X036050Y012844D01*
X036050Y013003D02*
X036205Y013003D01*
X036205Y013161D02*
X036050Y013161D01*
X036491Y013161D02*
X038990Y013161D01*
X038990Y013003D02*
X036655Y013003D01*
X036740Y012844D02*
X038990Y012844D01*
X038990Y015856D02*
X036532Y015856D01*
X036677Y016014D02*
X038990Y016014D01*
X038990Y021720D02*
X025376Y021720D01*
X025376Y021562D02*
X027895Y021562D01*
X027895Y021403D02*
X025376Y021403D01*
X025376Y021245D02*
X027895Y021245D01*
X027895Y021086D02*
X027504Y021086D01*
X027341Y021086D02*
X027181Y021086D01*
X027181Y021121D02*
X027115Y021112D01*
X027020Y021087D01*
X026929Y021049D01*
X026843Y021000D01*
X026765Y020940D01*
X026696Y020870D01*
X026636Y020792D01*
X026587Y020707D01*
X026549Y020616D01*
X026523Y020521D01*
X026515Y020454D01*
X027181Y020454D01*
X027181Y021121D01*
X027019Y021086D02*
X025850Y021086D01*
X025688Y021086D02*
X025528Y021086D01*
X025528Y020928D02*
X025688Y020928D01*
X025688Y020769D02*
X025528Y020769D01*
X025528Y020611D02*
X025688Y020611D01*
X025688Y020452D02*
X027181Y020452D01*
X027181Y020611D02*
X027341Y020611D01*
X027341Y020769D02*
X027181Y020769D01*
X027181Y020928D02*
X027341Y020928D01*
X027769Y020928D02*
X027895Y020928D01*
X026753Y020928D02*
X026116Y020928D01*
X026247Y020769D02*
X026623Y020769D01*
X026548Y020611D02*
X026322Y020611D01*
X026355Y020294D02*
X026515Y020294D01*
X026548Y020135D02*
X026321Y020135D01*
X025376Y021879D02*
X038990Y021879D01*
X038990Y022037D02*
X025376Y022037D01*
X025376Y022196D02*
X038990Y022196D01*
X038990Y022354D02*
X025376Y022354D01*
X025376Y022513D02*
X038990Y022513D01*
X038990Y022671D02*
X025376Y022671D01*
X025376Y022830D02*
X038990Y022830D01*
X038990Y022988D02*
X025376Y022988D01*
X025376Y024732D02*
X038990Y024732D01*
X038990Y024890D02*
X025376Y024890D01*
X025376Y025049D02*
X038990Y025049D01*
X038990Y025207D02*
X025376Y025207D01*
X025376Y025366D02*
X038990Y025366D01*
X038990Y025524D02*
X025376Y025524D01*
X025376Y025683D02*
X038990Y025683D01*
X038990Y025841D02*
X025376Y025841D01*
X025376Y026000D02*
X038990Y026000D01*
X038990Y026158D02*
X025376Y026158D01*
X025376Y026317D02*
X038990Y026317D01*
X038990Y026475D02*
X025376Y026475D01*
X025376Y026634D02*
X038990Y026634D01*
X038990Y026792D02*
X029076Y026792D01*
X029076Y026951D02*
X038990Y026951D01*
X038990Y027109D02*
X029076Y027109D01*
X029076Y027268D02*
X038990Y027268D01*
X038990Y027426D02*
X037864Y027426D01*
X037861Y027416D02*
X037873Y027462D01*
X037873Y027913D01*
X037266Y027913D01*
X037266Y028009D01*
X037170Y028009D01*
X037170Y028616D01*
X036719Y028616D01*
X036674Y028603D01*
X036633Y028580D01*
X036599Y028546D01*
X036575Y028505D01*
X036563Y028459D01*
X036563Y028009D01*
X037170Y028009D01*
X037170Y027913D01*
X036563Y027913D01*
X036563Y027462D01*
X036575Y027416D01*
X036599Y027375D01*
X036633Y027342D01*
X036674Y027318D01*
X036719Y027306D01*
X037170Y027306D01*
X037170Y027913D01*
X037266Y027913D01*
X037266Y027306D01*
X037717Y027306D01*
X037763Y027318D01*
X037804Y027342D01*
X037837Y027375D01*
X037861Y027416D01*
X037873Y027585D02*
X038990Y027585D01*
X038990Y027743D02*
X037873Y027743D01*
X037873Y027902D02*
X038990Y027902D01*
X038990Y028060D02*
X037873Y028060D01*
X037873Y028009D02*
X037873Y028459D01*
X037861Y028505D01*
X037837Y028546D01*
X037804Y028580D01*
X037763Y028603D01*
X037717Y028616D01*
X037266Y028616D01*
X037266Y028009D01*
X037873Y028009D01*
X037873Y028219D02*
X038990Y028219D01*
X038990Y028377D02*
X037873Y028377D01*
X037843Y028536D02*
X038990Y028536D01*
X038990Y028694D02*
X029076Y028694D01*
X029076Y028536D02*
X030999Y028536D01*
X031022Y028549D02*
X030948Y028506D01*
X030880Y028454D01*
X030819Y028393D01*
X030767Y028325D01*
X030724Y028251D01*
X030691Y028172D01*
X030669Y028089D01*
X030658Y028009D01*
X031265Y028009D01*
X031265Y028615D01*
X031185Y028604D01*
X031102Y028582D01*
X031022Y028549D01*
X031265Y028536D02*
X031361Y028536D01*
X031361Y028615D02*
X031441Y028604D01*
X031524Y028582D01*
X031603Y028549D01*
X031677Y028506D01*
X031745Y028454D01*
X031806Y028393D01*
X031858Y028325D01*
X031901Y028251D01*
X031934Y028172D01*
X031956Y028089D01*
X031967Y028009D01*
X031361Y028009D01*
X031361Y027913D01*
X031967Y027913D01*
X031956Y027833D01*
X031934Y027750D01*
X031901Y027670D01*
X031858Y027596D01*
X031806Y027528D01*
X031745Y027467D01*
X031677Y027415D01*
X031603Y027372D01*
X031524Y027339D01*
X031441Y027317D01*
X031361Y027306D01*
X031361Y027913D01*
X031265Y027913D01*
X031265Y027306D01*
X031185Y027317D01*
X031102Y027339D01*
X031022Y027372D01*
X030948Y027415D01*
X030880Y027467D01*
X030819Y027528D01*
X030767Y027596D01*
X030724Y027670D01*
X030691Y027750D01*
X030669Y027833D01*
X030658Y027913D01*
X031265Y027913D01*
X031265Y028009D01*
X031361Y028009D01*
X031361Y028615D01*
X031361Y028377D02*
X031265Y028377D01*
X031265Y028219D02*
X031361Y028219D01*
X031361Y028060D02*
X031265Y028060D01*
X031265Y027902D02*
X031361Y027902D01*
X031361Y027743D02*
X031265Y027743D01*
X031265Y027585D02*
X031361Y027585D01*
X031361Y027426D02*
X031265Y027426D01*
X030933Y027426D02*
X029076Y027426D01*
X029076Y027585D02*
X030775Y027585D01*
X030694Y027743D02*
X029076Y027743D01*
X029076Y027902D02*
X030660Y027902D01*
X030665Y028060D02*
X029076Y028060D01*
X029076Y028219D02*
X030711Y028219D01*
X030807Y028377D02*
X029076Y028377D01*
X029076Y028853D02*
X038990Y028853D01*
X038990Y029011D02*
X029076Y029011D01*
X029076Y029170D02*
X038990Y029170D01*
X038990Y029328D02*
X029076Y029328D01*
X029076Y029487D02*
X038990Y029487D01*
X038990Y029645D02*
X029076Y029645D01*
X029076Y029804D02*
X038990Y029804D01*
X038990Y029962D02*
X029076Y029962D01*
X029076Y030121D02*
X038990Y030121D01*
X038990Y030279D02*
X029076Y030279D01*
X029076Y030438D02*
X038990Y030438D01*
X038990Y030596D02*
X029076Y030596D01*
X029076Y030755D02*
X038990Y030755D01*
X038990Y030913D02*
X029076Y030913D01*
X029076Y031072D02*
X038990Y031072D01*
X038990Y031230D02*
X029076Y031230D01*
X029076Y031389D02*
X030859Y031389D01*
X030844Y031400D02*
X030912Y031348D01*
X030987Y031305D01*
X031066Y031272D01*
X031149Y031250D01*
X031229Y031239D01*
X031229Y031846D01*
X030623Y031846D01*
X030633Y031766D01*
X030656Y031683D01*
X030688Y031603D01*
X030731Y031529D01*
X030784Y031461D01*
X030844Y031400D01*
X030721Y031547D02*
X029076Y031547D01*
X029076Y031706D02*
X030649Y031706D01*
X030623Y031942D02*
X031229Y031942D01*
X031229Y032548D01*
X031149Y032537D01*
X031066Y032515D01*
X030987Y032482D01*
X030912Y032439D01*
X030844Y032387D01*
X030784Y032326D01*
X030731Y032258D01*
X030688Y032184D01*
X030656Y032105D01*
X030633Y032022D01*
X030623Y031942D01*
X030634Y032023D02*
X029076Y032023D01*
X029076Y032181D02*
X030687Y032181D01*
X030797Y032340D02*
X029076Y032340D01*
X029076Y032498D02*
X031025Y032498D01*
X031229Y032498D02*
X031325Y032498D01*
X031325Y032548D02*
X031405Y032537D01*
X031488Y032515D01*
X031567Y032482D01*
X031642Y032439D01*
X031710Y032387D01*
X031771Y032326D01*
X031823Y032258D01*
X031866Y032184D01*
X031899Y032105D01*
X031921Y032022D01*
X031932Y031942D01*
X031325Y031942D01*
X031229Y031942D01*
X031229Y031846D01*
X031325Y031846D01*
X031325Y031942D01*
X031325Y032548D01*
X031325Y032340D02*
X031229Y032340D01*
X031229Y032181D02*
X031325Y032181D01*
X031325Y032023D02*
X031229Y032023D01*
X031229Y031864D02*
X029076Y031864D01*
X029076Y032657D02*
X038990Y032657D01*
X038990Y032815D02*
X029076Y032815D01*
X029076Y032974D02*
X038990Y032974D01*
X038990Y033132D02*
X029076Y033132D01*
X029076Y033291D02*
X038990Y033291D01*
X038990Y033449D02*
X029076Y033449D01*
X029076Y033608D02*
X038990Y033608D01*
X038990Y033766D02*
X029076Y033766D01*
X029076Y033925D02*
X038990Y033925D01*
X038990Y034083D02*
X029076Y034083D01*
X029076Y034242D02*
X038990Y034242D01*
X038990Y034400D02*
X029076Y034400D01*
X031529Y032498D02*
X032994Y032498D01*
X032955Y032482D02*
X032881Y032439D01*
X032813Y032387D01*
X032752Y032326D01*
X032700Y032258D01*
X032657Y032184D01*
X032624Y032105D01*
X032602Y032022D01*
X032591Y031942D01*
X033198Y031942D01*
X033198Y032548D01*
X033118Y032537D01*
X033035Y032515D01*
X032955Y032482D01*
X032766Y032340D02*
X031757Y032340D01*
X031867Y032181D02*
X032656Y032181D01*
X032602Y032023D02*
X031921Y032023D01*
X031932Y031846D02*
X031325Y031846D01*
X031325Y031239D01*
X031405Y031250D01*
X031488Y031272D01*
X031567Y031305D01*
X031642Y031348D01*
X031710Y031400D01*
X031771Y031461D01*
X031823Y031529D01*
X031866Y031603D01*
X031899Y031683D01*
X031921Y031766D01*
X031932Y031846D01*
X031905Y031706D02*
X032618Y031706D01*
X032624Y031683D02*
X032657Y031603D01*
X032700Y031529D01*
X032752Y031461D01*
X032813Y031400D01*
X032881Y031348D01*
X032955Y031305D01*
X033035Y031272D01*
X033118Y031250D01*
X033198Y031239D01*
X033198Y031846D01*
X033294Y031846D01*
X033294Y031942D01*
X033900Y031942D01*
X033889Y032022D01*
X033867Y032105D01*
X033834Y032184D01*
X033791Y032258D01*
X033739Y032326D01*
X033678Y032387D01*
X033610Y032439D01*
X033536Y032482D01*
X033457Y032515D01*
X033374Y032537D01*
X033294Y032548D01*
X033294Y031942D01*
X033198Y031942D01*
X033198Y031846D01*
X032591Y031846D01*
X032602Y031766D01*
X032624Y031683D01*
X032689Y031547D02*
X031834Y031547D01*
X031695Y031389D02*
X032828Y031389D01*
X033198Y031389D02*
X033294Y031389D01*
X033294Y031239D02*
X033374Y031250D01*
X033457Y031272D01*
X033536Y031305D01*
X033610Y031348D01*
X033678Y031400D01*
X033739Y031461D01*
X033791Y031529D01*
X033834Y031603D01*
X033867Y031683D01*
X033889Y031766D01*
X033900Y031846D01*
X033294Y031846D01*
X033294Y031239D01*
X033294Y031547D02*
X033198Y031547D01*
X033198Y031706D02*
X033294Y031706D01*
X033294Y031864D02*
X035166Y031864D01*
X035166Y031846D02*
X034560Y031846D01*
X034570Y031766D01*
X034593Y031683D01*
X034625Y031603D01*
X034668Y031529D01*
X034721Y031461D01*
X034781Y031400D01*
X034849Y031348D01*
X034924Y031305D01*
X035003Y031272D01*
X035086Y031250D01*
X035166Y031239D01*
X035166Y031846D01*
X035166Y031942D01*
X035166Y032548D01*
X035086Y032537D01*
X035003Y032515D01*
X034924Y032482D01*
X034849Y032439D01*
X034781Y032387D01*
X034721Y032326D01*
X034668Y032258D01*
X034625Y032184D01*
X034593Y032105D01*
X034570Y032022D01*
X034560Y031942D01*
X035166Y031942D01*
X035262Y031942D01*
X035262Y032548D01*
X035342Y032537D01*
X035425Y032515D01*
X035504Y032482D01*
X035579Y032439D01*
X035647Y032387D01*
X035708Y032326D01*
X035760Y032258D01*
X035803Y032184D01*
X035836Y032105D01*
X035858Y032022D01*
X035869Y031942D01*
X035262Y031942D01*
X035262Y031846D01*
X035869Y031846D01*
X035858Y031766D01*
X035836Y031683D01*
X035803Y031603D01*
X035760Y031529D01*
X035708Y031461D01*
X035647Y031400D01*
X035579Y031348D01*
X035504Y031305D01*
X035425Y031272D01*
X035342Y031250D01*
X035262Y031239D01*
X035262Y031846D01*
X035166Y031846D01*
X035262Y031864D02*
X037135Y031864D01*
X037135Y031846D02*
X036528Y031846D01*
X036528Y031395D01*
X036540Y031349D01*
X036564Y031308D01*
X036597Y031275D01*
X036638Y031251D01*
X036684Y031239D01*
X037135Y031239D01*
X037135Y031846D01*
X037231Y031846D01*
X037231Y031942D01*
X037135Y031942D01*
X037135Y032549D01*
X036684Y032549D01*
X036638Y032536D01*
X036597Y032513D01*
X036564Y032479D01*
X036540Y032438D01*
X036528Y032392D01*
X036528Y031942D01*
X037135Y031942D01*
X037135Y031846D01*
X037231Y031846D02*
X037231Y031239D01*
X037681Y031239D01*
X037727Y031251D01*
X037768Y031275D01*
X037802Y031308D01*
X037825Y031349D01*
X037838Y031395D01*
X037838Y031846D01*
X037231Y031846D01*
X037231Y031864D02*
X038990Y031864D01*
X038990Y031706D02*
X037838Y031706D01*
X037838Y031547D02*
X038990Y031547D01*
X038990Y031389D02*
X037836Y031389D01*
X037838Y031942D02*
X037231Y031942D01*
X037231Y032549D01*
X037681Y032549D01*
X037727Y032536D01*
X037768Y032513D01*
X037802Y032479D01*
X037825Y032438D01*
X037838Y032392D01*
X037838Y031942D01*
X037838Y032023D02*
X038990Y032023D01*
X038990Y032181D02*
X037838Y032181D01*
X037838Y032340D02*
X038990Y032340D01*
X038990Y032498D02*
X037783Y032498D01*
X037231Y032498D02*
X037135Y032498D01*
X037135Y032340D02*
X037231Y032340D01*
X037231Y032181D02*
X037135Y032181D01*
X037135Y032023D02*
X037231Y032023D01*
X037231Y031706D02*
X037135Y031706D01*
X037135Y031547D02*
X037231Y031547D01*
X037231Y031389D02*
X037135Y031389D01*
X036529Y031389D02*
X035632Y031389D01*
X035771Y031547D02*
X036528Y031547D01*
X036528Y031706D02*
X035842Y031706D01*
X035858Y032023D02*
X036528Y032023D01*
X036528Y032181D02*
X035804Y032181D01*
X035694Y032340D02*
X036528Y032340D01*
X036583Y032498D02*
X035466Y032498D01*
X035262Y032498D02*
X035166Y032498D01*
X035166Y032340D02*
X035262Y032340D01*
X035262Y032181D02*
X035166Y032181D01*
X035166Y032023D02*
X035262Y032023D01*
X035262Y031706D02*
X035166Y031706D01*
X035166Y031547D02*
X035262Y031547D01*
X035262Y031389D02*
X035166Y031389D01*
X034796Y031389D02*
X033664Y031389D01*
X033802Y031547D02*
X034658Y031547D01*
X034586Y031706D02*
X033873Y031706D01*
X033889Y032023D02*
X034571Y032023D01*
X034624Y032181D02*
X033835Y032181D01*
X033726Y032340D02*
X034734Y032340D01*
X034962Y032498D02*
X033497Y032498D01*
X033294Y032498D02*
X033198Y032498D01*
X033198Y032340D02*
X033294Y032340D01*
X033294Y032181D02*
X033198Y032181D01*
X033198Y032023D02*
X033294Y032023D01*
X033198Y031864D02*
X031325Y031864D01*
X031325Y031706D02*
X031229Y031706D01*
X031229Y031547D02*
X031325Y031547D01*
X031325Y031389D02*
X031229Y031389D01*
X031626Y028536D02*
X032967Y028536D01*
X032991Y028549D02*
X032916Y028506D01*
X032848Y028454D01*
X032788Y028393D01*
X032735Y028325D01*
X032692Y028251D01*
X032660Y028172D01*
X032637Y028089D01*
X032627Y028009D01*
X033233Y028009D01*
X033233Y028615D01*
X033153Y028604D01*
X033070Y028582D01*
X032991Y028549D01*
X033233Y028536D02*
X033329Y028536D01*
X033329Y028615D02*
X033409Y028604D01*
X033492Y028582D01*
X033571Y028549D01*
X033646Y028506D01*
X033714Y028454D01*
X033775Y028393D01*
X033827Y028325D01*
X033870Y028251D01*
X033903Y028172D01*
X033925Y028089D01*
X033935Y028009D01*
X033329Y028009D01*
X033233Y028009D01*
X033233Y027913D01*
X032627Y027913D01*
X032637Y027833D01*
X032660Y027750D01*
X032692Y027670D01*
X032735Y027596D01*
X032788Y027528D01*
X032848Y027467D01*
X032916Y027415D01*
X032991Y027372D01*
X033070Y027339D01*
X033153Y027317D01*
X033233Y027306D01*
X033233Y027913D01*
X033329Y027913D01*
X033329Y028009D01*
X033329Y028615D01*
X033329Y028377D02*
X033233Y028377D01*
X033233Y028219D02*
X033329Y028219D01*
X033329Y028060D02*
X033233Y028060D01*
X033233Y027902D02*
X033329Y027902D01*
X033329Y027913D02*
X033329Y027306D01*
X033409Y027317D01*
X033492Y027339D01*
X033571Y027372D01*
X033646Y027415D01*
X033714Y027467D01*
X033775Y027528D01*
X033827Y027596D01*
X033870Y027670D01*
X033903Y027750D01*
X033925Y027833D01*
X033935Y027913D01*
X033329Y027913D01*
X033329Y027743D02*
X033233Y027743D01*
X033233Y027585D02*
X033329Y027585D01*
X033329Y027426D02*
X033233Y027426D01*
X032901Y027426D02*
X031692Y027426D01*
X031850Y027585D02*
X032744Y027585D01*
X032662Y027743D02*
X031932Y027743D01*
X031966Y027902D02*
X032628Y027902D01*
X032634Y028060D02*
X031960Y028060D01*
X031915Y028219D02*
X032679Y028219D01*
X032775Y028377D02*
X031818Y028377D01*
X033595Y028536D02*
X034936Y028536D01*
X034959Y028549D02*
X034885Y028506D01*
X034817Y028454D01*
X034756Y028393D01*
X034704Y028325D01*
X034661Y028251D01*
X034628Y028172D01*
X034606Y028089D01*
X034595Y028009D01*
X035202Y028009D01*
X035202Y028615D01*
X035122Y028604D01*
X035039Y028582D01*
X034959Y028549D01*
X035202Y028536D02*
X035298Y028536D01*
X035298Y028615D02*
X035378Y028604D01*
X035461Y028582D01*
X035540Y028549D01*
X035614Y028506D01*
X035682Y028454D01*
X035743Y028393D01*
X035795Y028325D01*
X035838Y028251D01*
X035871Y028172D01*
X035893Y028089D01*
X035904Y028009D01*
X035298Y028009D01*
X035298Y027913D01*
X035904Y027913D01*
X035893Y027833D01*
X035871Y027750D01*
X035838Y027670D01*
X035795Y027596D01*
X035743Y027528D01*
X035682Y027467D01*
X035614Y027415D01*
X035540Y027372D01*
X035461Y027339D01*
X035378Y027317D01*
X035298Y027306D01*
X035298Y027913D01*
X035202Y027913D01*
X035202Y027306D01*
X035122Y027317D01*
X035039Y027339D01*
X034959Y027372D01*
X034885Y027415D01*
X034817Y027467D01*
X034756Y027528D01*
X034704Y027596D01*
X034661Y027670D01*
X034628Y027750D01*
X034606Y027833D01*
X034595Y027913D01*
X035202Y027913D01*
X035202Y028009D01*
X035298Y028009D01*
X035298Y028615D01*
X035298Y028377D02*
X035202Y028377D01*
X035202Y028219D02*
X035298Y028219D01*
X035298Y028060D02*
X035202Y028060D01*
X035202Y027902D02*
X035298Y027902D01*
X035298Y027743D02*
X035202Y027743D01*
X035202Y027585D02*
X035298Y027585D01*
X035298Y027426D02*
X035202Y027426D01*
X034870Y027426D02*
X033661Y027426D01*
X033818Y027585D02*
X034712Y027585D01*
X034631Y027743D02*
X033900Y027743D01*
X033934Y027902D02*
X034597Y027902D01*
X034602Y028060D02*
X033929Y028060D01*
X033883Y028219D02*
X034648Y028219D01*
X034744Y028377D02*
X033787Y028377D01*
X035563Y028536D02*
X036593Y028536D01*
X036563Y028377D02*
X035755Y028377D01*
X035852Y028219D02*
X036563Y028219D01*
X036563Y028060D02*
X035897Y028060D01*
X035903Y027902D02*
X036563Y027902D01*
X036563Y027743D02*
X035869Y027743D01*
X035787Y027585D02*
X036563Y027585D01*
X036573Y027426D02*
X035629Y027426D01*
X037170Y027426D02*
X037266Y027426D01*
X037266Y027585D02*
X037170Y027585D01*
X037170Y027743D02*
X037266Y027743D01*
X037266Y027902D02*
X037170Y027902D01*
X037170Y028060D02*
X037266Y028060D01*
X037266Y028219D02*
X037170Y028219D01*
X037170Y028377D02*
X037266Y028377D01*
X037266Y028536D02*
X037170Y028536D01*
X030275Y019343D02*
X030021Y019343D01*
X030021Y019184D02*
X030046Y019184D01*
D24*
X022301Y020374D02*
X022301Y023028D01*
X022230Y023028D01*
X022230Y024130D02*
X022230Y024201D01*
X020655Y024201D01*
X020655Y023020D02*
X020655Y020374D01*
X020647Y020374D01*
D25*
X014076Y016661D02*
X014076Y012724D01*
X012698Y012724D01*
X012698Y007803D01*
X023131Y007803D01*
X023131Y002685D01*
X023912Y002685D01*
X024179Y002531D01*
X024501Y002445D01*
X024833Y002445D01*
X025155Y002531D01*
X025421Y002685D01*
X026535Y002685D01*
X026675Y002545D01*
X026675Y000913D01*
X000620Y000913D01*
X000620Y034181D01*
X010336Y034181D01*
X010336Y023157D01*
X009155Y023157D01*
X009155Y019465D01*
X009022Y019500D01*
X008729Y019500D01*
X008447Y019425D01*
X008194Y019278D01*
X007987Y019072D01*
X007841Y018818D01*
X007765Y018536D01*
X007765Y018244D01*
X007841Y017961D01*
X007987Y017708D01*
X008194Y017501D01*
X008447Y017355D01*
X008729Y017279D01*
X009022Y017279D01*
X009155Y017315D01*
X009155Y016661D01*
X014076Y016661D01*
X014076Y016541D02*
X000620Y016541D01*
X000620Y016779D02*
X009155Y016779D01*
X009155Y017018D02*
X000620Y017018D01*
X000620Y017256D02*
X009155Y017256D01*
X008205Y017495D02*
X000620Y017495D01*
X000620Y017733D02*
X007972Y017733D01*
X007838Y017972D02*
X000620Y017972D01*
X000620Y018210D02*
X007774Y018210D01*
X007765Y018449D02*
X000620Y018449D01*
X000620Y018687D02*
X007806Y018687D01*
X007903Y018926D02*
X000620Y018926D01*
X000620Y019164D02*
X003066Y019164D01*
X003065Y019165D02*
X003143Y019120D01*
X003227Y019085D01*
X003315Y019062D01*
X003405Y019050D01*
X003413Y019050D01*
X003413Y019705D01*
X002758Y019705D01*
X002758Y019697D01*
X002770Y019607D01*
X002793Y019519D01*
X002828Y019435D01*
X002873Y019357D01*
X002929Y019285D01*
X002993Y019220D01*
X003065Y019165D01*
X002847Y019403D02*
X000620Y019403D01*
X000620Y019641D02*
X002765Y019641D01*
X002758Y019780D02*
X003413Y019780D01*
X003413Y020435D01*
X003405Y020435D01*
X003315Y020423D01*
X003227Y020399D01*
X003143Y020364D01*
X003065Y020319D01*
X002993Y020264D01*
X002929Y020200D01*
X002873Y020128D01*
X002828Y020049D01*
X002793Y019965D01*
X002770Y019878D01*
X002758Y019788D01*
X002758Y019780D01*
X002770Y019880D02*
X000620Y019880D01*
X000620Y020118D02*
X002868Y020118D01*
X003130Y020357D02*
X000620Y020357D01*
X000620Y020595D02*
X009155Y020595D01*
X009155Y020357D02*
X003771Y020357D01*
X003757Y020364D02*
X003673Y020399D01*
X003586Y020423D01*
X003496Y020435D01*
X003488Y020435D01*
X003488Y019780D01*
X003413Y019780D01*
X003413Y019705D01*
X003488Y019705D01*
X003488Y019780D01*
X004143Y019780D01*
X004143Y019788D01*
X004131Y019878D01*
X004107Y019965D01*
X004073Y020049D01*
X004027Y020128D01*
X003972Y020200D01*
X003908Y020264D01*
X003836Y020319D01*
X003757Y020364D01*
X003488Y020357D02*
X003413Y020357D01*
X003413Y020118D02*
X003488Y020118D01*
X003488Y019880D02*
X003413Y019880D01*
X003488Y019705D02*
X004143Y019705D01*
X004143Y019697D01*
X004131Y019607D01*
X004107Y019519D01*
X004073Y019435D01*
X004027Y019357D01*
X003972Y019285D01*
X003908Y019220D01*
X003836Y019165D01*
X003757Y019120D01*
X003673Y019085D01*
X003586Y019062D01*
X003496Y019050D01*
X003488Y019050D01*
X003488Y019705D01*
X003488Y019641D02*
X003413Y019641D01*
X003413Y019403D02*
X003488Y019403D01*
X003488Y019164D02*
X003413Y019164D01*
X003835Y019164D02*
X008080Y019164D01*
X008409Y019403D02*
X004054Y019403D01*
X004136Y019641D02*
X009155Y019641D01*
X009155Y019880D02*
X004130Y019880D01*
X004033Y020118D02*
X009155Y020118D01*
X009155Y020834D02*
X000620Y020834D01*
X000620Y021072D02*
X009155Y021072D01*
X009155Y021311D02*
X000620Y021311D01*
X000620Y021549D02*
X009155Y021549D01*
X009155Y021788D02*
X000620Y021788D01*
X000620Y022026D02*
X009155Y022026D01*
X009155Y022265D02*
X000620Y022265D01*
X000620Y022503D02*
X009155Y022503D01*
X009155Y022742D02*
X003879Y022742D01*
X003858Y022720D02*
X003922Y022785D01*
X003977Y022857D01*
X004023Y022935D01*
X004057Y023019D01*
X004081Y023107D01*
X004093Y023197D01*
X004093Y023205D01*
X003438Y023205D01*
X003438Y023280D01*
X003363Y023280D01*
X003363Y023935D01*
X003355Y023935D01*
X003265Y023923D01*
X003177Y023899D01*
X003093Y023864D01*
X003015Y023819D01*
X002943Y023764D01*
X002879Y023700D01*
X002823Y023628D01*
X002778Y023549D01*
X002743Y023465D01*
X002720Y023378D01*
X002708Y023288D01*
X002708Y023280D01*
X003363Y023280D01*
X003363Y023205D01*
X002708Y023205D01*
X002708Y023197D01*
X002720Y023107D01*
X002743Y023019D01*
X002778Y022935D01*
X002823Y022857D01*
X002879Y022785D01*
X002943Y022720D01*
X003015Y022665D01*
X003093Y022620D01*
X003177Y022585D01*
X003265Y022562D01*
X003355Y022550D01*
X003363Y022550D01*
X003363Y023205D01*
X003438Y023205D01*
X003438Y022550D01*
X003446Y022550D01*
X003536Y022562D01*
X003623Y022585D01*
X003707Y022620D01*
X003786Y022665D01*
X003858Y022720D01*
X004041Y022980D02*
X009155Y022980D01*
X010336Y023219D02*
X003438Y023219D01*
X003438Y023280D02*
X004093Y023280D01*
X004093Y023288D01*
X004081Y023378D01*
X004057Y023465D01*
X004023Y023549D01*
X003977Y023628D01*
X003922Y023700D01*
X003858Y023764D01*
X003786Y023819D01*
X003707Y023864D01*
X003623Y023899D01*
X003536Y023923D01*
X003446Y023935D01*
X003438Y023935D01*
X003438Y023280D01*
X003363Y023219D02*
X000620Y023219D01*
X000620Y023457D02*
X002741Y023457D01*
X002876Y023696D02*
X000620Y023696D01*
X000620Y023934D02*
X003353Y023934D01*
X003363Y023934D02*
X003438Y023934D01*
X003447Y023934D02*
X010336Y023934D01*
X010336Y023696D02*
X003925Y023696D01*
X004060Y023457D02*
X010336Y023457D01*
X010336Y024173D02*
X000620Y024173D01*
X000620Y024411D02*
X010336Y024411D01*
X010336Y024650D02*
X000620Y024650D01*
X000620Y024888D02*
X010336Y024888D01*
X010336Y025127D02*
X000620Y025127D01*
X000620Y025365D02*
X010336Y025365D01*
X010336Y025604D02*
X000620Y025604D01*
X000620Y025842D02*
X010336Y025842D01*
X010336Y026081D02*
X000620Y026081D01*
X000620Y026319D02*
X010336Y026319D01*
X010336Y026558D02*
X000620Y026558D01*
X000620Y026796D02*
X010336Y026796D01*
X010336Y027035D02*
X000620Y027035D01*
X000620Y027273D02*
X002009Y027273D01*
X002007Y027274D02*
X002098Y027262D01*
X002135Y027262D01*
X002135Y027949D01*
X001448Y027949D01*
X001448Y027911D01*
X001460Y027821D01*
X001484Y027733D01*
X001519Y027649D01*
X001564Y027570D01*
X001620Y027497D01*
X001684Y027433D01*
X001756Y027378D01*
X001835Y027332D01*
X001919Y027297D01*
X002007Y027274D01*
X002135Y027273D02*
X002151Y027273D01*
X002151Y027262D02*
X002189Y027262D01*
X002279Y027274D01*
X002367Y027297D01*
X002451Y027332D01*
X002530Y027378D01*
X002603Y027433D01*
X002667Y027497D01*
X002722Y027570D01*
X002768Y027649D01*
X002803Y027733D01*
X002826Y027821D01*
X002838Y027911D01*
X002838Y027949D01*
X002151Y027949D01*
X002151Y027262D01*
X002277Y027273D02*
X003978Y027273D01*
X003976Y027274D02*
X004066Y027262D01*
X004104Y027262D01*
X004104Y027949D01*
X003417Y027949D01*
X003417Y027911D01*
X003429Y027821D01*
X003452Y027733D01*
X003487Y027649D01*
X003533Y027570D01*
X003588Y027497D01*
X003653Y027433D01*
X003725Y027378D01*
X003804Y027332D01*
X003888Y027297D01*
X003976Y027274D01*
X004104Y027273D02*
X004120Y027273D01*
X004120Y027262D02*
X004157Y027262D01*
X004248Y027274D01*
X004336Y027297D01*
X004420Y027332D01*
X004499Y027378D01*
X004571Y027433D01*
X004635Y027497D01*
X004691Y027570D01*
X004736Y027649D01*
X004771Y027733D01*
X004795Y027821D01*
X004807Y027911D01*
X004807Y027949D01*
X004120Y027949D01*
X004120Y027965D01*
X004104Y027965D01*
X004104Y028652D01*
X004066Y028652D01*
X003976Y028640D01*
X003888Y028616D01*
X003804Y028581D01*
X003725Y028536D01*
X003653Y028480D01*
X003588Y028416D01*
X003533Y028344D01*
X003487Y028265D01*
X003452Y028181D01*
X003429Y028093D01*
X003417Y028002D01*
X003417Y027965D01*
X004104Y027965D01*
X004104Y027949D01*
X004120Y027949D01*
X004120Y027262D01*
X004246Y027273D02*
X005946Y027273D01*
X005944Y027274D02*
X006035Y027262D01*
X006072Y027262D01*
X006072Y027949D01*
X005385Y027949D01*
X005385Y027911D01*
X005397Y027821D01*
X005421Y027733D01*
X005456Y027649D01*
X005501Y027570D01*
X005557Y027497D01*
X005621Y027433D01*
X005693Y027378D01*
X005772Y027332D01*
X005856Y027297D01*
X005944Y027274D01*
X006072Y027273D02*
X006088Y027273D01*
X006088Y027262D02*
X006126Y027262D01*
X006216Y027274D01*
X006304Y027297D01*
X006388Y027332D01*
X006467Y027378D01*
X006540Y027433D01*
X006604Y027497D01*
X006659Y027570D01*
X006705Y027649D01*
X006740Y027733D01*
X006763Y027821D01*
X006775Y027911D01*
X006775Y027949D01*
X006088Y027949D01*
X006088Y027262D01*
X006215Y027273D02*
X007501Y027273D01*
X007489Y027277D02*
X007545Y027262D01*
X008041Y027262D01*
X008041Y027949D01*
X007354Y027949D01*
X007354Y027453D01*
X007369Y027397D01*
X007398Y027347D01*
X007439Y027306D01*
X007489Y027277D01*
X007354Y027512D02*
X006615Y027512D01*
X006745Y027750D02*
X007354Y027750D01*
X007354Y027965D02*
X008041Y027965D01*
X008041Y028652D01*
X007545Y028652D01*
X007489Y028637D01*
X007439Y028608D01*
X007398Y028567D01*
X007369Y028517D01*
X007354Y028461D01*
X007354Y027965D01*
X007354Y027989D02*
X006775Y027989D01*
X006775Y028002D02*
X006763Y028093D01*
X006740Y028181D01*
X006705Y028265D01*
X006659Y028344D01*
X006604Y028416D01*
X006540Y028480D01*
X006467Y028536D01*
X006388Y028581D01*
X006304Y028616D01*
X006216Y028640D01*
X006126Y028652D01*
X006088Y028652D01*
X006088Y027965D01*
X006072Y027965D01*
X006072Y028652D01*
X006035Y028652D01*
X005944Y028640D01*
X005856Y028616D01*
X005772Y028581D01*
X005693Y028536D01*
X005621Y028480D01*
X005557Y028416D01*
X005501Y028344D01*
X005456Y028265D01*
X005421Y028181D01*
X005397Y028093D01*
X005385Y028002D01*
X005385Y027965D01*
X006072Y027965D01*
X006072Y027949D01*
X006088Y027949D01*
X006088Y027965D01*
X006775Y027965D01*
X006775Y028002D01*
X006720Y028227D02*
X007354Y028227D01*
X007355Y028466D02*
X006554Y028466D01*
X006088Y028466D02*
X006072Y028466D01*
X006072Y028227D02*
X006088Y028227D01*
X006072Y027989D02*
X006088Y027989D01*
X006072Y027750D02*
X006088Y027750D01*
X006072Y027512D02*
X006088Y027512D01*
X005546Y027512D02*
X004647Y027512D01*
X004776Y027750D02*
X005416Y027750D01*
X005385Y027989D02*
X004807Y027989D01*
X004807Y028002D02*
X004795Y028093D01*
X004771Y028181D01*
X004736Y028265D01*
X004691Y028344D01*
X004635Y028416D01*
X004571Y028480D01*
X004499Y028536D01*
X004420Y028581D01*
X004336Y028616D01*
X004248Y028640D01*
X004157Y028652D01*
X004120Y028652D01*
X004120Y027965D01*
X004807Y027965D01*
X004807Y028002D01*
X004752Y028227D02*
X005440Y028227D01*
X005607Y028466D02*
X004586Y028466D01*
X004120Y028466D02*
X004104Y028466D01*
X004104Y028227D02*
X004120Y028227D01*
X004104Y027989D02*
X004120Y027989D01*
X004104Y027750D02*
X004120Y027750D01*
X004104Y027512D02*
X004120Y027512D01*
X003577Y027512D02*
X002678Y027512D01*
X002808Y027750D02*
X003448Y027750D01*
X003417Y027989D02*
X002838Y027989D01*
X002838Y028002D02*
X002826Y028093D01*
X002803Y028181D01*
X002768Y028265D01*
X002722Y028344D01*
X002667Y028416D01*
X002603Y028480D01*
X002530Y028536D01*
X002451Y028581D01*
X002367Y028616D01*
X002279Y028640D01*
X002189Y028652D01*
X002151Y028652D01*
X002151Y027965D01*
X002135Y027965D01*
X002135Y028652D01*
X002098Y028652D01*
X002007Y028640D01*
X001919Y028616D01*
X001835Y028581D01*
X001756Y028536D01*
X001684Y028480D01*
X001620Y028416D01*
X001564Y028344D01*
X001519Y028265D01*
X001484Y028181D01*
X001460Y028093D01*
X001448Y028002D01*
X001448Y027965D01*
X002135Y027965D01*
X002135Y027949D01*
X002151Y027949D01*
X002151Y027965D01*
X002838Y027965D01*
X002838Y028002D01*
X002783Y028227D02*
X003472Y028227D01*
X003638Y028466D02*
X002617Y028466D01*
X002151Y028466D02*
X002135Y028466D01*
X002135Y028227D02*
X002151Y028227D01*
X002135Y027989D02*
X002151Y027989D01*
X002135Y027750D02*
X002151Y027750D01*
X002135Y027512D02*
X002151Y027512D01*
X001609Y027512D02*
X000620Y027512D01*
X000620Y027750D02*
X001479Y027750D01*
X001448Y027989D02*
X000620Y027989D01*
X000620Y028227D02*
X001503Y028227D01*
X001670Y028466D02*
X000620Y028466D01*
X000620Y028704D02*
X010336Y028704D01*
X010336Y028466D02*
X008742Y028466D01*
X008744Y028461D02*
X008729Y028517D01*
X008700Y028567D01*
X008659Y028608D01*
X008609Y028637D01*
X008553Y028652D01*
X008057Y028652D01*
X008057Y027965D01*
X008041Y027965D01*
X008041Y027949D01*
X008057Y027949D01*
X008057Y027965D01*
X008744Y027965D01*
X008744Y028461D01*
X008744Y028227D02*
X010336Y028227D01*
X010336Y027989D02*
X008744Y027989D01*
X008744Y027949D02*
X008057Y027949D01*
X008057Y027262D01*
X008553Y027262D01*
X008609Y027277D01*
X008659Y027306D01*
X008700Y027347D01*
X008729Y027397D01*
X008744Y027453D01*
X008744Y027949D01*
X008744Y027750D02*
X010336Y027750D01*
X010336Y027512D02*
X008744Y027512D01*
X008596Y027273D02*
X010336Y027273D01*
X010336Y028943D02*
X000620Y028943D01*
X000620Y029181D02*
X010336Y029181D01*
X010336Y029420D02*
X000620Y029420D01*
X000620Y029658D02*
X010336Y029658D01*
X010336Y029897D02*
X000620Y029897D01*
X000620Y030135D02*
X010336Y030135D01*
X010336Y030374D02*
X000620Y030374D01*
X000620Y030612D02*
X010336Y030612D01*
X010336Y030851D02*
X000620Y030851D01*
X000620Y031089D02*
X010336Y031089D01*
X010336Y031328D02*
X008723Y031328D01*
X008728Y031346D02*
X008728Y031842D01*
X008041Y031842D01*
X008041Y031155D01*
X008537Y031155D01*
X008593Y031170D01*
X008643Y031199D01*
X008684Y031240D01*
X008713Y031290D01*
X008728Y031346D01*
X008728Y031566D02*
X010336Y031566D01*
X010336Y031805D02*
X008728Y031805D01*
X008728Y031858D02*
X008728Y032354D01*
X008713Y032410D01*
X008684Y032460D01*
X008643Y032501D01*
X008593Y032530D01*
X008537Y032545D01*
X008041Y032545D01*
X008041Y031858D01*
X008728Y031858D01*
X008728Y032043D02*
X010336Y032043D01*
X010336Y032282D02*
X008728Y032282D01*
X008610Y032520D02*
X010336Y032520D01*
X010336Y032759D02*
X000620Y032759D01*
X000620Y032997D02*
X010336Y032997D01*
X010336Y033236D02*
X000620Y033236D01*
X000620Y033474D02*
X010336Y033474D01*
X010336Y033713D02*
X000620Y033713D01*
X000620Y033951D02*
X010336Y033951D01*
X008041Y032520D02*
X008025Y032520D01*
X008025Y032545D02*
X007529Y032545D01*
X007473Y032530D01*
X007423Y032501D01*
X007382Y032460D01*
X007353Y032410D01*
X007338Y032354D01*
X007338Y031858D01*
X008025Y031858D01*
X008025Y031842D01*
X008041Y031842D01*
X008041Y031858D01*
X008025Y031858D01*
X008025Y032545D01*
X008025Y032282D02*
X008041Y032282D01*
X008025Y032043D02*
X008041Y032043D01*
X008025Y031842D02*
X007338Y031842D01*
X007338Y031346D01*
X007353Y031290D01*
X007382Y031240D01*
X007423Y031199D01*
X007473Y031170D01*
X007529Y031155D01*
X008025Y031155D01*
X008025Y031842D01*
X008025Y031805D02*
X008041Y031805D01*
X008025Y031566D02*
X008041Y031566D01*
X008025Y031328D02*
X008041Y031328D01*
X007343Y031328D02*
X006525Y031328D01*
X006524Y031327D02*
X006588Y031391D01*
X006644Y031463D01*
X006689Y031542D01*
X006724Y031627D01*
X006748Y031715D01*
X006760Y031805D01*
X007338Y031805D01*
X007338Y032043D02*
X006732Y032043D01*
X006724Y032074D02*
X006748Y031986D01*
X006760Y031896D01*
X006760Y031858D01*
X006073Y031858D01*
X006073Y031842D01*
X006760Y031842D01*
X006760Y031805D01*
X006699Y031566D02*
X007338Y031566D01*
X007338Y032282D02*
X006610Y032282D01*
X006588Y032310D02*
X006524Y032374D01*
X006452Y032430D01*
X006373Y032475D01*
X006288Y032510D01*
X006200Y032534D01*
X006110Y032545D01*
X006073Y032545D01*
X006073Y031858D01*
X006057Y031858D01*
X006057Y031842D01*
X006073Y031842D01*
X006073Y031155D01*
X006110Y031155D01*
X006200Y031167D01*
X006288Y031191D01*
X006373Y031226D01*
X006452Y031271D01*
X006524Y031327D01*
X006073Y031328D02*
X006057Y031328D01*
X006057Y031155D02*
X006057Y031842D01*
X005370Y031842D01*
X005370Y031805D01*
X004791Y031805D01*
X004791Y031842D01*
X004104Y031842D01*
X004104Y031155D01*
X004142Y031155D01*
X004232Y031167D01*
X004320Y031191D01*
X004404Y031226D01*
X004483Y031271D01*
X004555Y031327D01*
X004620Y031391D01*
X004675Y031463D01*
X004721Y031542D01*
X004756Y031627D01*
X004779Y031715D01*
X004791Y031805D01*
X004791Y031858D02*
X004791Y031896D01*
X004779Y031986D01*
X004756Y032074D01*
X004721Y032158D01*
X004675Y032237D01*
X004620Y032310D01*
X004555Y032374D01*
X004483Y032430D01*
X004404Y032475D01*
X004320Y032510D01*
X004232Y032534D01*
X004142Y032545D01*
X004104Y032545D01*
X004104Y031858D01*
X004791Y031858D01*
X004764Y032043D02*
X005397Y032043D01*
X005405Y032074D02*
X005381Y031986D01*
X005370Y031896D01*
X005370Y031858D01*
X006057Y031858D01*
X006057Y032545D01*
X006019Y032545D01*
X005929Y032534D01*
X005841Y032510D01*
X005757Y032475D01*
X005678Y032430D01*
X005605Y032374D01*
X005541Y032310D01*
X005485Y032237D01*
X005440Y032158D01*
X005405Y032074D01*
X005520Y032282D02*
X004641Y032282D01*
X004281Y032520D02*
X005880Y032520D01*
X006057Y032520D02*
X006073Y032520D01*
X006249Y032520D02*
X007456Y032520D01*
X006689Y032158D02*
X006644Y032237D01*
X006588Y032310D01*
X006689Y032158D02*
X006724Y032074D01*
X006073Y032043D02*
X006057Y032043D01*
X006057Y031805D02*
X006073Y031805D01*
X006057Y031566D02*
X006073Y031566D01*
X006057Y031155D02*
X006019Y031155D01*
X005929Y031167D01*
X005841Y031191D01*
X005757Y031226D01*
X005678Y031271D01*
X005605Y031327D01*
X005541Y031391D01*
X005485Y031463D01*
X005440Y031542D01*
X005405Y031627D01*
X005381Y031715D01*
X005370Y031805D01*
X005430Y031566D02*
X004731Y031566D01*
X004556Y031328D02*
X005604Y031328D01*
X006057Y032282D02*
X006073Y032282D01*
X004104Y032282D02*
X004088Y032282D01*
X004088Y032520D02*
X004104Y032520D01*
X004088Y032545D02*
X004051Y032545D01*
X003960Y032534D01*
X003872Y032510D01*
X003788Y032475D01*
X003709Y032430D01*
X003637Y032374D01*
X003572Y032310D01*
X003517Y032237D01*
X003471Y032158D01*
X003437Y032074D01*
X003413Y031986D01*
X003401Y031896D01*
X003401Y031858D01*
X004088Y031858D01*
X004088Y031842D01*
X004104Y031842D01*
X004104Y031858D01*
X004088Y031858D01*
X004088Y032545D01*
X003911Y032520D02*
X002312Y032520D01*
X002351Y032510D02*
X002263Y032534D01*
X002173Y032545D01*
X002136Y032545D01*
X002136Y031858D01*
X002823Y031858D01*
X002823Y031896D01*
X002811Y031986D01*
X002787Y032074D01*
X002752Y032158D01*
X002707Y032237D01*
X002651Y032310D01*
X002587Y032374D01*
X002515Y032430D01*
X002436Y032475D01*
X002351Y032510D01*
X002136Y032520D02*
X002120Y032520D01*
X002120Y032545D02*
X002082Y032545D01*
X001992Y032534D01*
X001904Y032510D01*
X001820Y032475D01*
X001741Y032430D01*
X001668Y032374D01*
X001604Y032310D01*
X001548Y032237D01*
X001503Y032158D01*
X001468Y032074D01*
X001444Y031986D01*
X001433Y031896D01*
X001433Y031858D01*
X002120Y031858D01*
X002120Y031842D01*
X002136Y031842D01*
X002136Y031858D01*
X002120Y031858D01*
X002120Y032545D01*
X001943Y032520D02*
X000620Y032520D01*
X000620Y032282D02*
X001583Y032282D01*
X001460Y032043D02*
X000620Y032043D01*
X000620Y031805D02*
X001433Y031805D01*
X001444Y031715D01*
X001468Y031627D01*
X001503Y031542D01*
X001548Y031463D01*
X001604Y031391D01*
X001668Y031327D01*
X001741Y031271D01*
X001820Y031226D01*
X001904Y031191D01*
X001992Y031167D01*
X002082Y031155D01*
X002120Y031155D01*
X002120Y031842D01*
X001433Y031842D01*
X001433Y031805D01*
X001493Y031566D02*
X000620Y031566D01*
X000620Y031328D02*
X001667Y031328D01*
X002120Y031328D02*
X002136Y031328D01*
X002136Y031155D02*
X002173Y031155D01*
X002263Y031167D01*
X002351Y031191D01*
X002436Y031226D01*
X002515Y031271D01*
X002587Y031327D01*
X002651Y031391D01*
X002707Y031463D01*
X002752Y031542D01*
X002787Y031627D01*
X002811Y031715D01*
X002823Y031805D01*
X003401Y031805D01*
X003413Y031715D01*
X003437Y031627D01*
X003471Y031542D01*
X003517Y031463D01*
X003572Y031391D01*
X003637Y031327D01*
X003709Y031271D01*
X003788Y031226D01*
X003872Y031191D01*
X003960Y031167D01*
X004051Y031155D01*
X004088Y031155D01*
X004088Y031842D01*
X003401Y031842D01*
X003401Y031805D01*
X003428Y032043D02*
X002795Y032043D01*
X002823Y031842D02*
X002136Y031842D01*
X002136Y031155D01*
X002120Y031566D02*
X002136Y031566D01*
X002120Y031805D02*
X002136Y031805D01*
X002120Y032043D02*
X002136Y032043D01*
X002120Y032282D02*
X002136Y032282D01*
X002673Y032282D02*
X003551Y032282D01*
X002823Y031842D02*
X002823Y031805D01*
X002762Y031566D02*
X003461Y031566D01*
X003636Y031328D02*
X002588Y031328D01*
X004088Y031328D02*
X004104Y031328D01*
X004088Y031566D02*
X004104Y031566D01*
X004088Y031805D02*
X004104Y031805D01*
X004088Y032043D02*
X004104Y032043D01*
X008041Y028466D02*
X008057Y028466D01*
X008041Y028227D02*
X008057Y028227D01*
X008041Y027989D02*
X008057Y027989D01*
X008041Y027750D02*
X008057Y027750D01*
X008041Y027512D02*
X008057Y027512D01*
X008041Y027273D02*
X008057Y027273D01*
X003438Y023696D02*
X003363Y023696D01*
X003363Y023457D02*
X003438Y023457D01*
X003438Y022980D02*
X003363Y022980D01*
X003363Y022742D02*
X003438Y022742D01*
X002921Y022742D02*
X000620Y022742D01*
X000620Y022980D02*
X002759Y022980D01*
X003405Y016435D02*
X003315Y016423D01*
X003227Y016399D01*
X003143Y016364D01*
X003065Y016319D01*
X002993Y016264D01*
X002929Y016200D01*
X002873Y016128D01*
X002828Y016049D01*
X002793Y015965D01*
X002770Y015878D01*
X002758Y015788D01*
X002758Y015780D01*
X003413Y015780D01*
X003413Y016435D01*
X003405Y016435D01*
X003488Y016435D02*
X003488Y015780D01*
X003413Y015780D01*
X003413Y015705D01*
X002758Y015705D01*
X002758Y015697D01*
X002770Y015607D01*
X002793Y015519D01*
X002828Y015435D01*
X002873Y015357D01*
X002929Y015285D01*
X002993Y015220D01*
X003065Y015165D01*
X003143Y015120D01*
X003227Y015085D01*
X003315Y015062D01*
X003405Y015050D01*
X003413Y015050D01*
X003413Y015705D01*
X003488Y015705D01*
X003488Y015780D01*
X004143Y015780D01*
X004143Y015788D01*
X004131Y015878D01*
X004107Y015965D01*
X004073Y016049D01*
X004027Y016128D01*
X003972Y016200D01*
X003908Y016264D01*
X003836Y016319D01*
X003757Y016364D01*
X003673Y016399D01*
X003586Y016423D01*
X003496Y016435D01*
X003488Y016435D01*
X003488Y016302D02*
X003413Y016302D01*
X003413Y016064D02*
X003488Y016064D01*
X003488Y015825D02*
X003413Y015825D01*
X003488Y015705D02*
X004143Y015705D01*
X004143Y015697D01*
X004131Y015607D01*
X004107Y015519D01*
X004073Y015435D01*
X004027Y015357D01*
X003972Y015285D01*
X003908Y015220D01*
X003836Y015165D01*
X003757Y015120D01*
X003673Y015085D01*
X003586Y015062D01*
X003496Y015050D01*
X003488Y015050D01*
X003488Y015705D01*
X003488Y015587D02*
X003413Y015587D01*
X003413Y015348D02*
X003488Y015348D01*
X003488Y015110D02*
X003413Y015110D01*
X003167Y015110D02*
X000620Y015110D01*
X000620Y015348D02*
X002880Y015348D01*
X002775Y015587D02*
X000620Y015587D01*
X000620Y015825D02*
X002763Y015825D01*
X002837Y016064D02*
X000620Y016064D01*
X000620Y016302D02*
X003043Y016302D01*
X003858Y016302D02*
X014076Y016302D01*
X014076Y016064D02*
X004064Y016064D01*
X004138Y015825D02*
X014076Y015825D01*
X014076Y015587D02*
X004126Y015587D01*
X004021Y015348D02*
X014076Y015348D01*
X014076Y015110D02*
X003733Y015110D01*
X003496Y012685D02*
X003488Y012685D01*
X003488Y012030D01*
X003413Y012030D01*
X003413Y012685D01*
X003405Y012685D01*
X003315Y012673D01*
X003227Y012649D01*
X003143Y012614D01*
X003065Y012569D01*
X002993Y012514D01*
X002929Y012450D01*
X002873Y012378D01*
X002828Y012299D01*
X002793Y012215D01*
X002770Y012128D01*
X002758Y012038D01*
X002758Y012030D01*
X003413Y012030D01*
X003413Y011955D01*
X002758Y011955D01*
X002758Y011947D01*
X002770Y011857D01*
X002793Y011769D01*
X002828Y011685D01*
X002873Y011607D01*
X002929Y011535D01*
X002993Y011470D01*
X003065Y011415D01*
X003143Y011370D01*
X003227Y011335D01*
X003315Y011312D01*
X003405Y011300D01*
X003413Y011300D01*
X003413Y011955D01*
X003488Y011955D01*
X003488Y012030D01*
X004143Y012030D01*
X004143Y012038D01*
X004131Y012128D01*
X004107Y012215D01*
X004073Y012299D01*
X004027Y012378D01*
X003972Y012450D01*
X003908Y012514D01*
X003836Y012569D01*
X003757Y012614D01*
X003673Y012649D01*
X003586Y012673D01*
X003496Y012685D01*
X003488Y012486D02*
X003413Y012486D01*
X003413Y012248D02*
X003488Y012248D01*
X003488Y012009D02*
X012698Y012009D01*
X012698Y011771D02*
X004108Y011771D01*
X004107Y011769D02*
X004131Y011857D01*
X004143Y011947D01*
X004143Y011955D01*
X003488Y011955D01*
X003488Y011300D01*
X003496Y011300D01*
X003586Y011312D01*
X003673Y011335D01*
X003757Y011370D01*
X003836Y011415D01*
X003908Y011470D01*
X003972Y011535D01*
X004027Y011607D01*
X004073Y011685D01*
X004107Y011769D01*
X003970Y011532D02*
X012698Y011532D01*
X012698Y011294D02*
X000620Y011294D01*
X000620Y011532D02*
X002931Y011532D01*
X002793Y011771D02*
X000620Y011771D01*
X000620Y012009D02*
X003413Y012009D01*
X003413Y011771D02*
X003488Y011771D01*
X003488Y011532D02*
X003413Y011532D01*
X002807Y012248D02*
X000620Y012248D01*
X000620Y012486D02*
X002965Y012486D01*
X003935Y012486D02*
X012698Y012486D01*
X012698Y012248D02*
X004094Y012248D01*
X000620Y012725D02*
X014076Y012725D01*
X014076Y012963D02*
X000620Y012963D01*
X000620Y013202D02*
X014076Y013202D01*
X014076Y013440D02*
X000620Y013440D01*
X000620Y013679D02*
X014076Y013679D01*
X014076Y013917D02*
X000620Y013917D01*
X000620Y014156D02*
X014076Y014156D01*
X014076Y014394D02*
X000620Y014394D01*
X000620Y014633D02*
X014076Y014633D01*
X014076Y014871D02*
X000620Y014871D01*
X000620Y011055D02*
X012698Y011055D01*
X012698Y010817D02*
X000620Y010817D01*
X000620Y010578D02*
X012698Y010578D01*
X012698Y010340D02*
X000620Y010340D01*
X000620Y010101D02*
X012698Y010101D01*
X012698Y009863D02*
X000620Y009863D01*
X000620Y009624D02*
X012698Y009624D01*
X012698Y009386D02*
X000620Y009386D01*
X000620Y009147D02*
X012698Y009147D01*
X012698Y008909D02*
X000620Y008909D01*
X000620Y008670D02*
X012698Y008670D01*
X012698Y008432D02*
X000620Y008432D01*
X000620Y008193D02*
X012698Y008193D01*
X012698Y007955D02*
X000620Y007955D01*
X000620Y007716D02*
X023131Y007716D01*
X023131Y007478D02*
X000620Y007478D01*
X000620Y007239D02*
X023131Y007239D01*
X023131Y007001D02*
X011180Y007001D01*
X011195Y006987D02*
X011130Y007051D01*
X011058Y007107D01*
X010979Y007152D01*
X010895Y007187D01*
X010807Y007211D01*
X010716Y007223D01*
X010679Y007223D01*
X010679Y006536D01*
X010663Y006536D01*
X010663Y007223D01*
X010625Y007223D01*
X010535Y007211D01*
X010447Y007187D01*
X010363Y007152D01*
X010284Y007107D01*
X010212Y007051D01*
X010147Y006987D01*
X010092Y006915D01*
X010046Y006836D01*
X010011Y006751D01*
X009988Y006663D01*
X009976Y006573D01*
X009976Y006536D01*
X010663Y006536D01*
X010663Y006520D01*
X009976Y006520D01*
X009976Y006482D01*
X009988Y006392D01*
X010011Y006304D01*
X010046Y006220D01*
X010092Y006141D01*
X010147Y006068D01*
X010212Y006004D01*
X010284Y005948D01*
X010363Y005903D01*
X010447Y005868D01*
X010535Y005844D01*
X010625Y005833D01*
X010663Y005833D01*
X010663Y006520D01*
X010679Y006520D01*
X010679Y006536D01*
X011366Y006536D01*
X011366Y006573D01*
X011354Y006663D01*
X011330Y006751D01*
X011296Y006836D01*
X011250Y006915D01*
X011195Y006987D01*
X011326Y006762D02*
X023131Y006762D01*
X023131Y006524D02*
X010679Y006524D01*
X010679Y006520D02*
X011366Y006520D01*
X011366Y006482D01*
X011354Y006392D01*
X011330Y006304D01*
X011296Y006220D01*
X011250Y006141D01*
X011195Y006068D01*
X011130Y006004D01*
X011058Y005948D01*
X010979Y005903D01*
X010895Y005868D01*
X010807Y005844D01*
X010716Y005833D01*
X010679Y005833D01*
X010679Y006520D01*
X010663Y006524D02*
X008710Y006524D01*
X008710Y006520D02*
X008710Y006536D01*
X008694Y006536D01*
X008694Y007223D01*
X008657Y007223D01*
X008566Y007211D01*
X008478Y007187D01*
X008394Y007152D01*
X008315Y007107D01*
X008243Y007051D01*
X008179Y006987D01*
X008123Y006915D01*
X008078Y006836D01*
X008043Y006751D01*
X008019Y006663D01*
X008007Y006573D01*
X008007Y006536D01*
X008694Y006536D01*
X008694Y006520D01*
X008007Y006520D01*
X008007Y006482D01*
X008019Y006392D01*
X008043Y006304D01*
X008078Y006220D01*
X008123Y006141D01*
X008179Y006068D01*
X008243Y006004D01*
X008315Y005948D01*
X008394Y005903D01*
X008478Y005868D01*
X008566Y005844D01*
X008657Y005833D01*
X008694Y005833D01*
X008694Y006520D01*
X008710Y006520D01*
X009397Y006520D01*
X009397Y006482D01*
X009385Y006392D01*
X009362Y006304D01*
X009327Y006220D01*
X009281Y006141D01*
X009226Y006068D01*
X009162Y006004D01*
X009089Y005948D01*
X009010Y005903D01*
X008926Y005868D01*
X008838Y005844D01*
X008748Y005833D01*
X008710Y005833D01*
X008710Y006520D01*
X008710Y006536D02*
X009397Y006536D01*
X009397Y006573D01*
X009385Y006663D01*
X009362Y006751D01*
X009327Y006836D01*
X009281Y006915D01*
X009226Y006987D01*
X009162Y007051D01*
X009089Y007107D01*
X009010Y007152D01*
X008926Y007187D01*
X008838Y007211D01*
X008748Y007223D01*
X008710Y007223D01*
X008710Y006536D01*
X008694Y006524D02*
X006742Y006524D01*
X006742Y006520D02*
X006742Y006536D01*
X006726Y006536D01*
X006726Y007223D01*
X006688Y007223D01*
X006598Y007211D01*
X006510Y007187D01*
X006426Y007152D01*
X006347Y007107D01*
X006275Y007051D01*
X006210Y006987D01*
X006155Y006915D01*
X006109Y006836D01*
X006074Y006751D01*
X006051Y006663D01*
X006039Y006573D01*
X006039Y006536D01*
X006726Y006536D01*
X006726Y006520D01*
X006039Y006520D01*
X006039Y006482D01*
X006051Y006392D01*
X006074Y006304D01*
X006109Y006220D01*
X006155Y006141D01*
X006210Y006068D01*
X006275Y006004D01*
X006347Y005948D01*
X006426Y005903D01*
X006510Y005868D01*
X006598Y005844D01*
X006688Y005833D01*
X006726Y005833D01*
X006726Y006520D01*
X006742Y006520D01*
X007429Y006520D01*
X007429Y006482D01*
X007417Y006392D01*
X007393Y006304D01*
X007359Y006220D01*
X007313Y006141D01*
X007258Y006068D01*
X007193Y006004D01*
X007121Y005948D01*
X007042Y005903D01*
X006958Y005868D01*
X006870Y005844D01*
X006779Y005833D01*
X006742Y005833D01*
X006742Y006520D01*
X006742Y006536D02*
X007429Y006536D01*
X007429Y006573D01*
X007417Y006663D01*
X007393Y006751D01*
X007359Y006836D01*
X007313Y006915D01*
X007258Y006987D01*
X007193Y007051D01*
X007121Y007107D01*
X007042Y007152D01*
X006958Y007187D01*
X006870Y007211D01*
X006779Y007223D01*
X006742Y007223D01*
X006742Y006536D01*
X006726Y006524D02*
X004773Y006524D01*
X004773Y006520D02*
X004773Y006536D01*
X004757Y006536D01*
X004757Y007223D01*
X004261Y007223D01*
X004205Y007208D01*
X004155Y007179D01*
X004114Y007138D01*
X004085Y007087D01*
X004070Y007032D01*
X004070Y006536D01*
X004757Y006536D01*
X004757Y006520D01*
X004070Y006520D01*
X004070Y006024D01*
X004085Y005968D01*
X004114Y005917D01*
X004155Y005877D01*
X004205Y005848D01*
X004261Y005833D01*
X004757Y005833D01*
X004757Y006520D01*
X004773Y006520D01*
X005460Y006520D01*
X005460Y006024D01*
X005445Y005968D01*
X005416Y005917D01*
X005375Y005877D01*
X005325Y005848D01*
X005269Y005833D01*
X004773Y005833D01*
X004773Y006520D01*
X004773Y006536D02*
X005460Y006536D01*
X005460Y007032D01*
X005445Y007087D01*
X005416Y007138D01*
X005375Y007179D01*
X005325Y007208D01*
X005269Y007223D01*
X004773Y007223D01*
X004773Y006536D01*
X004757Y006524D02*
X000620Y006524D01*
X000620Y006762D02*
X004070Y006762D01*
X004070Y007001D02*
X000620Y007001D01*
X000620Y006285D02*
X004070Y006285D01*
X004070Y006047D02*
X000620Y006047D01*
X000620Y005808D02*
X023131Y005808D01*
X023131Y005570D02*
X000620Y005570D01*
X000620Y005331D02*
X023131Y005331D01*
X023131Y005093D02*
X000620Y005093D01*
X000620Y004854D02*
X023131Y004854D01*
X023131Y004616D02*
X000620Y004616D01*
X000620Y004377D02*
X023131Y004377D01*
X023131Y004139D02*
X000620Y004139D01*
X000620Y003900D02*
X023131Y003900D01*
X023131Y003662D02*
X018094Y003662D01*
X018224Y003587D02*
X017957Y003741D01*
X017660Y003820D01*
X017351Y003820D01*
X017054Y003741D01*
X016787Y003587D01*
X016569Y003369D01*
X016415Y003102D01*
X016336Y002804D01*
X016336Y002496D01*
X016415Y002199D01*
X016569Y001932D01*
X016787Y001714D01*
X017054Y001560D01*
X017351Y001480D01*
X017660Y001480D01*
X017957Y001560D01*
X018224Y001714D01*
X018442Y001932D01*
X018596Y002199D01*
X018676Y002496D01*
X018676Y002804D01*
X018596Y003102D01*
X018442Y003369D01*
X018224Y003587D01*
X018387Y003423D02*
X023131Y003423D01*
X023131Y003185D02*
X018548Y003185D01*
X018637Y002946D02*
X023131Y002946D01*
X023131Y002708D02*
X018676Y002708D01*
X018668Y002469D02*
X024410Y002469D01*
X024332Y002200D02*
X024247Y002187D01*
X024164Y002160D01*
X024087Y002121D01*
X024017Y002070D01*
X023956Y002009D01*
X023905Y001939D01*
X023866Y001862D01*
X023839Y001779D01*
X023826Y001694D01*
X023826Y001650D01*
X023826Y001607D01*
X023839Y001522D01*
X023866Y001439D01*
X023905Y001362D01*
X023956Y001292D01*
X024017Y001231D01*
X024087Y001180D01*
X024164Y001141D01*
X024247Y001114D01*
X024332Y001100D01*
X024706Y001100D01*
X025079Y001100D01*
X025164Y001114D01*
X025247Y001141D01*
X025324Y001180D01*
X025394Y001231D01*
X025455Y001292D01*
X025506Y001362D01*
X025545Y001439D01*
X025572Y001522D01*
X025586Y001607D01*
X025586Y001650D01*
X024706Y001650D01*
X024706Y001650D01*
X024706Y001100D01*
X024706Y001650D01*
X024706Y001650D01*
X025586Y001650D01*
X025586Y001694D01*
X025572Y001779D01*
X025545Y001862D01*
X025506Y001939D01*
X025455Y002009D01*
X025394Y002070D01*
X025324Y002121D01*
X025247Y002160D01*
X025164Y002187D01*
X025079Y002200D01*
X024706Y002200D01*
X024706Y001650D01*
X024706Y001650D01*
X024705Y001650D02*
X023826Y001650D01*
X024705Y001650D01*
X024705Y001650D01*
X024706Y001650D02*
X024706Y002200D01*
X024332Y002200D01*
X024706Y001992D02*
X024706Y001992D01*
X024706Y001754D02*
X024706Y001754D01*
X024706Y001515D02*
X024706Y001515D01*
X024706Y001277D02*
X024706Y001277D01*
X025440Y001277D02*
X026675Y001277D01*
X026675Y001515D02*
X025570Y001515D01*
X025576Y001754D02*
X026675Y001754D01*
X026675Y001992D02*
X025467Y001992D01*
X024924Y002469D02*
X026675Y002469D01*
X026675Y002231D02*
X018604Y002231D01*
X018477Y001992D02*
X023944Y001992D01*
X023835Y001754D02*
X018264Y001754D01*
X017790Y001515D02*
X023841Y001515D01*
X023971Y001277D02*
X002910Y001277D01*
X002988Y001333D02*
X002988Y001333D01*
X003227Y001662D01*
X003352Y002049D01*
X003352Y002455D01*
X003227Y002842D01*
X002988Y003171D01*
X002988Y003171D01*
X002988Y003171D01*
X002659Y003410D01*
X002659Y003410D01*
X002272Y003536D01*
X001865Y003536D01*
X001478Y003410D01*
X001149Y003171D01*
X000910Y002842D01*
X000785Y002455D01*
X000785Y002049D01*
X000910Y001662D01*
X001149Y001333D01*
X001149Y001333D01*
X001149Y001333D01*
X001478Y001094D01*
X001478Y001094D01*
X001865Y000968D01*
X002179Y000968D01*
X002272Y000968D01*
X002659Y001094D01*
X002988Y001333D01*
X002988Y001333D01*
X003120Y001515D02*
X004098Y001515D01*
X004098Y001496D02*
X004113Y001440D01*
X004142Y001390D01*
X004183Y001349D01*
X004233Y001320D01*
X004289Y001305D01*
X004785Y001305D01*
X004785Y001992D01*
X004801Y001992D01*
X004801Y002008D01*
X005488Y002008D01*
X005488Y002504D01*
X005473Y002560D01*
X005444Y002610D01*
X005403Y002651D01*
X005353Y002680D01*
X005297Y002695D01*
X004801Y002695D01*
X004801Y002008D01*
X004785Y002008D01*
X004785Y002695D01*
X004289Y002695D01*
X004233Y002680D01*
X004183Y002651D01*
X004142Y002610D01*
X004113Y002560D01*
X004098Y002504D01*
X004098Y002008D01*
X004785Y002008D01*
X004785Y001992D01*
X004098Y001992D01*
X004098Y001496D01*
X004098Y001754D02*
X003256Y001754D01*
X003227Y001662D02*
X003227Y001662D01*
X003334Y001992D02*
X004785Y001992D01*
X004801Y001992D02*
X004801Y001305D01*
X005297Y001305D01*
X005353Y001320D01*
X005403Y001349D01*
X005444Y001390D01*
X005473Y001440D01*
X005488Y001496D01*
X005488Y001992D01*
X004801Y001992D01*
X006753Y001992D01*
X006066Y001992D01*
X006066Y001954D01*
X006078Y001864D01*
X006102Y001776D01*
X006137Y001692D01*
X006182Y001613D01*
X006238Y001541D01*
X006302Y001476D01*
X006374Y001421D01*
X006453Y001375D01*
X006538Y001340D01*
X006626Y001317D01*
X006716Y001305D01*
X006753Y001305D01*
X006753Y001992D01*
X006753Y002008D01*
X006066Y002008D01*
X006066Y002046D01*
X006078Y002136D01*
X006102Y002224D01*
X006137Y002308D01*
X006182Y002387D01*
X006238Y002459D01*
X006302Y002524D01*
X006374Y002579D01*
X006453Y002625D01*
X006538Y002660D01*
X006626Y002683D01*
X006716Y002695D01*
X006753Y002695D01*
X006753Y002008D01*
X006769Y002008D01*
X006769Y002695D01*
X006807Y002695D01*
X006897Y002683D01*
X006985Y002660D01*
X007069Y002625D01*
X007148Y002579D01*
X007221Y002524D01*
X007285Y002459D01*
X007341Y002387D01*
X007386Y002308D01*
X007421Y002224D01*
X007445Y002136D01*
X007456Y002046D01*
X007456Y002008D01*
X006769Y002008D01*
X006769Y001992D01*
X006769Y001305D01*
X006807Y001305D01*
X006897Y001317D01*
X006985Y001340D01*
X007069Y001375D01*
X007148Y001421D01*
X007221Y001476D01*
X007285Y001541D01*
X007341Y001613D01*
X007386Y001692D01*
X007421Y001776D01*
X007445Y001864D01*
X007456Y001954D01*
X007456Y001992D01*
X006769Y001992D01*
X006753Y001992D01*
X006769Y001992D02*
X008722Y001992D01*
X008738Y001992D01*
X008738Y002008D01*
X009425Y002008D01*
X009425Y002046D01*
X009413Y002136D01*
X009389Y002224D01*
X009355Y002308D01*
X009309Y002387D01*
X009254Y002459D01*
X009189Y002524D01*
X009117Y002579D01*
X009038Y002625D01*
X008954Y002660D01*
X008866Y002683D01*
X008775Y002695D01*
X008738Y002695D01*
X008738Y002008D01*
X008722Y002008D01*
X008722Y002695D01*
X008684Y002695D01*
X008594Y002683D01*
X008506Y002660D01*
X008422Y002625D01*
X008343Y002579D01*
X008271Y002524D01*
X008206Y002459D01*
X008151Y002387D01*
X008105Y002308D01*
X008070Y002224D01*
X008047Y002136D01*
X008035Y002046D01*
X008035Y002008D01*
X008722Y002008D01*
X008722Y001992D01*
X008722Y001305D01*
X008684Y001305D01*
X008594Y001317D01*
X008506Y001340D01*
X008422Y001375D01*
X008343Y001421D01*
X008271Y001476D01*
X008206Y001541D01*
X008151Y001613D01*
X008105Y001692D01*
X008070Y001776D01*
X008047Y001864D01*
X008035Y001954D01*
X008035Y001992D01*
X008722Y001992D01*
X008738Y001992D02*
X008738Y001305D01*
X008775Y001305D01*
X008866Y001317D01*
X008954Y001340D01*
X009038Y001375D01*
X009117Y001421D01*
X009189Y001476D01*
X009254Y001541D01*
X009309Y001613D01*
X009355Y001692D01*
X009389Y001776D01*
X009413Y001864D01*
X009425Y001954D01*
X009425Y001992D01*
X008738Y001992D01*
X010690Y001992D01*
X010003Y001992D01*
X010003Y001954D01*
X010015Y001864D01*
X010039Y001776D01*
X010074Y001692D01*
X010119Y001613D01*
X010175Y001541D01*
X010239Y001476D01*
X010311Y001421D01*
X010390Y001375D01*
X010475Y001340D01*
X010563Y001317D01*
X010653Y001305D01*
X010690Y001305D01*
X010690Y001992D01*
X010690Y002008D01*
X010003Y002008D01*
X010003Y002046D01*
X010015Y002136D01*
X010039Y002224D01*
X010074Y002308D01*
X010119Y002387D01*
X010175Y002459D01*
X010239Y002524D01*
X010311Y002579D01*
X010390Y002625D01*
X010475Y002660D01*
X010563Y002683D01*
X010653Y002695D01*
X010690Y002695D01*
X010690Y002008D01*
X010706Y002008D01*
X010706Y002695D01*
X010744Y002695D01*
X010834Y002683D01*
X010922Y002660D01*
X011006Y002625D01*
X011085Y002579D01*
X011158Y002524D01*
X011222Y002459D01*
X011278Y002387D01*
X011323Y002308D01*
X011358Y002224D01*
X011382Y002136D01*
X011393Y002046D01*
X011393Y002008D01*
X010706Y002008D01*
X010706Y001992D01*
X010706Y001305D01*
X010744Y001305D01*
X010834Y001317D01*
X010922Y001340D01*
X011006Y001375D01*
X011085Y001421D01*
X011158Y001476D01*
X011222Y001541D01*
X011278Y001613D01*
X011323Y001692D01*
X011358Y001776D01*
X011382Y001864D01*
X011393Y001954D01*
X011393Y001992D01*
X010706Y001992D01*
X010690Y001992D01*
X010706Y001992D02*
X016534Y001992D01*
X016407Y002231D02*
X011355Y002231D01*
X011212Y002469D02*
X016343Y002469D01*
X016336Y002708D02*
X003270Y002708D01*
X003227Y002842D02*
X003227Y002842D01*
X003151Y002946D02*
X016374Y002946D01*
X016463Y003185D02*
X002968Y003185D01*
X002618Y003423D02*
X016624Y003423D01*
X016917Y003662D02*
X000620Y003662D01*
X000620Y003423D02*
X001519Y003423D01*
X001478Y003410D02*
X001478Y003410D01*
X001169Y003185D02*
X000620Y003185D01*
X000620Y002946D02*
X000986Y002946D01*
X000910Y002842D02*
X000910Y002842D01*
X000867Y002708D02*
X000620Y002708D01*
X000620Y002469D02*
X000789Y002469D01*
X000785Y002231D02*
X000620Y002231D01*
X000620Y001992D02*
X000803Y001992D01*
X000881Y001754D02*
X000620Y001754D01*
X000620Y001515D02*
X001017Y001515D01*
X000910Y001662D02*
X000910Y001662D01*
X000620Y001277D02*
X001227Y001277D01*
X001650Y001038D02*
X000620Y001038D01*
X002272Y000968D02*
X002272Y000968D01*
X002487Y001038D02*
X026675Y001038D01*
X023131Y006047D02*
X011173Y006047D01*
X011323Y006285D02*
X023131Y006285D01*
X017221Y001515D02*
X011197Y001515D01*
X011349Y001754D02*
X016747Y001754D01*
X010706Y001754D02*
X010690Y001754D01*
X010690Y001515D02*
X010706Y001515D01*
X010200Y001515D02*
X009228Y001515D01*
X009380Y001754D02*
X010048Y001754D01*
X010042Y002231D02*
X009387Y002231D01*
X009243Y002469D02*
X010185Y002469D01*
X010690Y002469D02*
X010706Y002469D01*
X010690Y002231D02*
X010706Y002231D01*
X008738Y002231D02*
X008722Y002231D01*
X008722Y002469D02*
X008738Y002469D01*
X008216Y002469D02*
X007275Y002469D01*
X007418Y002231D02*
X008073Y002231D01*
X008080Y001754D02*
X007412Y001754D01*
X007260Y001515D02*
X008232Y001515D01*
X008722Y001515D02*
X008738Y001515D01*
X008722Y001754D02*
X008738Y001754D01*
X006769Y001754D02*
X006753Y001754D01*
X006753Y001515D02*
X006769Y001515D01*
X006263Y001515D02*
X005488Y001515D01*
X005488Y001754D02*
X006111Y001754D01*
X006105Y002231D02*
X005488Y002231D01*
X005488Y002469D02*
X006248Y002469D01*
X006753Y002469D02*
X006769Y002469D01*
X006753Y002231D02*
X006769Y002231D01*
X004801Y002231D02*
X004785Y002231D01*
X004785Y002469D02*
X004801Y002469D01*
X004098Y002469D02*
X003348Y002469D01*
X003352Y002231D02*
X004098Y002231D01*
X004785Y001754D02*
X004801Y001754D01*
X004785Y001515D02*
X004801Y001515D01*
X002659Y001094D02*
X002659Y001094D01*
X001149Y003171D02*
X001149Y003171D01*
X001149Y003171D01*
X004757Y006047D02*
X004773Y006047D01*
X004757Y006285D02*
X004773Y006285D01*
X004757Y006762D02*
X004773Y006762D01*
X004757Y007001D02*
X004773Y007001D01*
X005460Y007001D02*
X006224Y007001D01*
X006079Y006762D02*
X005460Y006762D01*
X005460Y006285D02*
X006082Y006285D01*
X006232Y006047D02*
X005460Y006047D01*
X006726Y006047D02*
X006742Y006047D01*
X006726Y006285D02*
X006742Y006285D01*
X006726Y006762D02*
X006742Y006762D01*
X006726Y007001D02*
X006742Y007001D01*
X007243Y007001D02*
X008193Y007001D01*
X008047Y006762D02*
X007389Y006762D01*
X007386Y006285D02*
X008050Y006285D01*
X008200Y006047D02*
X007236Y006047D01*
X008694Y006047D02*
X008710Y006047D01*
X008694Y006285D02*
X008710Y006285D01*
X008694Y006762D02*
X008710Y006762D01*
X008694Y007001D02*
X008710Y007001D01*
X009212Y007001D02*
X010161Y007001D01*
X010016Y006762D02*
X009357Y006762D01*
X009354Y006285D02*
X010019Y006285D01*
X010169Y006047D02*
X009205Y006047D01*
X010663Y006047D02*
X010679Y006047D01*
X010663Y006285D02*
X010679Y006285D01*
X010663Y006762D02*
X010679Y006762D01*
X010663Y007001D02*
X010679Y007001D01*
D26*
X013171Y008354D02*
X013171Y011819D01*
X014824Y011819D01*
X014824Y016495D01*
X014996Y016666D01*
X015155Y016941D01*
X015237Y017247D01*
X015237Y017633D01*
X015280Y017600D01*
X015363Y017552D01*
X015451Y017515D01*
X015544Y017490D01*
X015627Y017479D01*
X015627Y018149D01*
X015747Y018149D01*
X015747Y017479D01*
X015830Y017490D01*
X015922Y017515D01*
X016011Y017552D01*
X016094Y017600D01*
X016170Y017658D01*
X016232Y017721D01*
X016377Y017470D01*
X016557Y017290D01*
X016557Y017016D01*
X017141Y017016D01*
X017182Y017005D01*
X020806Y017005D01*
X020846Y017016D01*
X023171Y017016D01*
X023171Y017667D01*
X023256Y017813D01*
X023284Y017918D01*
X023297Y017885D01*
X023345Y017802D01*
X023404Y017726D01*
X023471Y017658D01*
X023547Y017600D01*
X023630Y017552D01*
X023719Y017515D01*
X023811Y017490D01*
X023894Y017479D01*
X023894Y018149D01*
X024014Y018149D01*
X024014Y017479D01*
X024097Y017490D01*
X024190Y017515D01*
X024278Y017552D01*
X024361Y017600D01*
X024437Y017658D01*
X024505Y017726D01*
X024563Y017802D01*
X024611Y017885D01*
X024648Y017973D01*
X024673Y018066D01*
X024684Y018149D01*
X024014Y018149D01*
X024014Y018269D01*
X023894Y018269D01*
X023894Y018938D01*
X023811Y018927D01*
X023719Y018902D01*
X023630Y018866D01*
X023547Y018818D01*
X023471Y018759D01*
X023404Y018692D01*
X023345Y018616D01*
X023297Y018533D01*
X023284Y018499D01*
X023256Y018604D01*
X023171Y018751D01*
X023171Y019142D01*
X027974Y019142D01*
X027974Y018628D01*
X027960Y018604D01*
X027932Y018499D01*
X027918Y018533D01*
X027870Y018616D01*
X027812Y018692D01*
X027744Y018759D01*
X027668Y018818D01*
X027585Y018866D01*
X027497Y018902D01*
X027404Y018927D01*
X027321Y018938D01*
X027321Y018269D01*
X027201Y018269D01*
X027201Y018149D01*
X026532Y018149D01*
X026543Y018066D01*
X026568Y017973D01*
X026605Y017885D01*
X026652Y017802D01*
X026711Y017726D01*
X026778Y017658D01*
X026854Y017600D01*
X026937Y017552D01*
X027026Y017515D01*
X027119Y017490D01*
X027201Y017479D01*
X027201Y018149D01*
X027321Y018149D01*
X027321Y017479D01*
X027404Y017490D01*
X027497Y017515D01*
X027585Y017552D01*
X027668Y017600D01*
X027744Y017658D01*
X027812Y017726D01*
X027870Y017802D01*
X027918Y017885D01*
X027932Y017918D01*
X027960Y017813D01*
X027974Y017789D01*
X027974Y015362D01*
X022069Y009457D01*
X022069Y008354D01*
X013171Y008354D01*
X013171Y008381D02*
X022069Y008381D01*
X022069Y008499D02*
X013171Y008499D01*
X013171Y008618D02*
X022069Y008618D01*
X022069Y008736D02*
X013171Y008736D01*
X013171Y008855D02*
X022069Y008855D01*
X022069Y008973D02*
X013171Y008973D01*
X013171Y009092D02*
X022069Y009092D01*
X022069Y009210D02*
X013171Y009210D01*
X013171Y009329D02*
X013827Y009329D01*
X013838Y009318D02*
X013874Y009297D01*
X013915Y009286D01*
X014351Y009286D01*
X014351Y009861D01*
X014471Y009861D01*
X014471Y009286D01*
X014907Y009286D01*
X014948Y009297D01*
X014984Y009318D01*
X015014Y009348D01*
X015035Y009385D01*
X015046Y009425D01*
X015046Y009861D01*
X014471Y009861D01*
X014471Y009981D01*
X015046Y009981D01*
X015046Y010417D01*
X015035Y010458D01*
X015014Y010495D01*
X014984Y010524D01*
X014948Y010545D01*
X014907Y010556D01*
X014471Y010556D01*
X014471Y009981D01*
X014351Y009981D01*
X014351Y009861D01*
X013776Y009861D01*
X013776Y009425D01*
X013787Y009385D01*
X013808Y009348D01*
X013838Y009318D01*
X013776Y009447D02*
X013171Y009447D01*
X013171Y009566D02*
X013776Y009566D01*
X013776Y009684D02*
X013171Y009684D01*
X013171Y009803D02*
X013776Y009803D01*
X013776Y009981D02*
X014351Y009981D01*
X014351Y010556D01*
X013915Y010556D01*
X013874Y010545D01*
X013838Y010524D01*
X013808Y010495D01*
X013787Y010458D01*
X013776Y010417D01*
X013776Y009981D01*
X013776Y010040D02*
X013171Y010040D01*
X013171Y010158D02*
X013776Y010158D01*
X013776Y010277D02*
X013171Y010277D01*
X013171Y010395D02*
X013776Y010395D01*
X013827Y010514D02*
X013171Y010514D01*
X013171Y010632D02*
X023244Y010632D01*
X023126Y010514D02*
X020548Y010514D01*
X020560Y010510D02*
X020465Y010541D01*
X020377Y010555D01*
X020377Y009981D01*
X020950Y009981D01*
X020936Y010070D01*
X020905Y010165D01*
X020860Y010254D01*
X020801Y010335D01*
X020730Y010406D01*
X020649Y010464D01*
X020560Y010510D01*
X020377Y010514D02*
X020257Y010514D01*
X020257Y010555D02*
X020168Y010541D01*
X020073Y010510D01*
X019984Y010464D01*
X019903Y010406D01*
X019832Y010335D01*
X019773Y010254D01*
X019728Y010165D01*
X019697Y010070D01*
X019683Y009981D01*
X020257Y009981D01*
X020257Y010555D01*
X020257Y010395D02*
X020377Y010395D01*
X020377Y010277D02*
X020257Y010277D01*
X020257Y010158D02*
X020377Y010158D01*
X020377Y010040D02*
X020257Y010040D01*
X020257Y009981D02*
X020377Y009981D01*
X020377Y009861D01*
X020950Y009861D01*
X020936Y009773D01*
X020905Y009678D01*
X020860Y009588D01*
X020801Y009508D01*
X020730Y009437D01*
X020649Y009378D01*
X020560Y009333D01*
X020465Y009302D01*
X020377Y009288D01*
X020377Y009861D01*
X020257Y009861D01*
X020257Y009288D01*
X020168Y009302D01*
X020073Y009333D01*
X019984Y009378D01*
X019903Y009437D01*
X019832Y009508D01*
X019773Y009588D01*
X019728Y009678D01*
X019697Y009773D01*
X019683Y009861D01*
X020257Y009861D01*
X020257Y009981D01*
X020257Y009921D02*
X018408Y009921D01*
X018408Y009861D02*
X018408Y009981D01*
X018981Y009981D01*
X018967Y010070D01*
X018937Y010165D01*
X018891Y010254D01*
X018832Y010335D01*
X018762Y010406D01*
X018681Y010464D01*
X018592Y010510D01*
X018497Y010541D01*
X018408Y010555D01*
X018408Y009981D01*
X018288Y009981D01*
X018288Y009861D01*
X018408Y009861D01*
X018408Y009288D01*
X018497Y009302D01*
X018592Y009333D01*
X018681Y009378D01*
X018762Y009437D01*
X018832Y009508D01*
X018891Y009588D01*
X018937Y009678D01*
X018967Y009773D01*
X018981Y009861D01*
X018408Y009861D01*
X018408Y009803D02*
X018288Y009803D01*
X018288Y009861D02*
X018288Y009288D01*
X018199Y009302D01*
X018104Y009333D01*
X018015Y009378D01*
X017934Y009437D01*
X017864Y009508D01*
X017805Y009588D01*
X017760Y009678D01*
X017729Y009773D01*
X017715Y009861D01*
X018288Y009861D01*
X018288Y009921D02*
X016440Y009921D01*
X016440Y009861D02*
X016440Y009981D01*
X017013Y009981D01*
X016999Y010070D01*
X016968Y010165D01*
X016923Y010254D01*
X016864Y010335D01*
X016793Y010406D01*
X016712Y010464D01*
X016623Y010510D01*
X016528Y010541D01*
X016440Y010555D01*
X016440Y009981D01*
X016320Y009981D01*
X016320Y010555D01*
X016231Y010541D01*
X016136Y010510D01*
X016047Y010464D01*
X015966Y010406D01*
X015895Y010335D01*
X015836Y010254D01*
X015791Y010165D01*
X015760Y010070D01*
X015746Y009981D01*
X016320Y009981D01*
X016320Y009861D01*
X016440Y009861D01*
X017013Y009861D01*
X016999Y009773D01*
X016968Y009678D01*
X016923Y009588D01*
X016864Y009508D01*
X016793Y009437D01*
X016712Y009378D01*
X016623Y009333D01*
X016528Y009302D01*
X016440Y009288D01*
X016440Y009861D01*
X016440Y009803D02*
X016320Y009803D01*
X016320Y009861D02*
X016320Y009288D01*
X016231Y009302D01*
X016136Y009333D01*
X016047Y009378D01*
X015966Y009437D01*
X015895Y009508D01*
X015836Y009588D01*
X015791Y009678D01*
X015760Y009773D01*
X015746Y009861D01*
X016320Y009861D01*
X016320Y009921D02*
X014471Y009921D01*
X014471Y009803D02*
X014351Y009803D01*
X014351Y009921D02*
X013171Y009921D01*
X013171Y010751D02*
X023363Y010751D01*
X023481Y010869D02*
X013171Y010869D01*
X013171Y010988D02*
X023600Y010988D01*
X023718Y011106D02*
X013171Y011106D01*
X013171Y011225D02*
X023837Y011225D01*
X023955Y011343D02*
X013171Y011343D01*
X013171Y011462D02*
X024074Y011462D01*
X024192Y011580D02*
X013171Y011580D01*
X013171Y011699D02*
X024311Y011699D01*
X024429Y011817D02*
X013171Y011817D01*
X014351Y010514D02*
X014471Y010514D01*
X014471Y010395D02*
X014351Y010395D01*
X014351Y010277D02*
X014471Y010277D01*
X014471Y010158D02*
X014351Y010158D01*
X014351Y010040D02*
X014471Y010040D01*
X014471Y009684D02*
X014351Y009684D01*
X014351Y009566D02*
X014471Y009566D01*
X014471Y009447D02*
X014351Y009447D01*
X014351Y009329D02*
X014471Y009329D01*
X014995Y009329D02*
X016148Y009329D01*
X016320Y009329D02*
X016440Y009329D01*
X016440Y009447D02*
X016320Y009447D01*
X016320Y009566D02*
X016440Y009566D01*
X016440Y009684D02*
X016320Y009684D01*
X016320Y010040D02*
X016440Y010040D01*
X016440Y010158D02*
X016320Y010158D01*
X016320Y010277D02*
X016440Y010277D01*
X016440Y010395D02*
X016320Y010395D01*
X016320Y010514D02*
X016440Y010514D01*
X016611Y010514D02*
X018117Y010514D01*
X018104Y010510D02*
X018015Y010464D01*
X017934Y010406D01*
X017864Y010335D01*
X017805Y010254D01*
X017760Y010165D01*
X017729Y010070D01*
X017715Y009981D01*
X018288Y009981D01*
X018288Y010555D01*
X018199Y010541D01*
X018104Y010510D01*
X018288Y010514D02*
X018408Y010514D01*
X018408Y010395D02*
X018288Y010395D01*
X018288Y010277D02*
X018408Y010277D01*
X018408Y010158D02*
X018288Y010158D01*
X018288Y010040D02*
X018408Y010040D01*
X018408Y009684D02*
X018288Y009684D01*
X018288Y009566D02*
X018408Y009566D01*
X018408Y009447D02*
X018288Y009447D01*
X018288Y009329D02*
X018408Y009329D01*
X018580Y009329D02*
X020085Y009329D01*
X020257Y009329D02*
X020377Y009329D01*
X020377Y009447D02*
X020257Y009447D01*
X020257Y009566D02*
X020377Y009566D01*
X020377Y009684D02*
X020257Y009684D01*
X020257Y009803D02*
X020377Y009803D01*
X020377Y009921D02*
X022533Y009921D01*
X022415Y009803D02*
X020941Y009803D01*
X020907Y009684D02*
X022296Y009684D01*
X022178Y009566D02*
X020843Y009566D01*
X020741Y009447D02*
X022069Y009447D01*
X022069Y009329D02*
X020548Y009329D01*
X019892Y009447D02*
X018772Y009447D01*
X018875Y009566D02*
X019790Y009566D01*
X019726Y009684D02*
X018939Y009684D01*
X018972Y009803D02*
X019692Y009803D01*
X019692Y010040D02*
X018972Y010040D01*
X018939Y010158D02*
X019726Y010158D01*
X019790Y010277D02*
X018875Y010277D01*
X018772Y010395D02*
X019893Y010395D01*
X020085Y010514D02*
X018579Y010514D01*
X017924Y010395D02*
X016803Y010395D01*
X016906Y010277D02*
X017821Y010277D01*
X017757Y010158D02*
X016970Y010158D01*
X017004Y010040D02*
X017724Y010040D01*
X017724Y009803D02*
X017004Y009803D01*
X016970Y009684D02*
X017757Y009684D01*
X017821Y009566D02*
X016906Y009566D01*
X016804Y009447D02*
X017924Y009447D01*
X018116Y009329D02*
X016611Y009329D01*
X015955Y009447D02*
X015046Y009447D01*
X015046Y009566D02*
X015853Y009566D01*
X015789Y009684D02*
X015046Y009684D01*
X015046Y009803D02*
X015755Y009803D01*
X015755Y010040D02*
X015046Y010040D01*
X015046Y010158D02*
X015789Y010158D01*
X015853Y010277D02*
X015046Y010277D01*
X015046Y010395D02*
X015956Y010395D01*
X016148Y010514D02*
X014995Y010514D01*
X014824Y011936D02*
X024548Y011936D01*
X024666Y012054D02*
X014824Y012054D01*
X014824Y012173D02*
X024785Y012173D01*
X024903Y012291D02*
X014824Y012291D01*
X014824Y012410D02*
X025022Y012410D01*
X025140Y012528D02*
X014824Y012528D01*
X014824Y012647D02*
X025259Y012647D01*
X025377Y012765D02*
X014824Y012765D01*
X014824Y012884D02*
X025496Y012884D01*
X025614Y013002D02*
X014824Y013002D01*
X014824Y013121D02*
X025733Y013121D01*
X025851Y013239D02*
X014824Y013239D01*
X014824Y013358D02*
X025970Y013358D01*
X026088Y013476D02*
X014824Y013476D01*
X014824Y013595D02*
X026207Y013595D01*
X026325Y013713D02*
X014824Y013713D01*
X014824Y013832D02*
X026444Y013832D01*
X026562Y013950D02*
X014824Y013950D01*
X014824Y014069D02*
X026681Y014069D01*
X026799Y014187D02*
X014824Y014187D01*
X014824Y014306D02*
X026918Y014306D01*
X027036Y014424D02*
X014824Y014424D01*
X014824Y014543D02*
X027155Y014543D01*
X027273Y014661D02*
X014824Y014661D01*
X014824Y014780D02*
X027392Y014780D01*
X027510Y014898D02*
X014824Y014898D01*
X014824Y015017D02*
X027629Y015017D01*
X027747Y015135D02*
X014824Y015135D01*
X014824Y015254D02*
X027866Y015254D01*
X027974Y015372D02*
X014824Y015372D01*
X014824Y015491D02*
X027974Y015491D01*
X027974Y015609D02*
X014824Y015609D01*
X014824Y015728D02*
X027974Y015728D01*
X027974Y015846D02*
X014824Y015846D01*
X014824Y015965D02*
X027974Y015965D01*
X027974Y016083D02*
X014824Y016083D01*
X014824Y016202D02*
X027974Y016202D01*
X027974Y016320D02*
X014824Y016320D01*
X014824Y016439D02*
X027974Y016439D01*
X027974Y016557D02*
X014887Y016557D01*
X015002Y016676D02*
X027974Y016676D01*
X027974Y016794D02*
X015070Y016794D01*
X015139Y016913D02*
X027974Y016913D01*
X027974Y017031D02*
X023171Y017031D01*
X023171Y017150D02*
X027974Y017150D01*
X027974Y017268D02*
X023171Y017268D01*
X023171Y017387D02*
X027974Y017387D01*
X027974Y017505D02*
X027461Y017505D01*
X027321Y017505D02*
X027201Y017505D01*
X027201Y017624D02*
X027321Y017624D01*
X027321Y017742D02*
X027201Y017742D01*
X027201Y017861D02*
X027321Y017861D01*
X027321Y017979D02*
X027201Y017979D01*
X027201Y018098D02*
X027321Y018098D01*
X027201Y018216D02*
X025668Y018216D01*
X025668Y018269D02*
X026337Y018269D01*
X026326Y018352D01*
X026301Y018444D01*
X026265Y018533D01*
X026217Y018616D01*
X026159Y018692D01*
X026091Y018759D01*
X026015Y018818D01*
X025932Y018866D01*
X025843Y018902D01*
X025751Y018927D01*
X025668Y018938D01*
X025668Y018269D01*
X025548Y018269D01*
X025548Y018938D01*
X025465Y018927D01*
X025372Y018902D01*
X025284Y018866D01*
X025201Y018818D01*
X025125Y018759D01*
X025057Y018692D01*
X024999Y018616D01*
X024951Y018533D01*
X024914Y018444D01*
X024890Y018352D01*
X024879Y018269D01*
X025548Y018269D01*
X025548Y018149D01*
X024879Y018149D01*
X024890Y018066D01*
X024914Y017973D01*
X024951Y017885D01*
X024999Y017802D01*
X025057Y017726D01*
X025125Y017658D01*
X025201Y017600D01*
X025284Y017552D01*
X025372Y017515D01*
X025465Y017490D01*
X025548Y017479D01*
X025548Y018149D01*
X025668Y018149D01*
X025668Y018269D01*
X025668Y018335D02*
X025548Y018335D01*
X025548Y018453D02*
X025668Y018453D01*
X025668Y018572D02*
X025548Y018572D01*
X025548Y018690D02*
X025668Y018690D01*
X025668Y018809D02*
X025548Y018809D01*
X025548Y018927D02*
X025668Y018927D01*
X025748Y018927D02*
X027121Y018927D01*
X027119Y018927D02*
X027026Y018902D01*
X026937Y018866D01*
X026854Y018818D01*
X026778Y018759D01*
X026711Y018692D01*
X026652Y018616D01*
X026605Y018533D01*
X026568Y018444D01*
X026543Y018352D01*
X026532Y018269D01*
X027201Y018269D01*
X027201Y018938D01*
X027119Y018927D01*
X027201Y018927D02*
X027321Y018927D01*
X027402Y018927D02*
X027974Y018927D01*
X027974Y018809D02*
X027680Y018809D01*
X027813Y018690D02*
X027974Y018690D01*
X027952Y018572D02*
X027896Y018572D01*
X027974Y019046D02*
X023171Y019046D01*
X023171Y018927D02*
X023814Y018927D01*
X023894Y018927D02*
X024014Y018927D01*
X024014Y018938D02*
X024014Y018269D01*
X024684Y018269D01*
X024673Y018352D01*
X024648Y018444D01*
X024611Y018533D01*
X024563Y018616D01*
X024505Y018692D01*
X024437Y018759D01*
X024361Y018818D01*
X024278Y018866D01*
X024190Y018902D01*
X024097Y018927D01*
X024014Y018938D01*
X024095Y018927D02*
X025468Y018927D01*
X025190Y018809D02*
X024373Y018809D01*
X024506Y018690D02*
X025056Y018690D01*
X024974Y018572D02*
X024589Y018572D01*
X024644Y018453D02*
X024918Y018453D01*
X024887Y018335D02*
X024675Y018335D01*
X024677Y018098D02*
X024885Y018098D01*
X024913Y017979D02*
X024650Y017979D01*
X024597Y017861D02*
X024965Y017861D01*
X025044Y017742D02*
X024518Y017742D01*
X024393Y017624D02*
X025169Y017624D01*
X025409Y017505D02*
X024153Y017505D01*
X024014Y017505D02*
X023894Y017505D01*
X023894Y017624D02*
X024014Y017624D01*
X024014Y017742D02*
X023894Y017742D01*
X023894Y017861D02*
X024014Y017861D01*
X024014Y017979D02*
X023894Y017979D01*
X023894Y018098D02*
X024014Y018098D01*
X024014Y018216D02*
X025548Y018216D01*
X025548Y018098D02*
X025668Y018098D01*
X025668Y018149D02*
X025668Y017479D01*
X025751Y017490D01*
X025843Y017515D01*
X025932Y017552D01*
X026015Y017600D01*
X026091Y017658D01*
X026159Y017726D01*
X026217Y017802D01*
X026265Y017885D01*
X026301Y017973D01*
X026326Y018066D01*
X026337Y018149D01*
X025668Y018149D01*
X025668Y017979D02*
X025548Y017979D01*
X025548Y017861D02*
X025668Y017861D01*
X025668Y017742D02*
X025548Y017742D01*
X025548Y017624D02*
X025668Y017624D01*
X025668Y017505D02*
X025548Y017505D01*
X025807Y017505D02*
X027062Y017505D01*
X026823Y017624D02*
X026046Y017624D01*
X026171Y017742D02*
X026698Y017742D01*
X026618Y017861D02*
X026251Y017861D01*
X026303Y017979D02*
X026566Y017979D01*
X026539Y018098D02*
X026330Y018098D01*
X026328Y018335D02*
X026541Y018335D01*
X026572Y018453D02*
X026298Y018453D01*
X026242Y018572D02*
X026627Y018572D01*
X026710Y018690D02*
X026159Y018690D01*
X026026Y018809D02*
X026843Y018809D01*
X027201Y018809D02*
X027321Y018809D01*
X027321Y018690D02*
X027201Y018690D01*
X027201Y018572D02*
X027321Y018572D01*
X027321Y018453D02*
X027201Y018453D01*
X027201Y018335D02*
X027321Y018335D01*
X027905Y017861D02*
X027947Y017861D01*
X027974Y017742D02*
X027825Y017742D01*
X027700Y017624D02*
X027974Y017624D01*
X024014Y018335D02*
X023894Y018335D01*
X023894Y018453D02*
X024014Y018453D01*
X024014Y018572D02*
X023894Y018572D01*
X023894Y018690D02*
X024014Y018690D01*
X024014Y018809D02*
X023894Y018809D01*
X023536Y018809D02*
X023171Y018809D01*
X023206Y018690D02*
X023403Y018690D01*
X023320Y018572D02*
X023264Y018572D01*
X023268Y017861D02*
X023311Y017861D01*
X023391Y017742D02*
X023215Y017742D01*
X023171Y017624D02*
X023516Y017624D01*
X023755Y017505D02*
X023171Y017505D01*
X019943Y021425D02*
X017927Y021425D01*
X017805Y021496D01*
X017499Y021578D01*
X017182Y021578D01*
X016876Y021496D01*
X016753Y021425D01*
X016557Y021425D01*
X016557Y021293D01*
X016377Y021113D01*
X016232Y020862D01*
X016170Y020925D01*
X016094Y020983D01*
X016011Y021031D01*
X015922Y021068D01*
X015830Y021092D01*
X015747Y021103D01*
X015747Y020434D01*
X015627Y020434D01*
X015627Y021103D01*
X015544Y021092D01*
X015451Y021068D01*
X015363Y021031D01*
X015280Y020983D01*
X015204Y020925D01*
X015141Y020862D01*
X014996Y021113D01*
X014824Y021285D01*
X014824Y022134D01*
X011045Y022134D01*
X011045Y034417D01*
X019943Y034417D01*
X019943Y024568D01*
X019926Y024527D01*
X019926Y023874D01*
X019943Y023834D01*
X019943Y023386D01*
X019926Y023346D01*
X019926Y022693D01*
X019943Y022653D01*
X019943Y021425D01*
X019943Y021534D02*
X017660Y021534D01*
X017020Y021534D02*
X014824Y021534D01*
X014824Y021416D02*
X016557Y021416D01*
X016557Y021297D02*
X014824Y021297D01*
X014930Y021179D02*
X016443Y021179D01*
X016347Y021060D02*
X015939Y021060D01*
X015747Y021060D02*
X015627Y021060D01*
X015627Y020942D02*
X015747Y020942D01*
X015747Y020823D02*
X015627Y020823D01*
X015627Y020705D02*
X015747Y020705D01*
X015747Y020586D02*
X015627Y020586D01*
X015627Y020468D02*
X015747Y020468D01*
X015747Y020314D02*
X015747Y019645D01*
X015830Y019656D01*
X015922Y019680D01*
X016011Y019717D01*
X016094Y019765D01*
X016136Y019798D01*
X016136Y018785D01*
X016094Y018818D01*
X016011Y018866D01*
X015922Y018902D01*
X015830Y018927D01*
X015747Y018938D01*
X015747Y018269D01*
X015627Y018269D01*
X015627Y018938D01*
X015544Y018927D01*
X015451Y018902D01*
X015363Y018866D01*
X015280Y018818D01*
X015237Y018785D01*
X015237Y019798D01*
X015280Y019765D01*
X015363Y019717D01*
X015451Y019680D01*
X015544Y019656D01*
X015627Y019645D01*
X015627Y020314D01*
X015747Y020314D01*
X015747Y020231D02*
X015627Y020231D01*
X015627Y020112D02*
X015747Y020112D01*
X015747Y019994D02*
X015627Y019994D01*
X015627Y019875D02*
X015747Y019875D01*
X015747Y019757D02*
X015627Y019757D01*
X015294Y019757D02*
X015237Y019757D01*
X015237Y019638D02*
X016136Y019638D01*
X016136Y019520D02*
X015237Y019520D01*
X015237Y019401D02*
X016136Y019401D01*
X016136Y019283D02*
X015237Y019283D01*
X015237Y019164D02*
X016136Y019164D01*
X016136Y019046D02*
X015237Y019046D01*
X015237Y018927D02*
X015546Y018927D01*
X015627Y018927D02*
X015747Y018927D01*
X015827Y018927D02*
X016136Y018927D01*
X016136Y018809D02*
X016105Y018809D01*
X015747Y018809D02*
X015627Y018809D01*
X015627Y018690D02*
X015747Y018690D01*
X015747Y018572D02*
X015627Y018572D01*
X015627Y018453D02*
X015747Y018453D01*
X015747Y018335D02*
X015627Y018335D01*
X015627Y018098D02*
X015747Y018098D01*
X015747Y017979D02*
X015627Y017979D01*
X015627Y017861D02*
X015747Y017861D01*
X015747Y017742D02*
X015627Y017742D01*
X015627Y017624D02*
X015747Y017624D01*
X015747Y017505D02*
X015627Y017505D01*
X015487Y017505D02*
X015237Y017505D01*
X015237Y017387D02*
X016460Y017387D01*
X016557Y017268D02*
X015237Y017268D01*
X015211Y017150D02*
X016557Y017150D01*
X016557Y017031D02*
X015179Y017031D01*
X015237Y017624D02*
X015248Y017624D01*
X015886Y017505D02*
X016356Y017505D01*
X016288Y017624D02*
X016125Y017624D01*
X015268Y018809D02*
X015237Y018809D01*
X016079Y019757D02*
X016136Y019757D01*
X016147Y020942D02*
X016278Y020942D01*
X015434Y021060D02*
X015027Y021060D01*
X015095Y020942D02*
X015226Y020942D01*
X014824Y021653D02*
X019943Y021653D01*
X019943Y021771D02*
X014824Y021771D01*
X014824Y021890D02*
X019943Y021890D01*
X019943Y022008D02*
X014824Y022008D01*
X014824Y022127D02*
X019943Y022127D01*
X019943Y022245D02*
X011045Y022245D01*
X011045Y022364D02*
X019943Y022364D01*
X019943Y022482D02*
X011045Y022482D01*
X011045Y022601D02*
X019943Y022601D01*
X019926Y022719D02*
X011045Y022719D01*
X011045Y022838D02*
X019926Y022838D01*
X019926Y022956D02*
X011045Y022956D01*
X011045Y023075D02*
X019926Y023075D01*
X019926Y023193D02*
X011045Y023193D01*
X011045Y023312D02*
X019926Y023312D01*
X019943Y023430D02*
X011045Y023430D01*
X011045Y023549D02*
X019943Y023549D01*
X019943Y023667D02*
X011045Y023667D01*
X011045Y023786D02*
X019943Y023786D01*
X019926Y023904D02*
X011045Y023904D01*
X011045Y024023D02*
X019926Y024023D01*
X019926Y024141D02*
X011045Y024141D01*
X011045Y024260D02*
X019926Y024260D01*
X019926Y024378D02*
X011045Y024378D01*
X011045Y024497D02*
X019926Y024497D01*
X019943Y024615D02*
X011045Y024615D01*
X011045Y024734D02*
X019943Y024734D01*
X019943Y024852D02*
X011045Y024852D01*
X011045Y024971D02*
X019943Y024971D01*
X019943Y025089D02*
X011045Y025089D01*
X011045Y025208D02*
X019943Y025208D01*
X019943Y025326D02*
X011045Y025326D01*
X011045Y025445D02*
X019943Y025445D01*
X019943Y025563D02*
X011045Y025563D01*
X011045Y025682D02*
X019943Y025682D01*
X019943Y025800D02*
X011045Y025800D01*
X011045Y025919D02*
X019943Y025919D01*
X019943Y026037D02*
X011045Y026037D01*
X011045Y026156D02*
X019943Y026156D01*
X019943Y026274D02*
X011045Y026274D01*
X011045Y026393D02*
X019943Y026393D01*
X019943Y026511D02*
X011045Y026511D01*
X011045Y026630D02*
X019943Y026630D01*
X019943Y026748D02*
X011045Y026748D01*
X011045Y026867D02*
X019943Y026867D01*
X019943Y026985D02*
X011045Y026985D01*
X011045Y027104D02*
X019943Y027104D01*
X019943Y027222D02*
X011045Y027222D01*
X011045Y027341D02*
X012171Y027341D01*
X012266Y027310D01*
X012355Y027296D01*
X012355Y027869D01*
X012475Y027869D01*
X012475Y027296D01*
X012564Y027310D01*
X012659Y027341D01*
X014139Y027341D01*
X014140Y027341D02*
X014235Y027310D01*
X014323Y027296D01*
X014323Y027869D01*
X013750Y027869D01*
X013764Y027780D01*
X013795Y027685D01*
X013840Y027596D01*
X013899Y027515D01*
X013970Y027445D01*
X014051Y027386D01*
X014140Y027341D01*
X014323Y027341D02*
X014443Y027341D01*
X014443Y027296D02*
X014532Y027310D01*
X014627Y027341D01*
X014716Y027386D01*
X014797Y027445D01*
X014868Y027515D01*
X014927Y027596D01*
X014972Y027685D01*
X015003Y027780D01*
X015017Y027869D01*
X014443Y027869D01*
X014443Y027296D01*
X014443Y027459D02*
X014323Y027459D01*
X014323Y027578D02*
X014443Y027578D01*
X014443Y027696D02*
X014323Y027696D01*
X014323Y027815D02*
X014443Y027815D01*
X014443Y027869D02*
X014323Y027869D01*
X014323Y027989D01*
X013750Y027989D01*
X013764Y028078D01*
X013795Y028173D01*
X013840Y028262D01*
X013899Y028343D01*
X013970Y028413D01*
X014051Y028472D01*
X014140Y028518D01*
X014235Y028548D01*
X014323Y028563D01*
X014323Y027989D01*
X014443Y027989D01*
X014443Y028563D01*
X014532Y028548D01*
X014627Y028518D01*
X014716Y028472D01*
X014797Y028413D01*
X014868Y028343D01*
X014927Y028262D01*
X014972Y028173D01*
X015003Y028078D01*
X015017Y027989D01*
X014443Y027989D01*
X014443Y027869D01*
X014443Y027933D02*
X016292Y027933D01*
X016292Y027989D02*
X016292Y027869D01*
X016412Y027869D01*
X016412Y027296D01*
X016501Y027310D01*
X016596Y027341D01*
X017732Y027341D01*
X017717Y027356D02*
X017747Y027326D01*
X017784Y027305D01*
X017824Y027294D01*
X018260Y027294D01*
X018260Y027869D01*
X017685Y027869D01*
X017685Y027433D01*
X017696Y027392D01*
X017717Y027356D01*
X017685Y027459D02*
X016780Y027459D01*
X016766Y027445D02*
X016836Y027515D01*
X016895Y027596D01*
X016940Y027685D01*
X016971Y027780D01*
X016985Y027869D01*
X016412Y027869D01*
X016412Y027989D01*
X016985Y027989D01*
X016971Y028078D01*
X016940Y028173D01*
X016895Y028262D01*
X016836Y028343D01*
X016766Y028413D01*
X016685Y028472D01*
X016596Y028518D01*
X016501Y028548D01*
X016412Y028563D01*
X016412Y027989D01*
X016292Y027989D01*
X015719Y027989D01*
X015733Y028078D01*
X015763Y028173D01*
X015809Y028262D01*
X015868Y028343D01*
X015938Y028413D01*
X016019Y028472D01*
X016108Y028518D01*
X016203Y028548D01*
X016292Y028563D01*
X016292Y027989D01*
X016292Y028052D02*
X016412Y028052D01*
X016412Y028170D02*
X016292Y028170D01*
X016292Y028289D02*
X016412Y028289D01*
X016412Y028407D02*
X016292Y028407D01*
X016292Y028526D02*
X016412Y028526D01*
X016570Y028526D02*
X017741Y028526D01*
X017747Y028532D02*
X017717Y028502D01*
X017696Y028466D01*
X017685Y028425D01*
X017685Y027989D01*
X018260Y027989D01*
X018260Y027869D01*
X018380Y027869D01*
X018380Y027294D01*
X018817Y027294D01*
X018857Y027305D01*
X018894Y027326D01*
X018924Y027356D01*
X018945Y027392D01*
X018955Y027433D01*
X018955Y027869D01*
X018380Y027869D01*
X018380Y027989D01*
X018260Y027989D01*
X018260Y028564D01*
X017824Y028564D01*
X017784Y028553D01*
X017747Y028532D01*
X017685Y028407D02*
X016772Y028407D01*
X016875Y028289D02*
X017685Y028289D01*
X017685Y028170D02*
X016941Y028170D01*
X016975Y028052D02*
X017685Y028052D01*
X017685Y027815D02*
X016977Y027815D01*
X016944Y027696D02*
X017685Y027696D01*
X017685Y027578D02*
X016882Y027578D01*
X016766Y027445D02*
X016685Y027386D01*
X016596Y027341D01*
X016412Y027341D02*
X016292Y027341D01*
X016292Y027296D02*
X016292Y027869D01*
X015719Y027869D01*
X015733Y027780D01*
X015763Y027685D01*
X015809Y027596D01*
X015868Y027515D01*
X015938Y027445D01*
X016019Y027386D01*
X016108Y027341D01*
X014628Y027341D01*
X014812Y027459D02*
X015924Y027459D01*
X015822Y027578D02*
X014913Y027578D01*
X014976Y027696D02*
X015760Y027696D01*
X015727Y027815D02*
X015008Y027815D01*
X015007Y028052D02*
X015728Y028052D01*
X015763Y028170D02*
X014973Y028170D01*
X014907Y028289D02*
X015828Y028289D01*
X015932Y028407D02*
X014803Y028407D01*
X014602Y028526D02*
X016134Y028526D01*
X016412Y027933D02*
X018260Y027933D01*
X018260Y027815D02*
X018380Y027815D01*
X018380Y027933D02*
X019943Y027933D01*
X019943Y027815D02*
X018955Y027815D01*
X018955Y027696D02*
X019943Y027696D01*
X019943Y027578D02*
X018955Y027578D01*
X018955Y027459D02*
X019943Y027459D01*
X019943Y027341D02*
X018909Y027341D01*
X018380Y027341D02*
X018260Y027341D01*
X018260Y027459D02*
X018380Y027459D01*
X018380Y027578D02*
X018260Y027578D01*
X018260Y027696D02*
X018380Y027696D01*
X018380Y027989D02*
X018955Y027989D01*
X018955Y028425D01*
X018945Y028466D01*
X018924Y028502D01*
X018894Y028532D01*
X018857Y028553D01*
X018817Y028564D01*
X018380Y028564D01*
X018380Y027989D01*
X018380Y028052D02*
X018260Y028052D01*
X018260Y028170D02*
X018380Y028170D01*
X018380Y028289D02*
X018260Y028289D01*
X018260Y028407D02*
X018380Y028407D01*
X018380Y028526D02*
X018260Y028526D01*
X018900Y028526D02*
X019943Y028526D01*
X019943Y028644D02*
X011045Y028644D01*
X011045Y028526D02*
X012197Y028526D01*
X012171Y028518D02*
X012082Y028472D01*
X012001Y028413D01*
X011931Y028343D01*
X011872Y028262D01*
X011826Y028173D01*
X011796Y028078D01*
X011782Y027989D01*
X012355Y027989D01*
X012355Y027869D01*
X011782Y027869D01*
X011796Y027780D01*
X011826Y027685D01*
X011872Y027596D01*
X011931Y027515D01*
X012001Y027445D01*
X012082Y027386D01*
X012171Y027341D01*
X012355Y027341D02*
X012475Y027341D01*
X012475Y027459D02*
X012355Y027459D01*
X012355Y027578D02*
X012475Y027578D01*
X012475Y027696D02*
X012355Y027696D01*
X012355Y027815D02*
X012475Y027815D01*
X012475Y027869D02*
X012475Y027989D01*
X013048Y027989D01*
X013034Y028078D01*
X013003Y028173D01*
X012958Y028262D01*
X012899Y028343D01*
X012829Y028413D01*
X012748Y028472D01*
X012659Y028518D01*
X012564Y028548D01*
X012475Y028563D01*
X012475Y027989D01*
X012355Y027989D01*
X012355Y028563D01*
X012266Y028548D01*
X012171Y028518D01*
X012355Y028526D02*
X012475Y028526D01*
X012475Y028407D02*
X012355Y028407D01*
X012355Y028289D02*
X012475Y028289D01*
X012475Y028170D02*
X012355Y028170D01*
X012355Y028052D02*
X012475Y028052D01*
X012475Y027933D02*
X014323Y027933D01*
X014323Y028052D02*
X014443Y028052D01*
X014443Y028170D02*
X014323Y028170D01*
X014323Y028289D02*
X014443Y028289D01*
X014443Y028407D02*
X014323Y028407D01*
X014323Y028526D02*
X014443Y028526D01*
X014165Y028526D02*
X012633Y028526D01*
X012835Y028407D02*
X013964Y028407D01*
X013860Y028289D02*
X012938Y028289D01*
X013004Y028170D02*
X013794Y028170D01*
X013760Y028052D02*
X013038Y028052D01*
X013048Y027869D02*
X012475Y027869D01*
X012355Y027933D02*
X011045Y027933D01*
X011045Y027815D02*
X011790Y027815D01*
X011823Y027696D02*
X011045Y027696D01*
X011045Y027578D02*
X011885Y027578D01*
X011987Y027459D02*
X011045Y027459D01*
X011045Y028052D02*
X011791Y028052D01*
X011826Y028170D02*
X011045Y028170D01*
X011045Y028289D02*
X011891Y028289D01*
X011995Y028407D02*
X011045Y028407D01*
X011045Y028763D02*
X019943Y028763D01*
X019943Y028881D02*
X011045Y028881D01*
X011045Y029000D02*
X019943Y029000D01*
X019943Y029118D02*
X011045Y029118D01*
X011045Y029237D02*
X019943Y029237D01*
X019943Y029355D02*
X011045Y029355D01*
X011045Y029474D02*
X019943Y029474D01*
X019943Y029592D02*
X011045Y029592D01*
X011045Y029711D02*
X019943Y029711D01*
X019943Y029829D02*
X011045Y029829D01*
X011045Y029948D02*
X019943Y029948D01*
X019943Y030066D02*
X011045Y030066D01*
X011045Y030185D02*
X019943Y030185D01*
X019943Y030303D02*
X011045Y030303D01*
X011045Y030422D02*
X019943Y030422D01*
X019943Y030540D02*
X011045Y030540D01*
X011045Y030659D02*
X019943Y030659D01*
X019943Y030777D02*
X011045Y030777D01*
X011045Y030896D02*
X019943Y030896D01*
X019943Y031014D02*
X011045Y031014D01*
X011045Y031133D02*
X019943Y031133D01*
X019943Y031251D02*
X018782Y031251D01*
X018765Y031247D02*
X018806Y031258D01*
X018843Y031279D01*
X018872Y031309D01*
X018893Y031345D01*
X018904Y031386D01*
X018904Y031822D01*
X018329Y031822D01*
X018329Y031247D01*
X018765Y031247D01*
X018900Y031370D02*
X019943Y031370D01*
X019943Y031488D02*
X018904Y031488D01*
X018904Y031607D02*
X019943Y031607D01*
X019943Y031725D02*
X018904Y031725D01*
X018904Y031942D02*
X018904Y032378D01*
X018893Y032419D01*
X018872Y032455D01*
X018843Y032485D01*
X018806Y032506D01*
X018765Y032517D01*
X018329Y032517D01*
X018329Y031942D01*
X018209Y031942D01*
X018209Y031822D01*
X017634Y031822D01*
X017634Y031386D01*
X017645Y031345D01*
X017666Y031309D01*
X017696Y031279D01*
X017733Y031258D01*
X017773Y031247D01*
X018209Y031247D01*
X018209Y031822D01*
X018329Y031822D01*
X018329Y031942D01*
X018904Y031942D01*
X018904Y031962D02*
X019943Y031962D01*
X019943Y031844D02*
X018329Y031844D01*
X018329Y031962D02*
X018209Y031962D01*
X018209Y031942D02*
X018209Y032517D01*
X017773Y032517D01*
X017733Y032506D01*
X017696Y032485D01*
X017666Y032455D01*
X017645Y032419D01*
X017634Y032378D01*
X017634Y031942D01*
X018209Y031942D01*
X018209Y031844D02*
X016361Y031844D01*
X016361Y031822D02*
X016361Y031942D01*
X016934Y031942D01*
X016920Y032031D01*
X016889Y032126D01*
X016844Y032215D01*
X016785Y032296D01*
X016714Y032366D01*
X016634Y032425D01*
X016545Y032470D01*
X016449Y032501D01*
X016361Y032515D01*
X016361Y031942D01*
X016241Y031942D01*
X016241Y032515D01*
X016152Y032501D01*
X016057Y032470D01*
X015968Y032425D01*
X015887Y032366D01*
X015816Y032296D01*
X015758Y032215D01*
X015712Y032126D01*
X015681Y032031D01*
X015667Y031942D01*
X016241Y031942D01*
X016241Y031822D01*
X016361Y031822D01*
X016934Y031822D01*
X016920Y031733D01*
X016889Y031638D01*
X016844Y031549D01*
X016785Y031468D01*
X016714Y031398D01*
X016634Y031339D01*
X016545Y031293D01*
X016449Y031263D01*
X016361Y031248D01*
X016361Y031822D01*
X016361Y031725D02*
X016241Y031725D01*
X016241Y031822D02*
X016241Y031248D01*
X016152Y031263D01*
X016057Y031293D01*
X015968Y031339D01*
X015887Y031398D01*
X015816Y031468D01*
X015758Y031549D01*
X015712Y031638D01*
X015681Y031733D01*
X015667Y031822D01*
X016241Y031822D01*
X016241Y031844D02*
X014392Y031844D01*
X014392Y031822D02*
X014392Y031942D01*
X014272Y031942D01*
X014272Y031822D01*
X013699Y031822D01*
X013713Y031733D01*
X013744Y031638D01*
X013789Y031549D01*
X013848Y031468D01*
X013919Y031398D01*
X013999Y031339D01*
X014089Y031293D01*
X014184Y031263D01*
X014272Y031248D01*
X014272Y031822D01*
X014392Y031822D01*
X014392Y031248D01*
X014481Y031263D01*
X014576Y031293D01*
X014665Y031339D01*
X014746Y031398D01*
X014817Y031468D01*
X014875Y031549D01*
X014921Y031638D01*
X014952Y031733D01*
X014966Y031822D01*
X014392Y031822D01*
X014392Y031725D02*
X014272Y031725D01*
X014272Y031607D02*
X014392Y031607D01*
X014392Y031488D02*
X014272Y031488D01*
X014272Y031370D02*
X014392Y031370D01*
X014392Y031251D02*
X014272Y031251D01*
X014254Y031251D02*
X012442Y031251D01*
X012424Y031251D02*
X012304Y031251D01*
X012304Y031248D02*
X012304Y031822D01*
X012424Y031822D01*
X012424Y031942D01*
X012997Y031942D01*
X012983Y032031D01*
X012952Y032126D01*
X012907Y032215D01*
X012848Y032296D01*
X012777Y032366D01*
X012697Y032425D01*
X012608Y032470D01*
X012512Y032501D01*
X012424Y032515D01*
X012424Y031942D01*
X012304Y031942D01*
X012304Y032515D01*
X012215Y032501D01*
X012120Y032470D01*
X012031Y032425D01*
X011950Y032366D01*
X011879Y032296D01*
X011821Y032215D01*
X011775Y032126D01*
X011744Y032031D01*
X011730Y031942D01*
X012304Y031942D01*
X012304Y031822D01*
X011730Y031822D01*
X011744Y031733D01*
X011775Y031638D01*
X011821Y031549D01*
X011879Y031468D01*
X011950Y031398D01*
X012031Y031339D01*
X012120Y031293D01*
X012215Y031263D01*
X012304Y031248D01*
X012285Y031251D02*
X011045Y031251D01*
X011045Y031370D02*
X011988Y031370D01*
X011865Y031488D02*
X011045Y031488D01*
X011045Y031607D02*
X011791Y031607D01*
X011747Y031725D02*
X011045Y031725D01*
X011045Y031844D02*
X012304Y031844D01*
X012304Y031962D02*
X012424Y031962D01*
X012424Y031844D02*
X014272Y031844D01*
X014272Y031942D02*
X013699Y031942D01*
X013713Y032031D01*
X013744Y032126D01*
X013789Y032215D01*
X013848Y032296D01*
X013919Y032366D01*
X013999Y032425D01*
X014089Y032470D01*
X014184Y032501D01*
X014272Y032515D01*
X014272Y031942D01*
X014272Y031962D02*
X014392Y031962D01*
X014392Y031942D02*
X014392Y032515D01*
X014481Y032501D01*
X014576Y032470D01*
X014665Y032425D01*
X014746Y032366D01*
X014817Y032296D01*
X014875Y032215D01*
X014921Y032126D01*
X014952Y032031D01*
X014966Y031942D01*
X014392Y031942D01*
X014392Y032081D02*
X014272Y032081D01*
X014272Y032199D02*
X014392Y032199D01*
X014392Y032318D02*
X014272Y032318D01*
X014272Y032436D02*
X014392Y032436D01*
X014643Y032436D02*
X015990Y032436D01*
X015839Y032318D02*
X014794Y032318D01*
X014883Y032199D02*
X015750Y032199D01*
X015698Y032081D02*
X014935Y032081D01*
X014962Y031962D02*
X015671Y031962D01*
X015684Y031725D02*
X014949Y031725D01*
X014905Y031607D02*
X015728Y031607D01*
X015802Y031488D02*
X014831Y031488D01*
X014708Y031370D02*
X015925Y031370D01*
X016241Y031370D02*
X016361Y031370D01*
X016361Y031488D02*
X016241Y031488D01*
X016241Y031607D02*
X016361Y031607D01*
X016361Y031962D02*
X016241Y031962D01*
X016241Y032081D02*
X016361Y032081D01*
X016361Y032199D02*
X016241Y032199D01*
X016241Y032318D02*
X016361Y032318D01*
X016361Y032436D02*
X016241Y032436D01*
X016611Y032436D02*
X017655Y032436D01*
X017634Y032318D02*
X016763Y032318D01*
X016852Y032199D02*
X017634Y032199D01*
X017634Y032081D02*
X016904Y032081D01*
X016931Y031962D02*
X017634Y031962D01*
X017634Y031725D02*
X016918Y031725D01*
X016873Y031607D02*
X017634Y031607D01*
X017634Y031488D02*
X016800Y031488D01*
X016676Y031370D02*
X017639Y031370D01*
X017756Y031251D02*
X016379Y031251D01*
X016361Y031251D02*
X016241Y031251D01*
X016222Y031251D02*
X014411Y031251D01*
X013957Y031370D02*
X012739Y031370D01*
X012777Y031398D02*
X012848Y031468D01*
X012907Y031549D01*
X012952Y031638D01*
X012983Y031733D01*
X012997Y031822D01*
X012424Y031822D01*
X012424Y031248D01*
X012512Y031263D01*
X012608Y031293D01*
X012697Y031339D01*
X012777Y031398D01*
X012863Y031488D02*
X013833Y031488D01*
X013760Y031607D02*
X012936Y031607D01*
X012981Y031725D02*
X013715Y031725D01*
X013702Y031962D02*
X012994Y031962D01*
X012967Y032081D02*
X013729Y032081D01*
X013781Y032199D02*
X012915Y032199D01*
X012826Y032318D02*
X013870Y032318D01*
X014022Y032436D02*
X012674Y032436D01*
X012424Y032436D02*
X012304Y032436D01*
X012304Y032318D02*
X012424Y032318D01*
X012424Y032199D02*
X012304Y032199D01*
X012304Y032081D02*
X012424Y032081D01*
X012424Y031725D02*
X012304Y031725D01*
X012304Y031607D02*
X012424Y031607D01*
X012424Y031488D02*
X012304Y031488D01*
X012304Y031370D02*
X012424Y031370D01*
X011734Y031962D02*
X011045Y031962D01*
X011045Y032081D02*
X011761Y032081D01*
X011813Y032199D02*
X011045Y032199D01*
X011045Y032318D02*
X011902Y032318D01*
X012053Y032436D02*
X011045Y032436D01*
X011045Y032555D02*
X019943Y032555D01*
X019943Y032673D02*
X011045Y032673D01*
X011045Y032792D02*
X019943Y032792D01*
X019943Y032910D02*
X011045Y032910D01*
X011045Y033029D02*
X019943Y033029D01*
X019943Y033147D02*
X011045Y033147D01*
X011045Y033266D02*
X019943Y033266D01*
X019943Y033384D02*
X011045Y033384D01*
X011045Y033503D02*
X019943Y033503D01*
X019943Y033621D02*
X011045Y033621D01*
X011045Y033740D02*
X019943Y033740D01*
X019943Y033858D02*
X011045Y033858D01*
X011045Y033977D02*
X019943Y033977D01*
X019943Y034095D02*
X011045Y034095D01*
X011045Y034214D02*
X019943Y034214D01*
X019943Y034332D02*
X011045Y034332D01*
X013048Y027869D02*
X013034Y027780D01*
X013003Y027685D01*
X012958Y027596D01*
X012899Y027515D01*
X012829Y027445D01*
X012748Y027386D01*
X012659Y027341D01*
X012843Y027459D02*
X013955Y027459D01*
X013854Y027578D02*
X012945Y027578D01*
X013007Y027696D02*
X013791Y027696D01*
X013759Y027815D02*
X013040Y027815D01*
X016108Y027341D02*
X016203Y027310D01*
X016292Y027296D01*
X016292Y027459D02*
X016412Y027459D01*
X016412Y027578D02*
X016292Y027578D01*
X016292Y027696D02*
X016412Y027696D01*
X016412Y027815D02*
X016292Y027815D01*
X018955Y028052D02*
X019943Y028052D01*
X019943Y028170D02*
X018955Y028170D01*
X018955Y028289D02*
X019943Y028289D01*
X019943Y028407D02*
X018955Y028407D01*
X018329Y031251D02*
X018209Y031251D01*
X018209Y031370D02*
X018329Y031370D01*
X018329Y031488D02*
X018209Y031488D01*
X018209Y031607D02*
X018329Y031607D01*
X018329Y031725D02*
X018209Y031725D01*
X018209Y032081D02*
X018329Y032081D01*
X018329Y032199D02*
X018209Y032199D01*
X018209Y032318D02*
X018329Y032318D01*
X018329Y032436D02*
X018209Y032436D01*
X018883Y032436D02*
X019943Y032436D01*
X019943Y032318D02*
X018904Y032318D01*
X018904Y032199D02*
X019943Y032199D01*
X019943Y032081D02*
X018904Y032081D01*
X020740Y010395D02*
X023007Y010395D01*
X022889Y010277D02*
X020843Y010277D01*
X020907Y010158D02*
X022770Y010158D01*
X022652Y010040D02*
X020941Y010040D01*
D27*
X023013Y017567D02*
X023013Y018049D01*
X023020Y018066D01*
X023020Y018352D01*
X023013Y018368D01*
X023013Y020215D01*
X023020Y020231D01*
X023020Y020517D01*
X023013Y020533D01*
X023013Y024969D01*
X017738Y024969D01*
X017738Y027350D01*
X017753Y027334D01*
X017788Y027314D01*
X017826Y027304D01*
X018270Y027304D01*
X018270Y027879D01*
X018370Y027879D01*
X018370Y027304D01*
X018815Y027304D01*
X018853Y027314D01*
X018888Y027334D01*
X018916Y027362D01*
X018935Y027396D01*
X018945Y027434D01*
X018945Y027879D01*
X018370Y027879D01*
X018370Y027979D01*
X018270Y027979D01*
X018270Y028554D01*
X017826Y028554D01*
X017788Y028544D01*
X017753Y028524D01*
X017738Y028509D01*
X017738Y028591D01*
X020415Y028591D01*
X020415Y026858D01*
X024982Y026858D01*
X024982Y021019D01*
X024846Y020883D01*
X024709Y020553D01*
X024709Y020195D01*
X024846Y019865D01*
X024982Y019729D01*
X024982Y018566D01*
X024960Y018528D01*
X024924Y018441D01*
X024899Y018350D01*
X024887Y018259D01*
X024982Y018259D01*
X024982Y018159D01*
X024887Y018159D01*
X024899Y018068D01*
X024924Y017976D01*
X024960Y017889D01*
X024982Y017851D01*
X024982Y017567D01*
X024285Y017567D01*
X024356Y017608D01*
X024431Y017666D01*
X024497Y017732D01*
X024555Y017807D01*
X024602Y017889D01*
X024638Y017976D01*
X024663Y018068D01*
X024675Y018159D01*
X024004Y018159D01*
X024004Y018259D01*
X023904Y018259D01*
X023904Y018929D01*
X023813Y018917D01*
X023722Y018893D01*
X023635Y018857D01*
X023553Y018809D01*
X023478Y018752D01*
X023411Y018685D01*
X023354Y018610D01*
X023306Y018528D01*
X023270Y018441D01*
X023246Y018350D01*
X023234Y018259D01*
X023904Y018259D01*
X023904Y018159D01*
X023234Y018159D01*
X023246Y018068D01*
X023270Y017976D01*
X023306Y017889D01*
X023354Y017807D01*
X023411Y017732D01*
X023478Y017666D01*
X023553Y017608D01*
X023624Y017567D01*
X023013Y017567D01*
X023013Y017659D02*
X023487Y017659D01*
X023392Y017757D02*
X023013Y017757D01*
X023013Y017856D02*
X023326Y017856D01*
X023279Y017954D02*
X023013Y017954D01*
X023015Y018053D02*
X023250Y018053D01*
X023235Y018151D02*
X023020Y018151D01*
X023020Y018250D02*
X023904Y018250D01*
X023958Y018197D02*
X024667Y018197D01*
X024667Y021504D01*
X023643Y021504D01*
X023643Y025598D01*
X018368Y025598D01*
X018368Y027961D01*
X018370Y027979D02*
X018945Y027979D01*
X018945Y028424D01*
X018935Y028462D01*
X018916Y028496D01*
X018888Y028524D01*
X018853Y028544D01*
X018815Y028554D01*
X018370Y028554D01*
X018370Y027979D01*
X018370Y028001D02*
X018270Y028001D01*
X018270Y028100D02*
X018370Y028100D01*
X018370Y028198D02*
X018270Y028198D01*
X018270Y028297D02*
X018370Y028297D01*
X018370Y028395D02*
X018270Y028395D01*
X018270Y028494D02*
X018370Y028494D01*
X018917Y028494D02*
X020415Y028494D01*
X020415Y028395D02*
X018945Y028395D01*
X018945Y028297D02*
X020415Y028297D01*
X020415Y028198D02*
X018945Y028198D01*
X018945Y028100D02*
X020415Y028100D01*
X020415Y028001D02*
X018945Y028001D01*
X018945Y027804D02*
X020415Y027804D01*
X020415Y027706D02*
X018945Y027706D01*
X018945Y027607D02*
X020415Y027607D01*
X020415Y027509D02*
X018945Y027509D01*
X018939Y027410D02*
X020415Y027410D01*
X020415Y027312D02*
X018844Y027312D01*
X018370Y027312D02*
X018270Y027312D01*
X018270Y027410D02*
X018370Y027410D01*
X018370Y027509D02*
X018270Y027509D01*
X018270Y027607D02*
X018370Y027607D01*
X018370Y027706D02*
X018270Y027706D01*
X018270Y027804D02*
X018370Y027804D01*
X018370Y027903D02*
X020415Y027903D01*
X020415Y027213D02*
X017738Y027213D01*
X017738Y027115D02*
X020415Y027115D01*
X020415Y027016D02*
X017738Y027016D01*
X017738Y026918D02*
X020415Y026918D01*
X017797Y027312D02*
X017738Y027312D01*
X017738Y026819D02*
X024982Y026819D01*
X024982Y026721D02*
X017738Y026721D01*
X017738Y026622D02*
X024982Y026622D01*
X024982Y026524D02*
X017738Y026524D01*
X017738Y026425D02*
X024982Y026425D01*
X024982Y026327D02*
X017738Y026327D01*
X017738Y026228D02*
X024982Y026228D01*
X024982Y026130D02*
X017738Y026130D01*
X017738Y026031D02*
X024982Y026031D01*
X024982Y025933D02*
X017738Y025933D01*
X017738Y025834D02*
X024982Y025834D01*
X024982Y025736D02*
X017738Y025736D01*
X017738Y025637D02*
X024982Y025637D01*
X024982Y025539D02*
X017738Y025539D01*
X017738Y025440D02*
X024982Y025440D01*
X024982Y025342D02*
X017738Y025342D01*
X017738Y025243D02*
X024982Y025243D01*
X024982Y025145D02*
X017738Y025145D01*
X017738Y025046D02*
X024982Y025046D01*
X024982Y024948D02*
X023013Y024948D01*
X023013Y024849D02*
X024982Y024849D01*
X024982Y024751D02*
X023013Y024751D01*
X023013Y024652D02*
X024982Y024652D01*
X024982Y024554D02*
X023013Y024554D01*
X023013Y024455D02*
X024982Y024455D01*
X024982Y024357D02*
X023013Y024357D01*
X023013Y024258D02*
X024982Y024258D01*
X024982Y024160D02*
X023013Y024160D01*
X023013Y024061D02*
X024982Y024061D01*
X024982Y023963D02*
X023013Y023963D01*
X023013Y023864D02*
X024982Y023864D01*
X024982Y023766D02*
X023013Y023766D01*
X023013Y023667D02*
X024982Y023667D01*
X024982Y023569D02*
X023013Y023569D01*
X023013Y023470D02*
X024982Y023470D01*
X024982Y023372D02*
X023013Y023372D01*
X023013Y023273D02*
X024982Y023273D01*
X024982Y023175D02*
X023013Y023175D01*
X023013Y023076D02*
X024982Y023076D01*
X024982Y022978D02*
X023013Y022978D01*
X023013Y022879D02*
X024982Y022879D01*
X024982Y022781D02*
X023013Y022781D01*
X023013Y022682D02*
X024982Y022682D01*
X024982Y022584D02*
X023013Y022584D01*
X023013Y022485D02*
X024982Y022485D01*
X024982Y022387D02*
X023013Y022387D01*
X023013Y022288D02*
X024982Y022288D01*
X024982Y022190D02*
X023013Y022190D01*
X023013Y022091D02*
X024982Y022091D01*
X024982Y021993D02*
X023013Y021993D01*
X023013Y021894D02*
X024982Y021894D01*
X024982Y021796D02*
X023013Y021796D01*
X023013Y021697D02*
X024982Y021697D01*
X024982Y021599D02*
X023013Y021599D01*
X023013Y021500D02*
X024982Y021500D01*
X024982Y021402D02*
X023013Y021402D01*
X023013Y021303D02*
X024982Y021303D01*
X024982Y021205D02*
X023013Y021205D01*
X023013Y021106D02*
X024982Y021106D01*
X024971Y021008D02*
X024304Y021008D01*
X024362Y020984D02*
X024097Y021093D01*
X023811Y021093D01*
X023547Y020984D01*
X023345Y020781D01*
X023235Y020517D01*
X023235Y020231D01*
X023345Y019967D01*
X023547Y019764D01*
X023811Y019655D01*
X024097Y019655D01*
X024362Y019764D01*
X024564Y019967D01*
X024674Y020231D01*
X024674Y020517D01*
X024564Y020781D01*
X024362Y020984D01*
X024436Y020909D02*
X024873Y020909D01*
X024816Y020811D02*
X024535Y020811D01*
X024593Y020712D02*
X024776Y020712D01*
X024735Y020614D02*
X024634Y020614D01*
X024674Y020515D02*
X024709Y020515D01*
X024709Y020417D02*
X024674Y020417D01*
X024674Y020318D02*
X024709Y020318D01*
X024709Y020220D02*
X024669Y020220D01*
X024628Y020121D02*
X024740Y020121D01*
X024781Y020023D02*
X024587Y020023D01*
X024522Y019924D02*
X024822Y019924D01*
X024885Y019826D02*
X024423Y019826D01*
X024273Y019727D02*
X024982Y019727D01*
X024982Y019629D02*
X023013Y019629D01*
X023013Y019727D02*
X023636Y019727D01*
X023485Y019826D02*
X023013Y019826D01*
X023013Y019924D02*
X023387Y019924D01*
X023321Y020023D02*
X023013Y020023D01*
X023013Y020121D02*
X023280Y020121D01*
X023240Y020220D02*
X023015Y020220D01*
X023020Y020318D02*
X023235Y020318D01*
X023235Y020417D02*
X023020Y020417D01*
X023020Y020515D02*
X023235Y020515D01*
X023275Y020614D02*
X023013Y020614D01*
X023013Y020712D02*
X023316Y020712D01*
X023374Y020811D02*
X023013Y020811D01*
X023013Y020909D02*
X023472Y020909D01*
X023605Y021008D02*
X023013Y021008D01*
X023013Y019530D02*
X024982Y019530D01*
X024982Y019432D02*
X023013Y019432D01*
X023013Y019333D02*
X024982Y019333D01*
X024982Y019235D02*
X023013Y019235D01*
X023013Y019136D02*
X024982Y019136D01*
X024982Y019038D02*
X023013Y019038D01*
X023013Y018939D02*
X024982Y018939D01*
X024982Y018841D02*
X024301Y018841D01*
X024274Y018857D02*
X024187Y018893D01*
X024095Y018917D01*
X024004Y018929D01*
X024004Y018259D01*
X024675Y018259D01*
X024663Y018350D01*
X024638Y018441D01*
X024602Y018528D01*
X024555Y018610D01*
X024497Y018685D01*
X024431Y018752D01*
X024356Y018809D01*
X024274Y018857D01*
X024440Y018742D02*
X024982Y018742D01*
X024982Y018644D02*
X024529Y018644D01*
X024592Y018545D02*
X024970Y018545D01*
X024926Y018447D02*
X024636Y018447D01*
X024663Y018348D02*
X024899Y018348D01*
X024982Y018250D02*
X024004Y018250D01*
X024004Y018348D02*
X023904Y018348D01*
X023904Y018447D02*
X024004Y018447D01*
X024004Y018545D02*
X023904Y018545D01*
X023904Y018644D02*
X024004Y018644D01*
X024004Y018742D02*
X023904Y018742D01*
X023904Y018841D02*
X024004Y018841D01*
X023608Y018841D02*
X023013Y018841D01*
X023013Y018742D02*
X023469Y018742D01*
X023380Y018644D02*
X023013Y018644D01*
X023013Y018545D02*
X023316Y018545D01*
X023273Y018447D02*
X023013Y018447D01*
X023020Y018348D02*
X023246Y018348D01*
X024422Y017659D02*
X024982Y017659D01*
X024982Y017757D02*
X024517Y017757D01*
X024583Y017856D02*
X024979Y017856D01*
X024933Y017954D02*
X024629Y017954D01*
X024659Y018053D02*
X024903Y018053D01*
X024888Y018151D02*
X024674Y018151D01*
M02*
