%
M48
M72
T01C0.0440
T02C0.0512
T03C0.0630
T04C0.0709
T05C0.1181
T06C0.1300
%
T01
X24706Y1650
X24706Y3650
T02
X28702Y2016
X30671Y2016
X32639Y2016
X34608Y2016
X34714Y6205
X32746Y6205
X30777Y6205
X28809Y6205
X25919Y9831
X23950Y9831
X20317Y9921
X18348Y9921
X16380Y9921
X14411Y9921
X10671Y6528
X8702Y6528
X6734Y6528
X4765Y6528
X4793Y2000
X6761Y2000
X8730Y2000
X10698Y2000
X12415Y27929
X14383Y27929
X16352Y27929
X18320Y27929
X21785Y27913
X23754Y27913
X25722Y27913
X27691Y27913
X31313Y27961
X33281Y27961
X35250Y27961
X37218Y27961
X37183Y31894
X35214Y31894
X33246Y31894
X31277Y31894
X27718Y31850
X25750Y31850
X23781Y31850
X21813Y31850
X18269Y31882
X16301Y31882
X14332Y31882
X12364Y31882
X8033Y31850
X6065Y31850
X4096Y31850
X2128Y31850
X2143Y27957
X4112Y27957
X6080Y27957
X8049Y27957
T03
X3400Y23242
X3450Y19742
X3450Y15742
X3450Y11992
X15691Y23157
X36078Y23868
X36128Y20368
X36128Y16368
X36128Y12618
T04
X28915Y18209
X27261Y18209
X25608Y18209
X23954Y18209
X22301Y18209
X20647Y18209
X18994Y18209
X17340Y18209
X15687Y18209
X14033Y18209
X12380Y18209
X10726Y18209
X10726Y20374
X12380Y20374
X14033Y20374
X15687Y20374
X17340Y20374
X18994Y20374
X20647Y20374
X22301Y20374
X23954Y20374
X25608Y20374
X27261Y20374
X28915Y20374
T05
X30765Y18390
X8876Y18390
T06
X2069Y2252
X17506Y2650
X37502Y2291
X37502Y37724
X2069Y37724
M30
